<?xml version="1.0" encoding="UTF-8"?>
<svg xmlns="http://www.w3.org/2000/svg" width="800.000" height="600.000" viewBox="0.0 0.0 800.000 600.000" version="1.1">
  <title>Produce by Acme CAD Converter</title>
  <desc>Produce by Acme CAD Converter</desc>
<path d="M128.03 496.4L128.22 494.61M128.22 494.61L128.78 492.89M128.78 492.89L129.68 491.33M129.68 491.33L130.89 489.99M130.89 489.99L132.35 488.93M132.35 488.93L133.99 488.19M133.99 488.19L135.76 487.82M135.76 487.82L137.56 487.82M137.56 487.82L139.33 488.19M139.33 488.19L140.98 488.93M140.98 488.93L142.43 489.99M142.43 489.99L143.64 491.33M143.64 491.33L144.54 492.89M144.54 492.89L145.1 494.61M145.1 494.61L145.29 496.4M145.29 496.4L145.1 498.19M145.1 498.19L144.54 499.91M144.54 499.91L143.64 501.47M143.64 501.47L142.43 502.81M142.43 502.81L140.98 503.87M140.98 503.87L139.33 504.61M139.33 504.61L137.56 504.98M137.56 504.98L135.76 504.98M135.76 504.98L133.99 504.61M133.99 504.61L132.35 503.87M132.35 503.87L130.89 502.81M130.89 502.81L129.68 501.47M129.68 501.47L128.78 499.91M128.78 499.91L128.22 498.19M128.22 498.19L128.03 496.4"
fill="none" stroke="black" stroke-width="0.5"/>
<path d="M605.48 496.4L605.67 494.61M605.67 494.61L606.22 492.89M606.22 492.89L607.13 491.33M607.13 491.33L608.33 489.99M608.33 489.99L609.79 488.93M609.79 488.93L611.44 488.19M611.44 488.19L613.2 487.82M613.2 487.82L615.01 487.82M615.01 487.82L616.77 488.19M616.77 488.19L618.42 488.93M618.42 488.93L619.88 489.99M619.88 489.99L621.09 491.33M621.09 491.33L621.99 492.89M621.99 492.89L622.55 494.61M622.55 494.61L622.74 496.4M622.74 496.4L622.55 498.19M622.55 498.19L621.99 499.91M621.99 499.91L621.09 501.47M621.09 501.47L619.88 502.81M619.88 502.81L618.42 503.87M618.42 503.87L616.77 504.61M616.77 504.61L615.01 504.98M615.01 504.98L613.2 504.98M613.2 504.98L611.44 504.61M611.44 504.61L609.79 503.87M609.79 503.87L608.33 502.81M608.33 502.81L607.13 501.47M607.13 501.47L606.22 499.91M606.22 499.91L605.67 498.19M605.67 498.19L605.48 496.4"
fill="none" stroke="black" stroke-width="0.5"/>
<path d="M605.48 18.95L605.67 17.16M605.67 17.16L606.22 15.45M606.22 15.45L607.13 13.88M607.13 13.88L608.33 12.54M608.33 12.54L609.79 11.48M609.79 11.48L611.44 10.75M611.44 10.75L613.2 10.37M613.2 10.37L615.01 10.37M615.01 10.37L616.77 10.75M616.77 10.75L618.42 11.48M618.42 11.48L619.88 12.54M619.88 12.54L621.09 13.88M621.09 13.88L621.99 15.45M621.99 15.45L622.55 17.16M622.55 17.16L622.74 18.95M622.74 18.95L622.55 20.75M622.55 20.75L621.99 22.46M621.99 22.46L621.09 24.03M621.09 24.03L619.88 25.37M619.88 25.37L618.42 26.43M618.42 26.43L616.77 27.16M616.77 27.16L615.01 27.54M615.01 27.54L613.2 27.54M613.2 27.54L611.44 27.16M611.44 27.16L609.79 26.43M609.79 26.43L608.33 25.37M608.33 25.37L607.13 24.03M607.13 24.03L606.22 22.46M606.22 22.46L605.67 20.75M605.67 20.75L605.48 18.95"
fill="none" stroke="black" stroke-width="0.5"/>
<path d="M128.03 18.95L128.22 17.16M128.22 17.16L128.78 15.45M128.78 15.45L129.68 13.88M129.68 13.88L130.89 12.54M130.89 12.54L132.35 11.48M132.35 11.48L133.99 10.75M133.99 10.75L135.76 10.37M135.76 10.37L137.56 10.37M137.56 10.37L139.33 10.75M139.33 10.75L140.98 11.48M140.98 11.48L142.43 12.54M142.43 12.54L143.64 13.88M143.64 13.88L144.54 15.45M144.54 15.45L145.1 17.16M145.1 17.16L145.29 18.95M145.29 18.95L145.1 20.75M145.1 20.75L144.54 22.46M144.54 22.46L143.64 24.03M143.64 24.03L142.43 25.37M142.43 25.37L140.98 26.43M140.98 26.43L139.33 27.16M139.33 27.16L137.56 27.54M137.56 27.54L135.76 27.54M135.76 27.54L133.99 27.16M133.99 27.16L132.35 26.43M132.35 26.43L130.89 25.37M130.89 25.37L129.68 24.03M129.68 24.03L128.78 22.46M128.78 22.46L128.22 20.75M128.22 20.75L128.03 18.95"
fill="none" stroke="black" stroke-width="0.5"/>
<path d="M455.92 122.5L524.95 122.5"
fill="none" stroke="black" stroke-width="0.5"/>
<path d="M527.82 119.62L527.82 39.09"
fill="none" stroke="black" stroke-width="0.5"/>
<path d="M524.95 36.21L455.92 36.21"
fill="none" stroke="black" stroke-width="0.5"/>
<path d="M453.04 39.09L453.04 119.62"
fill="none" stroke="black" stroke-width="0.5"/>
<path d="M251.71 355.47L251.71 280.69"
fill="none" stroke="black" stroke-width="0.5"/>
<path d="M248.83 277.81L174.05 277.81"
fill="none" stroke="black" stroke-width="0.5"/>
<path d="M171.18 280.69L171.18 355.47"
fill="none" stroke="black" stroke-width="0.5"/>
<path d="M174.05 358.34L248.83 358.34"
fill="none" stroke="black" stroke-width="0.5"/>
<path d="M470.3 246.17L470.3 171.39"
fill="none" stroke="black" stroke-width="0.5"/>
<path d="M467.42 168.52L392.64 168.52"
fill="none" stroke="black" stroke-width="0.5"/>
<path d="M389.76 171.39L389.76 246.17"
fill="none" stroke="black" stroke-width="0.5"/>
<path d="M392.64 249.05L467.42 249.05"
fill="none" stroke="black" stroke-width="0.5"/>
<path d="M579.59 355.47L579.59 280.69"
fill="none" stroke="black" stroke-width="0.5"/>
<path d="M576.72 277.81L501.94 277.81"
fill="none" stroke="black" stroke-width="0.5"/>
<path d="M499.06 280.69L499.06 355.47"
fill="none" stroke="black" stroke-width="0.5"/>
<path d="M501.94 358.34L576.72 358.34"
fill="none" stroke="black" stroke-width="0.5"/>
<path d="M361 355.47L361 280.69"
fill="none" stroke="black" stroke-width="0.5"/>
<path d="M358.13 277.81L283.35 277.81"
fill="none" stroke="black" stroke-width="0.5"/>
<path d="M280.47 280.69L280.47 355.47"
fill="none" stroke="black" stroke-width="0.5"/>
<path d="M283.35 358.34L358.13 358.34"
fill="none" stroke="black" stroke-width="0.5"/>
<path d="M470.3 464.76L470.3 389.98"
fill="none" stroke="black" stroke-width="0.5"/>
<path d="M467.42 387.11L392.64 387.11"
fill="none" stroke="black" stroke-width="0.5"/>
<path d="M389.76 389.98L389.76 464.76"
fill="none" stroke="black" stroke-width="0.5"/>
<path d="M392.64 467.64L467.42 467.64"
fill="none" stroke="black" stroke-width="0.5"/>
<path d="M251.71 464.76L251.71 389.98"
fill="none" stroke="black" stroke-width="0.5"/>
<path d="M248.83 387.11L174.05 387.11"
fill="none" stroke="black" stroke-width="0.5"/>
<path d="M171.18 389.98L171.18 464.76"
fill="none" stroke="black" stroke-width="0.5"/>
<path d="M174.05 467.64L248.83 467.64"
fill="none" stroke="black" stroke-width="0.5"/>
<path d="M119.4 18.95L119.4 496.4"
fill="none" stroke="black" stroke-width="0.5"/>
<path d="M614.11 1.7L136.66 1.7"
fill="none" stroke="black" stroke-width="0.5"/>
<path d="M631.36 496.4L631.36 18.95"
fill="none" stroke="black" stroke-width="0.5"/>
<path d="M136.66 513.66L614.11 513.66"
fill="none" stroke="black" stroke-width="0.5"/>
<path d="M297.73 119.62L297.73 39.09"
fill="none" stroke="black" stroke-width="0.5"/>
<path d="M294.85 36.21L225.82 36.21"
fill="none" stroke="black" stroke-width="0.5"/>
<path d="M222.95 39.09L222.95 119.62"
fill="none" stroke="black" stroke-width="0.5"/>
<path d="M225.82 122.5L294.85 122.5"
fill="none" stroke="black" stroke-width="0.5"/>
<path d="M361 464.76L361 389.98"
fill="none" stroke="black" stroke-width="0.5"/>
<path d="M358.13 387.11L283.35 387.11"
fill="none" stroke="black" stroke-width="0.5"/>
<path d="M280.47 389.98L280.47 464.76"
fill="none" stroke="black" stroke-width="0.5"/>
<path d="M283.35 467.64L358.13 467.64"
fill="none" stroke="black" stroke-width="0.5"/>
<path d="M579.59 464.76L579.59 389.98"
fill="none" stroke="black" stroke-width="0.5"/>
<path d="M576.72 387.11L501.94 387.11"
fill="none" stroke="black" stroke-width="0.5"/>
<path d="M499.06 389.98L499.06 464.76"
fill="none" stroke="black" stroke-width="0.5"/>
<path d="M501.94 467.64L576.72 467.64"
fill="none" stroke="black" stroke-width="0.5"/>
<path d="M470.3 355.47L470.3 280.69"
fill="none" stroke="black" stroke-width="0.5"/>
<path d="M467.42 277.81L392.64 277.81"
fill="none" stroke="black" stroke-width="0.5"/>
<path d="M389.76 280.69L389.76 355.47"
fill="none" stroke="black" stroke-width="0.5"/>
<path d="M392.64 358.34L467.42 358.34"
fill="none" stroke="black" stroke-width="0.5"/>
<path d="M361 246.17L361 171.39"
fill="none" stroke="black" stroke-width="0.5"/>
<path d="M358.13 168.52L283.35 168.52"
fill="none" stroke="black" stroke-width="0.5"/>
<path d="M280.47 171.39L280.47 246.17"
fill="none" stroke="black" stroke-width="0.5"/>
<path d="M283.35 249.05L358.13 249.05"
fill="none" stroke="black" stroke-width="0.5"/>
<path d="M579.59 246.17L579.59 171.39"
fill="none" stroke="black" stroke-width="0.5"/>
<path d="M576.72 168.52L501.94 168.52"
fill="none" stroke="black" stroke-width="0.5"/>
<path d="M499.06 171.39L499.06 246.17"
fill="none" stroke="black" stroke-width="0.5"/>
<path d="M501.94 249.05L576.72 249.05"
fill="none" stroke="black" stroke-width="0.5"/>
<path d="M251.71 246.17L251.71 171.39"
fill="none" stroke="black" stroke-width="0.5"/>
<path d="M248.83 168.52L174.05 168.52"
fill="none" stroke="black" stroke-width="0.5"/>
<path d="M171.18 171.39L171.18 246.17"
fill="none" stroke="black" stroke-width="0.5"/>
<path d="M174.05 249.05L248.83 249.05"
fill="none" stroke="black" stroke-width="0.5"/>
<path d="M524.95 122.5L525.83 122.36M525.83 122.36L526.64 121.95M526.64 121.95L527.27 121.31M527.27 121.31L527.68 120.51M527.68 120.51L527.82 119.62"
fill="none" stroke="black" stroke-width="0.5"/>
<path d="M527.82 39.09L527.68 38.2M527.68 38.2L527.27 37.4M527.27 37.4L526.64 36.76M526.64 36.76L525.83 36.35M525.83 36.35L524.95 36.21"
fill="none" stroke="black" stroke-width="0.5"/>
<path d="M455.92 36.21L455.03 36.35M455.03 36.35L454.23 36.76M454.23 36.76L453.59 37.4M453.59 37.4L453.18 38.2M453.18 38.2L453.04 39.09"
fill="none" stroke="black" stroke-width="0.5"/>
<path d="M453.04 119.62L453.18 120.51M453.18 120.51L453.59 121.31M453.59 121.31L454.23 121.95M454.23 121.95L455.03 122.36M455.03 122.36L455.92 122.5"
fill="none" stroke="black" stroke-width="0.5"/>
<path d="M251.71 280.69L251.57 279.8M251.57 279.8L251.16 279M251.16 279L250.52 278.36M250.52 278.36L249.72 277.95M249.72 277.95L248.83 277.81"
fill="none" stroke="black" stroke-width="0.5"/>
<path d="M174.05 277.81L173.16 277.95M173.16 277.95L172.36 278.36M172.36 278.36L171.72 279M171.72 279L171.32 279.8M171.32 279.8L171.18 280.69"
fill="none" stroke="black" stroke-width="0.5"/>
<path d="M171.18 355.47L171.32 356.36M171.32 356.36L171.72 357.16M171.72 357.16L172.36 357.79M172.36 357.79L173.16 358.2M173.16 358.2L174.05 358.34"
fill="none" stroke="black" stroke-width="0.5"/>
<path d="M248.83 358.34L249.72 358.2M249.72 358.2L250.52 357.79M250.52 357.79L251.16 357.16M251.16 357.16L251.57 356.36M251.57 356.36L251.71 355.47"
fill="none" stroke="black" stroke-width="0.5"/>
<path d="M470.3 171.39L470.16 170.5M470.16 170.5L469.75 169.7M469.75 169.7L469.11 169.07M469.11 169.07L468.31 168.66M468.31 168.66L467.42 168.52"
fill="none" stroke="black" stroke-width="0.5"/>
<path d="M392.64 168.52L391.75 168.66M391.75 168.66L390.95 169.07M390.95 169.07L390.31 169.7M390.31 169.7L389.91 170.5M389.91 170.5L389.76 171.39"
fill="none" stroke="black" stroke-width="0.5"/>
<path d="M389.76 246.17L389.91 247.06M389.91 247.06L390.31 247.86M390.31 247.86L390.95 248.5M390.95 248.5L391.75 248.91M391.75 248.91L392.64 249.05"
fill="none" stroke="black" stroke-width="0.5"/>
<path d="M467.42 249.05L468.31 248.91M468.31 248.91L469.11 248.5M469.11 248.5L469.75 247.86M469.75 247.86L470.16 247.06M470.16 247.06L470.3 246.17"
fill="none" stroke="black" stroke-width="0.5"/>
<path d="M579.59 280.69L579.45 279.8M579.45 279.8L579.04 279M579.04 279L578.41 278.36M578.41 278.36L577.61 277.95M577.61 277.95L576.72 277.81"
fill="none" stroke="black" stroke-width="0.5"/>
<path d="M501.94 277.81L501.05 277.95M501.05 277.95L500.25 278.36M500.25 278.36L499.61 279M499.61 279L499.2 279.8M499.2 279.8L499.06 280.69"
fill="none" stroke="black" stroke-width="0.5"/>
<path d="M499.06 355.47L499.2 356.36M499.2 356.36L499.61 357.16M499.61 357.16L500.25 357.79M500.25 357.79L501.05 358.2M501.05 358.2L501.94 358.34"
fill="none" stroke="black" stroke-width="0.5"/>
<path d="M576.72 358.34L577.61 358.2M577.61 358.2L578.41 357.79M578.41 357.79L579.04 357.16M579.04 357.16L579.45 356.36M579.45 356.36L579.59 355.47"
fill="none" stroke="black" stroke-width="0.5"/>
<path d="M361 280.69L360.86 279.8M360.86 279.8L360.45 279M360.45 279L359.82 278.36M359.82 278.36L359.02 277.95M359.02 277.95L358.13 277.81"
fill="none" stroke="black" stroke-width="0.5"/>
<path d="M283.35 277.81L282.46 277.95M282.46 277.95L281.66 278.36M281.66 278.36L281.02 279M281.02 279L280.61 279.8M280.61 279.8L280.47 280.69"
fill="none" stroke="black" stroke-width="0.5"/>
<path d="M280.47 355.47L280.61 356.36M280.61 356.36L281.02 357.16M281.02 357.16L281.66 357.79M281.66 357.79L282.46 358.2M282.46 358.2L283.35 358.34"
fill="none" stroke="black" stroke-width="0.5"/>
<path d="M358.13 358.34L359.02 358.2M359.02 358.2L359.82 357.79M359.82 357.79L360.45 357.16M360.45 357.16L360.86 356.36M360.86 356.36L361 355.47"
fill="none" stroke="black" stroke-width="0.5"/>
<path d="M470.3 389.98L470.16 389.09M470.16 389.09L469.75 388.29M469.75 388.29L469.11 387.65M469.11 387.65L468.31 387.25M468.31 387.25L467.42 387.11"
fill="none" stroke="black" stroke-width="0.5"/>
<path d="M392.64 387.11L391.75 387.25M391.75 387.25L390.95 387.65M390.95 387.65L390.31 388.29M390.31 388.29L389.91 389.09M389.91 389.09L389.76 389.98"
fill="none" stroke="black" stroke-width="0.5"/>
<path d="M389.76 464.76L389.91 465.65M389.91 465.65L390.31 466.45M390.31 466.45L390.95 467.09M390.95 467.09L391.75 467.5M391.75 467.5L392.64 467.64"
fill="none" stroke="black" stroke-width="0.5"/>
<path d="M467.42 467.64L468.31 467.5M468.31 467.5L469.11 467.09M469.11 467.09L469.75 466.45M469.75 466.45L470.16 465.65M470.16 465.65L470.3 464.76"
fill="none" stroke="black" stroke-width="0.5"/>
<path d="M251.71 389.98L251.57 389.09M251.57 389.09L251.16 388.29M251.16 388.29L250.52 387.65M250.52 387.65L249.72 387.25M249.72 387.25L248.83 387.11"
fill="none" stroke="black" stroke-width="0.5"/>
<path d="M174.05 387.11L173.16 387.25M173.16 387.25L172.36 387.65M172.36 387.65L171.72 388.29M171.72 388.29L171.32 389.09M171.32 389.09L171.18 389.98"
fill="none" stroke="black" stroke-width="0.5"/>
<path d="M171.18 464.76L171.32 465.65M171.32 465.65L171.72 466.45M171.72 466.45L172.36 467.09M172.36 467.09L173.16 467.5M173.16 467.5L174.05 467.64"
fill="none" stroke="black" stroke-width="0.5"/>
<path d="M248.83 467.64L249.72 467.5M249.72 467.5L250.52 467.09M250.52 467.09L251.16 466.45M251.16 466.45L251.57 465.65M251.57 465.65L251.71 464.76"
fill="none" stroke="black" stroke-width="0.5"/>
<path d="M136.66 1.7L134.21 1.87M134.21 1.87L131.8 2.4M131.8 2.4L129.49 3.26M129.49 3.26L127.33 4.44M127.33 4.44L125.36 5.91M125.36 5.91L123.62 7.65M123.62 7.65L122.14 9.62M122.14 9.62L120.96 11.79M120.96 11.79L120.1 14.09M120.1 14.09L119.58 16.5M119.58 16.5L119.4 18.95"
fill="none" stroke="black" stroke-width="0.5"/>
<path d="M631.36 18.95L631.19 16.5M631.19 16.5L630.66 14.09M630.66 14.09L629.8 11.79M629.8 11.79L628.62 9.62M628.62 9.62L627.15 7.65M627.15 7.65L625.41 5.91M625.41 5.91L623.44 4.44M623.44 4.44L621.28 3.26M621.28 3.26L618.97 2.4M618.97 2.4L616.56 1.87M616.56 1.87L614.11 1.7"
fill="none" stroke="black" stroke-width="0.5"/>
<path d="M614.11 513.66L616.56 513.48M616.56 513.48L618.97 512.96M618.97 512.96L621.28 512.1M621.28 512.1L623.44 510.92M623.44 510.92L625.41 509.44M625.41 509.44L627.15 507.7M627.15 507.7L628.62 505.73M628.62 505.73L629.8 503.57M629.8 503.57L630.66 501.26M630.66 501.26L631.19 498.86M631.19 498.86L631.36 496.4"
fill="none" stroke="black" stroke-width="0.5"/>
<path d="M119.4 496.4L119.58 498.86M119.58 498.86L120.1 501.26M120.1 501.26L120.96 503.57M120.96 503.57L122.14 505.73M122.14 505.73L123.62 507.7M123.62 507.7L125.36 509.44M125.36 509.44L127.33 510.92M127.33 510.92L129.49 512.1M129.49 512.1L131.8 512.96M131.8 512.96L134.21 513.48M134.21 513.48L136.66 513.66"
fill="none" stroke="black" stroke-width="0.5"/>
<path d="M297.73 39.09L297.59 38.2M297.59 38.2L297.18 37.4M297.18 37.4L296.54 36.76M296.54 36.76L295.74 36.35M295.74 36.35L294.85 36.21"
fill="none" stroke="black" stroke-width="0.5"/>
<path d="M225.82 36.21L224.93 36.35M224.93 36.35L224.13 36.76M224.13 36.76L223.5 37.4M223.5 37.4L223.09 38.2M223.09 38.2L222.95 39.09"
fill="none" stroke="black" stroke-width="0.5"/>
<path d="M222.95 119.62L223.09 120.51M223.09 120.51L223.5 121.31M223.5 121.31L224.13 121.95M224.13 121.95L224.93 122.36M224.93 122.36L225.82 122.5"
fill="none" stroke="black" stroke-width="0.5"/>
<path d="M294.85 122.5L295.74 122.36M295.74 122.36L296.54 121.95M296.54 121.95L297.18 121.31M297.18 121.31L297.59 120.51M297.59 120.51L297.73 119.62"
fill="none" stroke="black" stroke-width="0.5"/>
<path d="M361 389.98L360.86 389.09M360.86 389.09L360.45 388.29M360.45 388.29L359.82 387.65M359.82 387.65L359.02 387.25M359.02 387.25L358.13 387.11"
fill="none" stroke="black" stroke-width="0.5"/>
<path d="M283.35 387.11L282.46 387.25M282.46 387.25L281.66 387.65M281.66 387.65L281.02 388.29M281.02 388.29L280.61 389.09M280.61 389.09L280.47 389.98"
fill="none" stroke="black" stroke-width="0.5"/>
<path d="M280.47 464.76L280.61 465.65M280.61 465.65L281.02 466.45M281.02 466.45L281.66 467.09M281.66 467.09L282.46 467.5M282.46 467.5L283.35 467.64"
fill="none" stroke="black" stroke-width="0.5"/>
<path d="M358.13 467.64L359.02 467.5M359.02 467.5L359.82 467.09M359.82 467.09L360.45 466.45M360.45 466.45L360.86 465.65M360.86 465.65L361 464.76"
fill="none" stroke="black" stroke-width="0.5"/>
<path d="M579.59 389.98L579.45 389.09M579.45 389.09L579.04 388.29M579.04 388.29L578.41 387.65M578.41 387.65L577.61 387.25M577.61 387.25L576.72 387.11"
fill="none" stroke="black" stroke-width="0.5"/>
<path d="M501.94 387.11L501.05 387.25M501.05 387.25L500.25 387.65M500.25 387.65L499.61 388.29M499.61 388.29L499.2 389.09M499.2 389.09L499.06 389.98"
fill="none" stroke="black" stroke-width="0.5"/>
<path d="M499.06 464.76L499.2 465.65M499.2 465.65L499.61 466.45M499.61 466.45L500.25 467.09M500.25 467.09L501.05 467.5M501.05 467.5L501.94 467.64"
fill="none" stroke="black" stroke-width="0.5"/>
<path d="M576.72 467.64L577.61 467.5M577.61 467.5L578.41 467.09M578.41 467.09L579.04 466.45M579.04 466.45L579.45 465.65M579.45 465.65L579.59 464.76"
fill="none" stroke="black" stroke-width="0.5"/>
<path d="M470.3 280.69L470.16 279.8M470.16 279.8L469.75 279M469.75 279L469.11 278.36M469.11 278.36L468.31 277.95M468.31 277.95L467.42 277.81"
fill="none" stroke="black" stroke-width="0.5"/>
<path d="M392.64 277.81L391.75 277.95M391.75 277.95L390.95 278.36M390.95 278.36L390.31 279M390.31 279L389.91 279.8M389.91 279.8L389.76 280.69"
fill="none" stroke="black" stroke-width="0.5"/>
<path d="M389.76 355.47L389.91 356.36M389.91 356.36L390.31 357.16M390.31 357.16L390.95 357.79M390.95 357.79L391.75 358.2M391.75 358.2L392.64 358.34"
fill="none" stroke="black" stroke-width="0.5"/>
<path d="M467.42 358.34L468.31 358.2M468.31 358.2L469.11 357.79M469.11 357.79L469.75 357.16M469.75 357.16L470.16 356.36M470.16 356.36L470.3 355.47"
fill="none" stroke="black" stroke-width="0.5"/>
<path d="M361 171.39L360.86 170.5M360.86 170.5L360.45 169.7M360.45 169.7L359.82 169.07M359.82 169.07L359.02 168.66M359.02 168.66L358.13 168.52"
fill="none" stroke="black" stroke-width="0.5"/>
<path d="M283.35 168.52L282.46 168.66M282.46 168.66L281.66 169.07M281.66 169.07L281.02 169.7M281.02 169.7L280.61 170.5M280.61 170.5L280.47 171.39"
fill="none" stroke="black" stroke-width="0.5"/>
<path d="M280.47 246.17L280.61 247.06M280.61 247.06L281.02 247.86M281.02 247.86L281.66 248.5M281.66 248.5L282.46 248.91M282.46 248.91L283.35 249.05"
fill="none" stroke="black" stroke-width="0.5"/>
<path d="M358.13 249.05L359.02 248.91M359.02 248.91L359.82 248.5M359.82 248.5L360.45 247.86M360.45 247.86L360.86 247.06M360.86 247.06L361 246.17"
fill="none" stroke="black" stroke-width="0.5"/>
<path d="M579.59 171.39L579.45 170.5M579.45 170.5L579.04 169.7M579.04 169.7L578.41 169.07M578.41 169.07L577.61 168.66M577.61 168.66L576.72 168.52"
fill="none" stroke="black" stroke-width="0.5"/>
<path d="M501.94 168.52L501.05 168.66M501.05 168.66L500.25 169.07M500.25 169.07L499.61 169.7M499.61 169.7L499.2 170.5M499.2 170.5L499.06 171.39"
fill="none" stroke="black" stroke-width="0.5"/>
<path d="M499.06 246.17L499.2 247.06M499.2 247.06L499.61 247.86M499.61 247.86L500.25 248.5M500.25 248.5L501.05 248.91M501.05 248.91L501.94 249.05"
fill="none" stroke="black" stroke-width="0.5"/>
<path d="M576.72 249.05L577.61 248.91M577.61 248.91L578.41 248.5M578.41 248.5L579.04 247.86M579.04 247.86L579.45 247.06M579.45 247.06L579.59 246.17"
fill="none" stroke="black" stroke-width="0.5"/>
<path d="M251.71 171.39L251.57 170.5M251.57 170.5L251.16 169.7M251.16 169.7L250.52 169.07M250.52 169.07L249.72 168.66M249.72 168.66L248.83 168.52"
fill="none" stroke="black" stroke-width="0.5"/>
<path d="M174.05 168.52L173.16 168.66M173.16 168.66L172.36 169.07M172.36 169.07L171.72 169.7M171.72 169.7L171.32 170.5M171.32 170.5L171.18 171.39"
fill="none" stroke="black" stroke-width="0.5"/>
<path d="M171.18 246.17L171.32 247.06M171.32 247.06L171.72 247.86M171.72 247.86L172.36 248.5M172.36 248.5L173.16 248.91M173.16 248.91L174.05 249.05"
fill="none" stroke="black" stroke-width="0.5"/>
<path d="M248.83 249.05L249.72 248.91M249.72 248.91L250.52 248.5M250.52 248.5L251.16 247.86M251.16 247.86L251.57 247.06M251.57 247.06L251.71 246.17"
fill="none" stroke="black" stroke-width="0.5"/>
<path d="M119.4 542.69L122.65 547.33M122.65 547.33L129.14 547.33M129.14 547.33L132.38 542.69M132.38 542.69L119.4 524.16M119.4 524.16L122.65 519.52M122.65 519.52L129.14 519.52M129.14 519.52L132.38 524.16M138.87 547.33L138.87 519.52M138.87 519.52L151.84 519.52M151.84 519.52L151.84 547.33M151.84 547.33L138.87 547.33M158.33 519.52L158.33 547.33M158.33 547.33L171.31 547.33M177.79 519.52L184.28 519.52M181.04 519.52L181.04 547.33M177.79 547.33L184.28 547.33M190.77 547.33L200.5 547.33M200.5 547.33L203.75 542.69M203.75 542.69L203.75 524.16M203.75 524.16L200.5 519.52M200.5 519.52L190.77 519.52M194.01 519.52L194.01 547.33M210.23 519.52L216.72 547.33M216.72 547.33L219.96 533.42M219.96 533.42L223.21 547.33M223.21 547.33L229.7 519.52M236.18 547.33L236.18 519.52M236.18 519.52L249.16 519.52M249.16 519.52L249.16 547.33M249.16 547.33L236.18 547.33M255.65 547.33L255.65 519.52M255.65 519.52L265.38 519.52M265.38 519.52L268.62 524.16M268.62 524.16L268.62 528.79M268.62 528.79L265.38 533.42M265.38 533.42L255.65 533.42M258.89 533.42L268.62 547.33M275.11 547.33L275.11 519.52M288.09 519.52L278.35 533.42M278.35 533.42L275.11 533.42M278.35 533.42L288.09 547.33M294.57 542.69L297.82 547.33M297.82 547.33L304.31 547.33M304.31 547.33L307.55 542.69M307.55 542.69L294.57 524.16M294.57 524.16L297.82 519.52M297.82 519.52L304.31 519.52M304.31 519.52L307.55 524.16M333.5 547.33L333.5 519.52M333.5 519.52L346.48 519.52M333.5 533.42L339.99 533.42M333.5 547.33L346.48 547.33M365.94 538.06L359.45 547.33M359.45 547.33L356.21 547.33M356.21 547.33L352.96 542.69M352.96 542.69L352.96 533.42M352.96 533.42L356.21 528.79M356.21 528.79L359.45 528.79M359.45 528.79L365.94 538.06M365.94 519.52L365.94 547.33M372.43 528.79L372.43 542.69M372.43 542.69L375.67 547.33M375.67 547.33L378.91 547.33M378.91 547.33L385.4 538.06M385.4 528.79L385.4 547.33M404.87 528.79L395.13 528.79M395.13 528.79L391.89 533.42M391.89 533.42L391.89 542.69M391.89 542.69L395.13 547.33M395.13 547.33L404.87 547.33M417.84 547.33L414.6 547.33M414.6 547.33L411.35 542.69M411.35 542.69L411.35 533.42M411.35 533.42L414.6 528.79M414.6 528.79L417.84 528.79M417.84 528.79L421.09 533.42M421.09 533.42L421.09 542.69M421.09 542.69L417.84 547.33M421.09 542.69L424.33 547.33M430.82 528.79L443.79 528.79M437.3 519.52L437.3 542.69M437.3 542.69L440.55 547.33M440.55 547.33L443.79 542.69M450.28 547.33L450.28 528.79M450.28 524.16L450.28 519.52M466.5 547.33L460.01 547.33M460.01 547.33L456.77 542.69M456.77 542.69L456.77 533.42M456.77 533.42L460.01 528.79M460.01 528.79L466.5 528.79M466.5 528.79L469.74 533.42M469.74 533.42L469.74 542.69M469.74 542.69L466.5 547.33M476.23 547.33L476.23 528.79M476.23 538.06L482.72 528.79M482.72 528.79L485.96 528.79M485.96 528.79L489.21 533.42M489.21 533.42L489.21 547.33M502.18 547.33L498.94 547.33M498.94 547.33L495.69 542.69M495.69 542.69L495.69 533.42M495.69 533.42L498.94 528.79M498.94 528.79L502.18 528.79M502.18 528.79L505.43 533.42M505.43 533.42L505.43 542.69M505.43 542.69L502.18 547.33M505.43 542.69L508.67 547.33M515.16 519.52L515.16 542.69M515.16 542.69L518.4 547.33M544.35 547.33L544.35 519.52M544.35 519.52L554.08 519.52M554.08 519.52L557.33 524.16M557.33 524.16L557.33 528.79M557.33 528.79L554.08 533.42M554.08 533.42L544.35 533.42M563.82 547.33L563.82 528.79M563.82 538.06L570.3 528.79M570.3 528.79L573.55 528.79M573.55 528.79L576.79 533.42M593.01 547.33L586.52 547.33M586.52 547.33L583.28 542.69M583.28 542.69L583.28 533.42M583.28 533.42L586.52 528.79M586.52 528.79L593.01 528.79M593.01 528.79L596.25 533.42M596.25 533.42L596.25 542.69M596.25 542.69L593.01 547.33M615.72 538.06L609.23 547.33M609.23 547.33L605.99 547.33M605.99 547.33L602.74 542.69M602.74 542.69L602.74 533.42M602.74 533.42L605.99 528.79M605.99 528.79L609.23 528.79M609.23 528.79L615.72 538.06M615.72 519.52L615.72 547.33M622.21 528.79L622.21 542.69M622.21 542.69L625.45 547.33M625.45 547.33L628.69 547.33M628.69 547.33L635.18 538.06M635.18 528.79L635.18 547.33M654.64 528.79L644.91 528.79M644.91 528.79L641.67 533.42M641.67 533.42L641.67 542.69M641.67 542.69L644.91 547.33M644.91 547.33L654.64 547.33M661.13 528.79L674.11 528.79M667.62 519.52L667.62 542.69M667.62 542.69L670.86 547.33M670.86 547.33L674.11 542.69M680.6 547.33L680.6 542.69"
fill="none" stroke="black" stroke-width="0.5"/>
<path d="M119.4 589.03L119.4 561.23M119.4 561.23L132.38 561.23M119.4 575.13L125.89 575.13M148.6 589.03L142.11 589.03M142.11 589.03L138.87 584.4M138.87 584.4L138.87 575.13M138.87 575.13L142.11 570.5M142.11 570.5L148.6 570.5M148.6 570.5L151.84 575.13M151.84 575.13L151.84 584.4M151.84 584.4L148.6 589.03M158.33 589.03L158.33 570.5M158.33 579.77L164.82 570.5M164.82 570.5L168.06 570.5M168.06 570.5L171.31 575.13M197.26 561.23L203.75 561.23M200.5 561.23L200.5 589.03M197.26 589.03L203.75 589.03M210.23 589.03L210.23 570.5M210.23 579.77L216.72 570.5M216.72 570.5L219.96 570.5M219.96 570.5L223.21 575.13M223.21 575.13L223.21 589.03M229.7 589.03L239.43 589.03M239.43 589.03L242.67 584.4M242.67 584.4L239.43 579.77M239.43 579.77L232.94 579.77M232.94 579.77L229.7 575.13M229.7 575.13L232.94 570.5M232.94 570.5L242.67 570.5M249.16 570.5L262.14 570.5M255.65 561.23L255.65 584.4M255.65 584.4L258.89 589.03M258.89 589.03L262.14 584.4M268.62 589.03L268.62 570.5M268.62 579.77L275.11 570.5M275.11 570.5L278.35 570.5M278.35 570.5L281.6 575.13M288.09 570.5L288.09 584.4M288.09 584.4L291.33 589.03M291.33 589.03L294.57 589.03M294.57 589.03L301.06 579.77M301.06 570.5L301.06 589.03M320.52 570.5L310.79 570.5M310.79 570.5L307.55 575.13M307.55 575.13L307.55 584.4M307.55 584.4L310.79 589.03M310.79 589.03L320.52 589.03M327.01 570.5L339.99 570.5M333.5 561.23L333.5 584.4M333.5 584.4L336.74 589.03M336.74 589.03L339.99 584.4M346.48 589.03L346.48 570.5M346.48 565.86L346.48 561.23M362.7 589.03L356.21 589.03M356.21 589.03L352.96 584.4M352.96 584.4L352.96 575.13M352.96 575.13L356.21 570.5M356.21 570.5L362.7 570.5M362.7 570.5L365.94 575.13M365.94 575.13L365.94 584.4M365.94 584.4L362.7 589.03M372.43 589.03L372.43 570.5M372.43 579.77L378.91 570.5M378.91 570.5L382.16 570.5M382.16 570.5L385.4 575.13M385.4 575.13L385.4 589.03M398.38 589.03L395.13 589.03M395.13 589.03L391.89 584.4M391.89 584.4L391.89 575.13M391.89 575.13L395.13 570.5M395.13 570.5L398.38 570.5M398.38 570.5L401.62 575.13M401.62 575.13L401.62 584.4M401.62 584.4L398.38 589.03M401.62 584.4L404.87 589.03M411.35 561.23L411.35 584.4M411.35 584.4L414.6 589.03M440.55 561.23L440.55 584.4M440.55 584.4L443.79 589.03M443.79 589.03L450.28 589.03M450.28 589.03L453.52 584.4M453.52 584.4L453.52 561.23M460.01 589.03L469.74 589.03M469.74 589.03L472.99 584.4M472.99 584.4L469.74 579.77M469.74 579.77L463.26 579.77M463.26 579.77L460.01 575.13M460.01 575.13L463.26 570.5M463.26 570.5L472.99 570.5M479.48 579.77L489.21 579.77M489.21 579.77L492.45 575.13M492.45 575.13L489.21 570.5M489.21 570.5L482.72 570.5M482.72 570.5L479.48 575.13M479.48 575.13L479.48 584.4M479.48 584.4L482.72 589.03M482.72 589.03L489.21 589.03M518.4 589.03L518.4 561.23M518.4 561.23L531.38 561.23M531.38 561.23L531.38 589.03M531.38 589.03L518.4 589.03M537.86 589.03L537.86 570.5M537.86 579.77L544.35 570.5M544.35 570.5L547.6 570.5M547.6 570.5L550.84 575.13M550.84 575.13L550.84 589.03M557.33 561.23L557.33 584.4M557.33 584.4L560.57 589.03M567.06 570.5L573.55 589.03M580.04 570.5L570.3 598.3M570.3 598.3L567.06 598.3M586.52 589.03L586.52 584.4"
fill="none" stroke="black" stroke-width="0.5"/>
</svg>
