<?xml version="1.0" encoding="UTF-8"?>
<svg xmlns="http://www.w3.org/2000/svg" width="800.000" height="600.000" viewBox="0.0 0.0 800.000 600.000" version="1.1">
  <title>Produce by Acme CAD Converter</title>
  <desc>Produce by Acme CAD Converter</desc>
<path d="M691.26 191.09L691.46 188.9M691.46 188.9L692.04 186.79M692.04 186.79L692.99 184.81M692.99 184.81L694.28 183.04M694.28 183.04L695.86 181.52M695.86 181.52L697.69 180.32M697.69 180.32L699.71 179.45M699.71 179.45L701.85 178.97M701.85 178.97L704.04 178.87M704.04 178.87L706.21 179.16M706.21 179.16L708.3 179.84M708.3 179.84L710.23 180.88M710.23 180.88L711.94 182.25M711.94 182.25L713.38 183.9M713.38 183.9L714.51 185.78M714.51 185.78L715.28 187.83M715.28 187.83L715.67 189.99M715.67 189.99L715.67 192.18M715.67 192.18L715.28 194.34M715.28 194.34L714.51 196.39M714.51 196.39L713.38 198.28M713.38 198.28L711.94 199.93M711.94 199.93L710.23 201.29M710.23 201.29L708.3 202.33M708.3 202.33L706.21 203.01M706.21 203.01L704.04 203.3M704.04 203.3L701.85 203.21M701.85 203.21L699.71 202.72M699.71 202.72L697.69 201.86M697.69 201.86L695.86 200.65M695.86 200.65L694.28 199.13M694.28 199.13L692.99 197.36M692.99 197.36L692.04 195.38M692.04 195.38L691.46 193.27M691.46 193.27L691.26 191.09"
fill="none" stroke="black" stroke-width="0.5"/>
<path d="M14.49 191.09L14.69 188.9M14.69 188.9L15.27 186.79M15.27 186.79L16.23 184.81M16.23 184.81L17.51 183.04M17.51 183.04L19.1 181.52M19.1 181.52L20.93 180.32M20.93 180.32L22.95 179.45M22.95 179.45L25.08 178.97M25.08 178.97L27.27 178.87M27.27 178.87L29.45 179.16M29.45 179.16L31.53 179.84M31.53 179.84L33.46 180.88M33.46 180.88L35.18 182.25M35.18 182.25L36.62 183.9M36.62 183.9L37.74 185.78M37.74 185.78L38.51 187.83M38.51 187.83L38.91 189.99M38.91 189.99L38.91 192.18M38.91 192.18L38.51 194.34M38.51 194.34L37.74 196.39M37.74 196.39L36.62 198.28M36.62 198.28L35.18 199.93M35.18 199.93L33.46 201.29M33.46 201.29L31.53 202.33M31.53 202.33L29.45 203.01M29.45 203.01L27.27 203.3M27.27 203.3L25.08 203.21M25.08 203.21L22.95 202.72M22.95 202.72L20.93 201.86M20.93 201.86L19.1 200.65M19.1 200.65L17.51 199.13M17.51 199.13L16.23 197.36M16.23 197.36L15.27 195.38M15.27 195.38L14.69 193.27M14.69 193.27L14.49 191.09"
fill="none" stroke="black" stroke-width="0.5"/>
<path d="M2.26 191.09L2.26 288.93"
fill="none" stroke="black" stroke-width="0.5"/>
<path d="M703.49 166.62L26.73 166.62"
fill="none" stroke="black" stroke-width="0.5"/>
<path d="M727.95 288.93L727.95 191.09"
fill="none" stroke="black" stroke-width="0.5"/>
<path d="M26.73 313.39L703.49 313.39"
fill="none" stroke="black" stroke-width="0.5"/>
<path d="M26.73 166.62L23.78 166.8M23.78 166.8L20.87 167.34M20.87 167.34L18.05 168.21M18.05 168.21L15.36 169.43M15.36 169.43L12.83 170.96M12.83 170.96L10.5 172.78M10.5 172.78L8.42 174.87M8.42 174.87L6.59 177.19M6.59 177.19L5.07 179.72M5.07 179.72L3.85 182.41M3.85 182.41L2.97 185.23M2.97 185.23L2.44 188.14M2.44 188.14L2.26 191.09"
fill="none" stroke="black" stroke-width="0.5"/>
<path d="M727.95 191.09L727.77 188.14M727.77 188.14L727.24 185.23M727.24 185.23L726.36 182.41M726.36 182.41L725.15 179.72M725.15 179.72L723.62 177.19M723.62 177.19L721.8 174.87M721.8 174.87L719.71 172.78M719.71 172.78L717.39 170.96M717.39 170.96L714.86 169.43M714.86 169.43L712.16 168.21M712.16 168.21L709.34 167.34M709.34 167.34L706.44 166.8M706.44 166.8L703.49 166.62"
fill="none" stroke="black" stroke-width="0.5"/>
<path d="M703.49 313.39L706.44 313.21M706.44 313.21L709.34 312.68M709.34 312.68L712.16 311.8M712.16 311.8L714.86 310.59M714.86 310.59L717.39 309.06M717.39 309.06L719.71 307.24M719.71 307.24L721.8 305.15M721.8 305.15L723.62 302.83M723.62 302.83L725.15 300.3M725.15 300.3L726.36 297.61M726.36 297.61L727.24 294.79M727.24 294.79L727.77 291.88M727.77 291.88L727.95 288.93"
fill="none" stroke="black" stroke-width="0.5"/>
<path d="M2.26 288.93L2.44 291.88M2.44 291.88L2.97 294.79M2.97 294.79L3.85 297.61M3.85 297.61L5.07 300.3M5.07 300.3L6.59 302.83M6.59 302.83L8.42 305.15M8.42 305.15L10.5 307.24M10.5 307.24L12.83 309.06M12.83 309.06L15.36 310.59M15.36 310.59L18.05 311.8M18.05 311.8L20.87 312.68M20.87 312.68L23.78 313.21M23.78 313.21L26.73 313.39"
fill="none" stroke="black" stroke-width="0.5"/>
<path d="M2.26 354.55L6.86 361.12M6.86 361.12L16.06 361.12M16.06 361.12L20.66 354.55M20.66 354.55L2.26 328.28M2.26 328.28L6.86 321.71M6.86 321.71L16.06 321.71M16.06 321.71L20.66 328.28M29.85 361.12L29.85 321.71M29.85 321.71L48.24 321.71M48.24 321.71L48.24 361.12M48.24 361.12L29.85 361.12M57.44 321.71L57.44 361.12M57.44 361.12L75.83 361.12M85.03 321.71L94.23 321.71M89.63 321.71L89.63 361.12M85.03 361.12L94.23 361.12M103.42 361.12L117.22 361.12M117.22 361.12L121.81 354.55M121.81 354.55L121.81 328.28M121.81 328.28L117.22 321.71M117.22 321.71L103.42 321.71M108.02 321.71L108.02 361.12M131.01 321.71L140.21 361.12M140.21 361.12L144.81 341.41M144.81 341.41L149.4 361.12M149.4 361.12L158.6 321.71M167.8 361.12L167.8 321.71M167.8 321.71L186.19 321.71M186.19 321.71L186.19 361.12M186.19 361.12L167.8 361.12M195.38 361.12L195.38 321.71M195.38 321.71L209.18 321.71M209.18 321.71L213.78 328.28M213.78 328.28L213.78 334.84M213.78 334.84L209.18 341.41M209.18 341.41L195.38 341.41M199.98 341.41L213.78 361.12M222.97 361.12L222.97 321.71M241.37 321.71L227.57 341.41M227.57 341.41L222.97 341.41M227.57 341.41L241.37 361.12M250.56 354.55L255.16 361.12M255.16 361.12L264.36 361.12M264.36 361.12L268.95 354.55M268.95 354.55L250.56 328.28M250.56 328.28L255.16 321.71M255.16 321.71L264.36 321.71M264.36 321.71L268.95 328.28M305.74 361.12L305.74 321.71M305.74 321.71L324.13 321.71M305.74 341.41L314.94 341.41M305.74 361.12L324.13 361.12M351.72 347.98L342.52 361.12M342.52 361.12L337.93 361.12M337.93 361.12L333.33 354.55M333.33 354.55L333.33 341.41M333.33 341.41L337.93 334.84M337.93 334.84L342.52 334.84M342.52 334.84L351.72 347.98M351.72 321.71L351.72 361.12M360.92 334.84L360.92 354.55M360.92 354.55L365.51 361.12M365.51 361.12L370.11 361.12M370.11 361.12L379.31 347.98M379.31 334.84L379.31 361.12M406.9 334.84L393.1 334.84M393.1 334.84L388.5 341.41M388.5 341.41L388.5 354.55M388.5 354.55L393.1 361.12M393.1 361.12L406.9 361.12M425.29 361.12L420.69 361.12M420.69 361.12L416.09 354.55M416.09 354.55L416.09 341.41M416.09 341.41L420.69 334.84M420.69 334.84L425.29 334.84M425.29 334.84L429.89 341.41M429.89 341.41L429.89 354.55M429.89 354.55L425.29 361.12M429.89 354.55L434.49 361.12M443.68 334.84L462.07 334.84M452.88 321.71L452.88 354.55M452.88 354.55L457.48 361.12M457.48 361.12L462.07 354.55M471.27 361.12L471.27 334.84M471.27 328.28L471.27 321.71M494.26 361.12L485.06 361.12M485.06 361.12L480.47 354.55M480.47 354.55L480.47 341.41M480.47 341.41L485.06 334.84M485.06 334.84L494.26 334.84M494.26 334.84L498.86 341.41M498.86 341.41L498.86 354.55M498.86 354.55L494.26 361.12M508.06 361.12L508.06 334.84M508.06 347.98L517.25 334.84M517.25 334.84L521.85 334.84M521.85 334.84L526.45 341.41M526.45 341.41L526.45 361.12M544.84 361.12L540.24 361.12M540.24 361.12L535.64 354.55M535.64 354.55L535.64 341.41M535.64 341.41L540.24 334.84M540.24 334.84L544.84 334.84M544.84 334.84L549.44 341.41M549.44 341.41L549.44 354.55M549.44 354.55L544.84 361.12M549.44 354.55L554.04 361.12M563.23 321.71L563.23 354.55M563.23 354.55L567.83 361.12M604.62 361.12L604.62 321.71M604.62 321.71L618.41 321.71M618.41 321.71L623.01 328.28M623.01 328.28L623.01 334.84M623.01 334.84L618.41 341.41M618.41 341.41L604.62 341.41M632.2 361.12L632.2 334.84M632.2 347.98L641.4 334.84M641.4 334.84L646 334.84M646 334.84L650.6 341.41M673.59 361.12L664.39 361.12M664.39 361.12L659.79 354.55M659.79 354.55L659.79 341.41M659.79 341.41L664.39 334.84M664.39 334.84L673.59 334.84M673.59 334.84L678.19 341.41M678.19 341.41L678.19 354.55M678.19 354.55L673.59 361.12M705.77 347.98L696.58 361.12M696.58 361.12L691.98 361.12M691.98 361.12L687.38 354.55M687.38 354.55L687.38 341.41M687.38 341.41L691.98 334.84M691.98 334.84L696.58 334.84M696.58 334.84L705.77 347.98M705.77 321.71L705.77 361.12M714.97 334.84L714.97 354.55M714.97 354.55L719.57 361.12M719.57 361.12L724.17 361.12M724.17 361.12L733.36 347.98M733.36 334.84L733.36 361.12M760.95 334.84L747.16 334.84M747.16 334.84L742.56 341.41M742.56 341.41L742.56 354.55M742.56 354.55L747.16 361.12M747.16 361.12L760.95 361.12M770.15 334.84L788.54 334.84M779.34 321.71L779.34 354.55M779.34 354.55L783.94 361.12M783.94 361.12L788.54 354.55M797.74 361.12L797.74 354.55"
fill="none" stroke="black" stroke-width="0.5"/>
<path d="M2.26 420.24L2.26 380.83M2.26 380.83L20.66 380.83M2.26 400.53L11.46 400.53M43.65 420.24L34.45 420.24M34.45 420.24L29.85 413.67M29.85 413.67L29.85 400.53M29.85 400.53L34.45 393.96M34.45 393.96L43.65 393.96M43.65 393.96L48.24 400.53M48.24 400.53L48.24 413.67M48.24 413.67L43.65 420.24M57.44 420.24L57.44 393.96M57.44 407.1L66.64 393.96M66.64 393.96L71.24 393.96M71.24 393.96L75.83 400.53M112.62 380.83L121.81 380.83M117.22 380.83L117.22 420.24M112.62 420.24L121.81 420.24M131.01 420.24L131.01 393.96M131.01 407.1L140.21 393.96M140.21 393.96L144.81 393.96M144.81 393.96L149.4 400.53M149.4 400.53L149.4 420.24M158.6 420.24L172.39 420.24M172.39 420.24L176.99 413.67M176.99 413.67L172.39 407.1M172.39 407.1L163.2 407.1M163.2 407.1L158.6 400.53M158.6 400.53L163.2 393.96M163.2 393.96L176.99 393.96M186.19 393.96L204.58 393.96M195.38 380.83L195.38 413.67M195.38 413.67L199.98 420.24M199.98 420.24L204.58 413.67M213.78 420.24L213.78 393.96M213.78 407.1L222.97 393.96M222.97 393.96L227.57 393.96M227.57 393.96L232.17 400.53M241.37 393.96L241.37 413.67M241.37 413.67L245.96 420.24M245.96 420.24L250.56 420.24M250.56 420.24L259.76 407.1M259.76 393.96L259.76 420.24M287.35 393.96L273.55 393.96M273.55 393.96L268.95 400.53M268.95 400.53L268.95 413.67M268.95 413.67L273.55 420.24M273.55 420.24L287.35 420.24M296.54 393.96L314.94 393.96M305.74 380.83L305.74 413.67M305.74 413.67L310.34 420.24M310.34 420.24L314.94 413.67M324.13 420.24L324.13 393.96M324.13 387.39L324.13 380.83M347.12 420.24L337.93 420.24M337.93 420.24L333.33 413.67M333.33 413.67L333.33 400.53M333.33 400.53L337.93 393.96M337.93 393.96L347.12 393.96M347.12 393.96L351.72 400.53M351.72 400.53L351.72 413.67M351.72 413.67L347.12 420.24M360.92 420.24L360.92 393.96M360.92 407.1L370.11 393.96M370.11 393.96L374.71 393.96M374.71 393.96L379.31 400.53M379.31 400.53L379.31 420.24M397.7 420.24L393.1 420.24M393.1 420.24L388.5 413.67M388.5 413.67L388.5 400.53M388.5 400.53L393.1 393.96M393.1 393.96L397.7 393.96M397.7 393.96L402.3 400.53M402.3 400.53L402.3 413.67M402.3 413.67L397.7 420.24M402.3 413.67L406.9 420.24M416.09 380.83L416.09 413.67M416.09 413.67L420.69 420.24M457.48 380.83L457.48 413.67M457.48 413.67L462.07 420.24M462.07 420.24L471.27 420.24M471.27 420.24L475.87 413.67M475.87 413.67L475.87 380.83M485.06 420.24L498.86 420.24M498.86 420.24L503.46 413.67M503.46 413.67L498.86 407.1M498.86 407.1L489.66 407.1M489.66 407.1L485.06 400.53M485.06 400.53L489.66 393.96M489.66 393.96L503.46 393.96M512.65 407.1L526.45 407.1M526.45 407.1L531.05 400.53M531.05 400.53L526.45 393.96M526.45 393.96L517.25 393.96M517.25 393.96L512.65 400.53M512.65 400.53L512.65 413.67M512.65 413.67L517.25 420.24M517.25 420.24L526.45 420.24M567.83 420.24L567.83 380.83M567.83 380.83L586.22 380.83M586.22 380.83L586.22 420.24M586.22 420.24L567.83 420.24M595.42 420.24L595.42 393.96M595.42 407.1L604.62 393.96M604.62 393.96L609.21 393.96M609.21 393.96L613.81 400.53M613.81 400.53L613.81 420.24M623.01 380.83L623.01 413.67M623.01 413.67L627.61 420.24M636.8 393.96L646 420.24M655.19 393.96L641.4 433.38M641.4 433.38L636.8 433.38M664.39 420.24L664.39 413.67"
fill="none" stroke="black" stroke-width="0.5"/>
</svg>
