M48
;GenerationSoftware,Autodesk,EAGLE,9.6.2*%
;CreationDate,2021-09-20T18:58:50Z*%
FMAT,2
ICI,OFF
METRIC,TZ,000.000
T8C0.350
T7C0.920
T6C1.000
T5C1.016
T4C1.100
T3C1.700
T2C3.000
T1C4.000
%
G90
M71
T1
X35000Y15000
X35000Y53000
X54000Y53000
X16000Y15000
X16000Y53000
X73000Y34000
X54000Y15000
X73000Y15000
X73000Y53000
X16000Y34000
X35000Y34000
X54000Y34000
T2
X18540Y20080
X37540Y58080
X31190Y55540
X31700Y75000
X20300Y75000
X18540Y58080
X12190Y55540
X12190Y17540
X86000Y3000
X31190Y17540
X68700Y75000
X3000Y86000
X75540Y20080
X69190Y17540
X56540Y20080
X37540Y20080
X69190Y36540
X56540Y58080
X75540Y39080
X69190Y55540
X75540Y58080
X50190Y17540
X3000Y3000
X12190Y36540
X18540Y39080
X57300Y75000
X86000Y86000
X37540Y39080
X50190Y55540
X50190Y36540
X56540Y39080
X31190Y36540
T3
X48920Y53000
X59080Y53000
X78080Y34000
X10920Y15000
X67920Y53000
X78080Y53000
X21080Y34000
X21080Y15000
X78080Y15000
X10920Y34000
X67920Y15000
X59080Y15000
X48920Y15000
X40080Y15000
X29920Y34000
X29920Y15000
X40080Y34000
X10920Y53000
X48920Y34000
X59080Y34000
X21080Y53000
X29920Y53000
X40080Y53000
X67920Y34000
T4
X60500Y67500
X65500Y82000
X63000Y67500
X23500Y67500
X26000Y67500
X65500Y67500
X28500Y67500
X28500Y82000
X23500Y82000
X60500Y82000
T5
X3510Y54750
X3510Y57290
X3510Y49670
X3510Y52210
T6
X72790Y82390
X79290Y77890
X72790Y77890
X79290Y82390
T7
X5975Y63830
X8550Y63830
X11090Y63830
X13630Y63830
X16170Y63830
X18710Y63830
X51730Y63830
X21250Y63830
X23790Y63830
X26330Y63830
X28870Y63830
X31410Y63830
X33950Y63830
X36490Y63830
X39030Y63830
X41570Y63830
X3435Y79070
X8550Y79070
X11090Y79070
X13630Y79070
X16170Y79070
X18710Y79070
X21250Y79070
X23790Y79070
X26330Y79070
X28870Y79070
X31410Y79070
X33950Y79070
X36490Y79070
X44110Y63830
X41570Y79070
X44110Y79070
X46650Y79070
X49190Y79070
X39030Y79070
X5975Y79070
X46650Y63830
X49190Y63830
X3435Y63830
X51730Y79070
T8
X61000Y17000
X22000Y47000
X21500Y28000
X31500Y10000
X28000Y48000
X44750Y9000
X46000Y6750
X25750Y8000
X39750Y45000
X17500Y67000
X8500Y70000
X11000Y25500
X5750Y34500
X82000Y40000
X78250Y27750
X81750Y59750
X78500Y46750
X68750Y68250
X54750Y66250
X58500Y11000
X55000Y64500
X42000Y17000
X40000Y12000
X23000Y17000
X21000Y12000
X19750Y43250
X67500Y47000
X67500Y28000
X68250Y8750
X48500Y48000
X58750Y71750
X49250Y8750
X28500Y29000
X61000Y78250
X23750Y31750
X10750Y44750
X21000Y8500
X82000Y21500
X64000Y9750
X63750Y6750
X48000Y28000
M30