G04 EAGLE Gerber RS-274X export*
G75*
%MOMM*%
%FSLAX34Y34*%
%LPD*%
%IN*%
%IPPOS*%
%AMOC8*
5,1,8,0,0,1.08239X$1,22.5*%
G01*
%ADD10C,0.254000*%


D10*
X0Y30000D02*
X114Y27385D01*
X456Y24791D01*
X1022Y22235D01*
X1809Y19739D01*
X2811Y17321D01*
X4019Y15000D01*
X5425Y12793D01*
X7019Y10716D01*
X8787Y8787D01*
X10716Y7019D01*
X12793Y5425D01*
X15000Y4019D01*
X17321Y2811D01*
X19739Y1809D01*
X22235Y1022D01*
X24791Y456D01*
X27385Y114D01*
X30000Y0D01*
X860000Y0D01*
X862615Y114D01*
X865209Y456D01*
X867765Y1022D01*
X870261Y1809D01*
X872679Y2811D01*
X875000Y4019D01*
X877207Y5425D01*
X879284Y7019D01*
X881213Y8787D01*
X882981Y10716D01*
X884575Y12793D01*
X885981Y15000D01*
X887189Y17321D01*
X888191Y19739D01*
X888978Y22235D01*
X889544Y24791D01*
X889886Y27385D01*
X890000Y30000D01*
X890000Y860000D01*
X889886Y862615D01*
X889544Y865209D01*
X888978Y867765D01*
X888191Y870261D01*
X887189Y872679D01*
X885981Y875000D01*
X884575Y877207D01*
X882981Y879284D01*
X881213Y881213D01*
X879284Y882981D01*
X877207Y884575D01*
X875000Y885981D01*
X872679Y887189D01*
X870261Y888191D01*
X867765Y888978D01*
X865209Y889544D01*
X862615Y889886D01*
X860000Y890000D01*
X40000Y890000D01*
X36931Y890303D01*
X33846Y890337D01*
X30771Y890102D01*
X27728Y889599D01*
X24740Y888834D01*
X21830Y887811D01*
X19021Y886538D01*
X16333Y885026D01*
X13787Y883284D01*
X11402Y881328D01*
X9198Y879171D01*
X7189Y876830D01*
X5392Y874323D01*
X3821Y871669D01*
X2487Y868888D01*
X1400Y866002D01*
X569Y863031D01*
X0Y860000D01*
X0Y30000D01*
X677000Y736000D02*
X697000Y736000D01*
X697000Y764000D01*
X677000Y764000D01*
X677000Y736000D01*
X563000Y736000D02*
X583000Y736000D01*
X583000Y764000D01*
X563000Y764000D01*
X563000Y736000D01*
X193000Y736000D02*
X213000Y736000D01*
X213000Y764000D01*
X193000Y764000D01*
X193000Y736000D01*
X307000Y736000D02*
X327000Y736000D01*
X327000Y764000D01*
X307000Y764000D01*
X307000Y736000D01*
X45000Y859464D02*
X44924Y858396D01*
X44771Y857335D01*
X44543Y856288D01*
X44241Y855260D01*
X43867Y854256D01*
X43422Y853281D01*
X42908Y852341D01*
X42329Y851440D01*
X41687Y850582D01*
X40985Y849772D01*
X40228Y849015D01*
X39418Y848313D01*
X38560Y847671D01*
X37659Y847092D01*
X36719Y846578D01*
X35744Y846133D01*
X34740Y845759D01*
X33712Y845457D01*
X32665Y845229D01*
X31604Y845076D01*
X30536Y845000D01*
X29464Y845000D01*
X28396Y845076D01*
X27335Y845229D01*
X26288Y845457D01*
X25260Y845759D01*
X24256Y846133D01*
X23281Y846578D01*
X22341Y847092D01*
X21440Y847671D01*
X20582Y848313D01*
X19772Y849015D01*
X19015Y849772D01*
X18313Y850582D01*
X17671Y851440D01*
X17092Y852341D01*
X16578Y853281D01*
X16133Y854256D01*
X15759Y855260D01*
X15457Y856288D01*
X15229Y857335D01*
X15076Y858396D01*
X15000Y859464D01*
X15000Y860536D01*
X15076Y861604D01*
X15229Y862665D01*
X15457Y863712D01*
X15759Y864740D01*
X16133Y865744D01*
X16578Y866719D01*
X17092Y867659D01*
X17671Y868560D01*
X18313Y869418D01*
X19015Y870228D01*
X19772Y870985D01*
X20582Y871687D01*
X21440Y872329D01*
X22341Y872908D01*
X23281Y873422D01*
X24256Y873867D01*
X25260Y874241D01*
X26288Y874543D01*
X27335Y874771D01*
X28396Y874924D01*
X29464Y875000D01*
X30536Y875000D01*
X31604Y874924D01*
X32665Y874771D01*
X33712Y874543D01*
X34740Y874241D01*
X35744Y873867D01*
X36719Y873422D01*
X37659Y872908D01*
X38560Y872329D01*
X39418Y871687D01*
X40228Y870985D01*
X40985Y870228D01*
X41687Y869418D01*
X42329Y868560D01*
X42908Y867659D01*
X43422Y866719D01*
X43867Y865744D01*
X44241Y864740D01*
X44543Y863712D01*
X44771Y862665D01*
X44924Y861604D01*
X45000Y860536D01*
X45000Y859464D01*
X875000Y859464D02*
X874924Y858396D01*
X874771Y857335D01*
X874543Y856288D01*
X874241Y855260D01*
X873867Y854256D01*
X873422Y853281D01*
X872908Y852341D01*
X872329Y851440D01*
X871687Y850582D01*
X870985Y849772D01*
X870228Y849015D01*
X869418Y848313D01*
X868560Y847671D01*
X867659Y847092D01*
X866719Y846578D01*
X865744Y846133D01*
X864740Y845759D01*
X863712Y845457D01*
X862665Y845229D01*
X861604Y845076D01*
X860536Y845000D01*
X859464Y845000D01*
X858396Y845076D01*
X857335Y845229D01*
X856288Y845457D01*
X855260Y845759D01*
X854256Y846133D01*
X853281Y846578D01*
X852341Y847092D01*
X851440Y847671D01*
X850582Y848313D01*
X849772Y849015D01*
X849015Y849772D01*
X848313Y850582D01*
X847671Y851440D01*
X847092Y852341D01*
X846578Y853281D01*
X846133Y854256D01*
X845759Y855260D01*
X845457Y856288D01*
X845229Y857335D01*
X845076Y858396D01*
X845000Y859464D01*
X845000Y860536D01*
X845076Y861604D01*
X845229Y862665D01*
X845457Y863712D01*
X845759Y864740D01*
X846133Y865744D01*
X846578Y866719D01*
X847092Y867659D01*
X847671Y868560D01*
X848313Y869418D01*
X849015Y870228D01*
X849772Y870985D01*
X850582Y871687D01*
X851440Y872329D01*
X852341Y872908D01*
X853281Y873422D01*
X854256Y873867D01*
X855260Y874241D01*
X856288Y874543D01*
X857335Y874771D01*
X858396Y874924D01*
X859464Y875000D01*
X860536Y875000D01*
X861604Y874924D01*
X862665Y874771D01*
X863712Y874543D01*
X864740Y874241D01*
X865744Y873867D01*
X866719Y873422D01*
X867659Y872908D01*
X868560Y872329D01*
X869418Y871687D01*
X870228Y870985D01*
X870985Y870228D01*
X871687Y869418D01*
X872329Y868560D01*
X872908Y867659D01*
X873422Y866719D01*
X873867Y865744D01*
X874241Y864740D01*
X874543Y863712D01*
X874771Y862665D01*
X874924Y861604D01*
X875000Y860536D01*
X875000Y859464D01*
X45000Y29464D02*
X44924Y28396D01*
X44771Y27335D01*
X44543Y26288D01*
X44241Y25260D01*
X43867Y24256D01*
X43422Y23281D01*
X42908Y22341D01*
X42329Y21440D01*
X41687Y20582D01*
X40985Y19772D01*
X40228Y19015D01*
X39418Y18313D01*
X38560Y17671D01*
X37659Y17092D01*
X36719Y16578D01*
X35744Y16133D01*
X34740Y15759D01*
X33712Y15457D01*
X32665Y15229D01*
X31604Y15076D01*
X30536Y15000D01*
X29464Y15000D01*
X28396Y15076D01*
X27335Y15229D01*
X26288Y15457D01*
X25260Y15759D01*
X24256Y16133D01*
X23281Y16578D01*
X22341Y17092D01*
X21440Y17671D01*
X20582Y18313D01*
X19772Y19015D01*
X19015Y19772D01*
X18313Y20582D01*
X17671Y21440D01*
X17092Y22341D01*
X16578Y23281D01*
X16133Y24256D01*
X15759Y25260D01*
X15457Y26288D01*
X15229Y27335D01*
X15076Y28396D01*
X15000Y29464D01*
X15000Y30536D01*
X15076Y31604D01*
X15229Y32665D01*
X15457Y33712D01*
X15759Y34740D01*
X16133Y35744D01*
X16578Y36719D01*
X17092Y37659D01*
X17671Y38560D01*
X18313Y39418D01*
X19015Y40228D01*
X19772Y40985D01*
X20582Y41687D01*
X21440Y42329D01*
X22341Y42908D01*
X23281Y43422D01*
X24256Y43867D01*
X25260Y44241D01*
X26288Y44543D01*
X27335Y44771D01*
X28396Y44924D01*
X29464Y45000D01*
X30536Y45000D01*
X31604Y44924D01*
X32665Y44771D01*
X33712Y44543D01*
X34740Y44241D01*
X35744Y43867D01*
X36719Y43422D01*
X37659Y42908D01*
X38560Y42329D01*
X39418Y41687D01*
X40228Y40985D01*
X40985Y40228D01*
X41687Y39418D01*
X42329Y38560D01*
X42908Y37659D01*
X43422Y36719D01*
X43867Y35744D01*
X44241Y34740D01*
X44543Y33712D01*
X44771Y32665D01*
X44924Y31604D01*
X45000Y30536D01*
X45000Y29464D01*
X875000Y29464D02*
X874924Y28396D01*
X874771Y27335D01*
X874543Y26288D01*
X874241Y25260D01*
X873867Y24256D01*
X873422Y23281D01*
X872908Y22341D01*
X872329Y21440D01*
X871687Y20582D01*
X870985Y19772D01*
X870228Y19015D01*
X869418Y18313D01*
X868560Y17671D01*
X867659Y17092D01*
X866719Y16578D01*
X865744Y16133D01*
X864740Y15759D01*
X863712Y15457D01*
X862665Y15229D01*
X861604Y15076D01*
X860536Y15000D01*
X859464Y15000D01*
X858396Y15076D01*
X857335Y15229D01*
X856288Y15457D01*
X855260Y15759D01*
X854256Y16133D01*
X853281Y16578D01*
X852341Y17092D01*
X851440Y17671D01*
X850582Y18313D01*
X849772Y19015D01*
X849015Y19772D01*
X848313Y20582D01*
X847671Y21440D01*
X847092Y22341D01*
X846578Y23281D01*
X846133Y24256D01*
X845759Y25260D01*
X845457Y26288D01*
X845229Y27335D01*
X845076Y28396D01*
X845000Y29464D01*
X845000Y30536D01*
X845076Y31604D01*
X845229Y32665D01*
X845457Y33712D01*
X845759Y34740D01*
X846133Y35744D01*
X846578Y36719D01*
X847092Y37659D01*
X847671Y38560D01*
X848313Y39418D01*
X849015Y40228D01*
X849772Y40985D01*
X850582Y41687D01*
X851440Y42329D01*
X852341Y42908D01*
X853281Y43422D01*
X854256Y43867D01*
X855260Y44241D01*
X856288Y44543D01*
X857335Y44771D01*
X858396Y44924D01*
X859464Y45000D01*
X860536Y45000D01*
X861604Y44924D01*
X862665Y44771D01*
X863712Y44543D01*
X864740Y44241D01*
X865744Y43867D01*
X866719Y43422D01*
X867659Y42908D01*
X868560Y42329D01*
X869418Y41687D01*
X870228Y40985D01*
X870985Y40228D01*
X871687Y39418D01*
X872329Y38560D01*
X872908Y37659D01*
X873422Y36719D01*
X873867Y35744D01*
X874241Y34740D01*
X874543Y33712D01*
X874771Y32665D01*
X874924Y31604D01*
X875000Y30536D01*
X875000Y29464D01*
X140000Y529396D02*
X140073Y528189D01*
X140219Y526989D01*
X140437Y525800D01*
X140726Y524627D01*
X141085Y523473D01*
X141514Y522343D01*
X142010Y521241D01*
X142572Y520170D01*
X143197Y519136D01*
X143884Y518141D01*
X144629Y517190D01*
X145431Y516285D01*
X146285Y515431D01*
X147190Y514629D01*
X148141Y513884D01*
X149136Y513197D01*
X150170Y512572D01*
X151241Y512010D01*
X152343Y511514D01*
X153473Y511085D01*
X154627Y510726D01*
X155800Y510437D01*
X156989Y510219D01*
X158189Y510073D01*
X159396Y510000D01*
X160604Y510000D01*
X161811Y510073D01*
X163011Y510219D01*
X164200Y510437D01*
X165373Y510726D01*
X166527Y511085D01*
X167657Y511514D01*
X168759Y512010D01*
X169830Y512572D01*
X170864Y513197D01*
X171859Y513884D01*
X172810Y514629D01*
X173715Y515431D01*
X174569Y516285D01*
X175371Y517190D01*
X176116Y518141D01*
X176803Y519136D01*
X177428Y520170D01*
X177990Y521241D01*
X178486Y522343D01*
X178915Y523473D01*
X179274Y524627D01*
X179563Y525800D01*
X179781Y526989D01*
X179927Y528189D01*
X180000Y529396D01*
X180000Y530604D01*
X179927Y531811D01*
X179781Y533011D01*
X179563Y534200D01*
X179274Y535373D01*
X178915Y536527D01*
X178486Y537657D01*
X177990Y538759D01*
X177428Y539830D01*
X176803Y540864D01*
X176116Y541859D01*
X175371Y542810D01*
X174569Y543715D01*
X173715Y544569D01*
X172810Y545371D01*
X171859Y546116D01*
X170864Y546803D01*
X169830Y547428D01*
X168759Y547990D01*
X167657Y548486D01*
X166527Y548915D01*
X165373Y549274D01*
X164200Y549563D01*
X163011Y549781D01*
X161811Y549927D01*
X160604Y550000D01*
X159396Y550000D01*
X158189Y549927D01*
X156989Y549781D01*
X155800Y549563D01*
X154627Y549274D01*
X153473Y548915D01*
X152343Y548486D01*
X151241Y547990D01*
X150170Y547428D01*
X149136Y546803D01*
X148141Y546116D01*
X147190Y545371D01*
X146285Y544569D01*
X145431Y543715D01*
X144629Y542810D01*
X143884Y541859D01*
X143197Y540864D01*
X142572Y539830D01*
X142010Y538759D01*
X141514Y537657D01*
X141085Y536527D01*
X140726Y535373D01*
X140437Y534200D01*
X140219Y533011D01*
X140073Y531811D01*
X140000Y530604D01*
X140000Y529396D01*
X100700Y529629D02*
X100765Y528889D01*
X100894Y528159D01*
X101086Y527442D01*
X101340Y526744D01*
X101653Y526071D01*
X102024Y525429D01*
X102450Y524821D01*
X102927Y524252D01*
X103452Y523727D01*
X104021Y523250D01*
X104629Y522824D01*
X105271Y522453D01*
X105944Y522140D01*
X106642Y521886D01*
X107359Y521694D01*
X108089Y521565D01*
X108829Y521500D01*
X109571Y521500D01*
X110311Y521565D01*
X111042Y521694D01*
X111758Y521886D01*
X112456Y522140D01*
X113129Y522453D01*
X113771Y522824D01*
X114379Y523250D01*
X114948Y523727D01*
X115473Y524252D01*
X115950Y524821D01*
X116376Y525429D01*
X116747Y526071D01*
X117060Y526744D01*
X117314Y527442D01*
X117506Y528159D01*
X117635Y528889D01*
X117700Y529629D01*
X117700Y530371D01*
X117635Y531111D01*
X117506Y531842D01*
X117314Y532558D01*
X117060Y533256D01*
X116747Y533929D01*
X116376Y534571D01*
X115950Y535179D01*
X115473Y535748D01*
X114948Y536273D01*
X114379Y536750D01*
X113771Y537176D01*
X113129Y537547D01*
X112456Y537860D01*
X111758Y538114D01*
X111042Y538306D01*
X110311Y538435D01*
X109571Y538500D01*
X108829Y538500D01*
X108089Y538435D01*
X107359Y538306D01*
X106642Y538114D01*
X105944Y537860D01*
X105271Y537547D01*
X104629Y537176D01*
X104021Y536750D01*
X103452Y536273D01*
X102927Y535748D01*
X102450Y535179D01*
X102024Y534571D01*
X101653Y533929D01*
X101340Y533256D01*
X101086Y532558D01*
X100894Y531842D01*
X100765Y531111D01*
X100700Y530371D01*
X100700Y529629D01*
X202300Y529629D02*
X202365Y528889D01*
X202494Y528159D01*
X202686Y527442D01*
X202940Y526744D01*
X203253Y526071D01*
X203624Y525429D01*
X204050Y524821D01*
X204527Y524252D01*
X205052Y523727D01*
X205621Y523250D01*
X206229Y522824D01*
X206871Y522453D01*
X207544Y522140D01*
X208242Y521886D01*
X208959Y521694D01*
X209689Y521565D01*
X210429Y521500D01*
X211171Y521500D01*
X211911Y521565D01*
X212642Y521694D01*
X213358Y521886D01*
X214056Y522140D01*
X214729Y522453D01*
X215371Y522824D01*
X215979Y523250D01*
X216548Y523727D01*
X217073Y524252D01*
X217550Y524821D01*
X217976Y525429D01*
X218347Y526071D01*
X218660Y526744D01*
X218914Y527442D01*
X219106Y528159D01*
X219235Y528889D01*
X219300Y529629D01*
X219300Y530371D01*
X219235Y531111D01*
X219106Y531842D01*
X218914Y532558D01*
X218660Y533256D01*
X218347Y533929D01*
X217976Y534571D01*
X217550Y535179D01*
X217073Y535748D01*
X216548Y536273D01*
X215979Y536750D01*
X215371Y537176D01*
X214729Y537547D01*
X214056Y537860D01*
X213358Y538114D01*
X212642Y538306D01*
X211911Y538435D01*
X211171Y538500D01*
X210429Y538500D01*
X209689Y538435D01*
X208959Y538306D01*
X208242Y538114D01*
X207544Y537860D01*
X206871Y537547D01*
X206229Y537176D01*
X205621Y536750D01*
X205052Y536273D01*
X204527Y535748D01*
X204050Y535179D01*
X203624Y534571D01*
X203253Y533929D01*
X202940Y533256D01*
X202686Y532558D01*
X202494Y531842D01*
X202365Y531111D01*
X202300Y530371D01*
X202300Y529629D01*
X106900Y554864D02*
X106976Y553796D01*
X107129Y552735D01*
X107357Y551688D01*
X107659Y550660D01*
X108033Y549656D01*
X108478Y548681D01*
X108992Y547741D01*
X109571Y546840D01*
X110213Y545982D01*
X110915Y545172D01*
X111672Y544415D01*
X112482Y543713D01*
X113340Y543071D01*
X114241Y542492D01*
X115181Y541978D01*
X116156Y541533D01*
X117160Y541159D01*
X118188Y540857D01*
X119235Y540629D01*
X120296Y540476D01*
X121364Y540400D01*
X122436Y540400D01*
X123504Y540476D01*
X124565Y540629D01*
X125612Y540857D01*
X126640Y541159D01*
X127644Y541533D01*
X128619Y541978D01*
X129559Y542492D01*
X130460Y543071D01*
X131318Y543713D01*
X132128Y544415D01*
X132885Y545172D01*
X133587Y545982D01*
X134229Y546840D01*
X134808Y547741D01*
X135322Y548681D01*
X135767Y549656D01*
X136141Y550660D01*
X136443Y551688D01*
X136671Y552735D01*
X136824Y553796D01*
X136900Y554864D01*
X136900Y555936D01*
X136824Y557004D01*
X136671Y558065D01*
X136443Y559112D01*
X136141Y560140D01*
X135767Y561144D01*
X135322Y562119D01*
X134808Y563059D01*
X134229Y563960D01*
X133587Y564818D01*
X132885Y565628D01*
X132128Y566385D01*
X131318Y567087D01*
X130460Y567729D01*
X129559Y568308D01*
X128619Y568822D01*
X127644Y569267D01*
X126640Y569641D01*
X125612Y569943D01*
X124565Y570171D01*
X123504Y570324D01*
X122436Y570400D01*
X121364Y570400D01*
X120296Y570324D01*
X119235Y570171D01*
X118188Y569943D01*
X117160Y569641D01*
X116156Y569267D01*
X115181Y568822D01*
X114241Y568308D01*
X113340Y567729D01*
X112482Y567087D01*
X111672Y566385D01*
X110915Y565628D01*
X110213Y564818D01*
X109571Y563960D01*
X108992Y563059D01*
X108478Y562119D01*
X108033Y561144D01*
X107659Y560140D01*
X107357Y559112D01*
X107129Y558065D01*
X106976Y557004D01*
X106900Y555936D01*
X106900Y554864D01*
X170400Y580264D02*
X170476Y579196D01*
X170629Y578135D01*
X170857Y577088D01*
X171159Y576060D01*
X171533Y575056D01*
X171978Y574081D01*
X172492Y573141D01*
X173071Y572240D01*
X173713Y571382D01*
X174415Y570572D01*
X175172Y569815D01*
X175982Y569113D01*
X176840Y568471D01*
X177741Y567892D01*
X178681Y567378D01*
X179656Y566933D01*
X180660Y566559D01*
X181688Y566257D01*
X182735Y566029D01*
X183796Y565876D01*
X184864Y565800D01*
X185936Y565800D01*
X187004Y565876D01*
X188065Y566029D01*
X189112Y566257D01*
X190140Y566559D01*
X191144Y566933D01*
X192119Y567378D01*
X193059Y567892D01*
X193960Y568471D01*
X194818Y569113D01*
X195628Y569815D01*
X196385Y570572D01*
X197087Y571382D01*
X197729Y572240D01*
X198308Y573141D01*
X198822Y574081D01*
X199267Y575056D01*
X199641Y576060D01*
X199943Y577088D01*
X200171Y578135D01*
X200324Y579196D01*
X200400Y580264D01*
X200400Y581336D01*
X200324Y582404D01*
X200171Y583465D01*
X199943Y584512D01*
X199641Y585540D01*
X199267Y586544D01*
X198822Y587519D01*
X198308Y588459D01*
X197729Y589360D01*
X197087Y590218D01*
X196385Y591028D01*
X195628Y591785D01*
X194818Y592487D01*
X193960Y593129D01*
X193059Y593708D01*
X192119Y594222D01*
X191144Y594667D01*
X190140Y595041D01*
X189112Y595343D01*
X188065Y595571D01*
X187004Y595724D01*
X185936Y595800D01*
X184864Y595800D01*
X183796Y595724D01*
X182735Y595571D01*
X181688Y595343D01*
X180660Y595041D01*
X179656Y594667D01*
X178681Y594222D01*
X177741Y593708D01*
X176840Y593129D01*
X175982Y592487D01*
X175172Y591785D01*
X174415Y591028D01*
X173713Y590218D01*
X173071Y589360D01*
X172492Y588459D01*
X171978Y587519D01*
X171533Y586544D01*
X171159Y585540D01*
X170857Y584512D01*
X170629Y583465D01*
X170476Y582404D01*
X170400Y581336D01*
X170400Y580264D01*
X330000Y529396D02*
X330073Y528189D01*
X330219Y526989D01*
X330437Y525800D01*
X330726Y524627D01*
X331085Y523473D01*
X331514Y522343D01*
X332010Y521241D01*
X332572Y520170D01*
X333197Y519136D01*
X333884Y518141D01*
X334629Y517190D01*
X335431Y516285D01*
X336285Y515431D01*
X337190Y514629D01*
X338141Y513884D01*
X339136Y513197D01*
X340170Y512572D01*
X341241Y512010D01*
X342343Y511514D01*
X343473Y511085D01*
X344627Y510726D01*
X345800Y510437D01*
X346989Y510219D01*
X348189Y510073D01*
X349396Y510000D01*
X350604Y510000D01*
X351811Y510073D01*
X353011Y510219D01*
X354200Y510437D01*
X355373Y510726D01*
X356527Y511085D01*
X357657Y511514D01*
X358759Y512010D01*
X359830Y512572D01*
X360864Y513197D01*
X361859Y513884D01*
X362810Y514629D01*
X363715Y515431D01*
X364569Y516285D01*
X365371Y517190D01*
X366116Y518141D01*
X366803Y519136D01*
X367428Y520170D01*
X367990Y521241D01*
X368486Y522343D01*
X368915Y523473D01*
X369274Y524627D01*
X369563Y525800D01*
X369781Y526989D01*
X369927Y528189D01*
X370000Y529396D01*
X370000Y530604D01*
X369927Y531811D01*
X369781Y533011D01*
X369563Y534200D01*
X369274Y535373D01*
X368915Y536527D01*
X368486Y537657D01*
X367990Y538759D01*
X367428Y539830D01*
X366803Y540864D01*
X366116Y541859D01*
X365371Y542810D01*
X364569Y543715D01*
X363715Y544569D01*
X362810Y545371D01*
X361859Y546116D01*
X360864Y546803D01*
X359830Y547428D01*
X358759Y547990D01*
X357657Y548486D01*
X356527Y548915D01*
X355373Y549274D01*
X354200Y549563D01*
X353011Y549781D01*
X351811Y549927D01*
X350604Y550000D01*
X349396Y550000D01*
X348189Y549927D01*
X346989Y549781D01*
X345800Y549563D01*
X344627Y549274D01*
X343473Y548915D01*
X342343Y548486D01*
X341241Y547990D01*
X340170Y547428D01*
X339136Y546803D01*
X338141Y546116D01*
X337190Y545371D01*
X336285Y544569D01*
X335431Y543715D01*
X334629Y542810D01*
X333884Y541859D01*
X333197Y540864D01*
X332572Y539830D01*
X332010Y538759D01*
X331514Y537657D01*
X331085Y536527D01*
X330726Y535373D01*
X330437Y534200D01*
X330219Y533011D01*
X330073Y531811D01*
X330000Y530604D01*
X330000Y529396D01*
X290700Y529629D02*
X290765Y528889D01*
X290894Y528159D01*
X291086Y527442D01*
X291340Y526744D01*
X291653Y526071D01*
X292024Y525429D01*
X292450Y524821D01*
X292927Y524252D01*
X293452Y523727D01*
X294021Y523250D01*
X294629Y522824D01*
X295271Y522453D01*
X295944Y522140D01*
X296642Y521886D01*
X297359Y521694D01*
X298089Y521565D01*
X298829Y521500D01*
X299571Y521500D01*
X300311Y521565D01*
X301042Y521694D01*
X301758Y521886D01*
X302456Y522140D01*
X303129Y522453D01*
X303771Y522824D01*
X304379Y523250D01*
X304948Y523727D01*
X305473Y524252D01*
X305950Y524821D01*
X306376Y525429D01*
X306747Y526071D01*
X307060Y526744D01*
X307314Y527442D01*
X307506Y528159D01*
X307635Y528889D01*
X307700Y529629D01*
X307700Y530371D01*
X307635Y531111D01*
X307506Y531842D01*
X307314Y532558D01*
X307060Y533256D01*
X306747Y533929D01*
X306376Y534571D01*
X305950Y535179D01*
X305473Y535748D01*
X304948Y536273D01*
X304379Y536750D01*
X303771Y537176D01*
X303129Y537547D01*
X302456Y537860D01*
X301758Y538114D01*
X301042Y538306D01*
X300311Y538435D01*
X299571Y538500D01*
X298829Y538500D01*
X298089Y538435D01*
X297359Y538306D01*
X296642Y538114D01*
X295944Y537860D01*
X295271Y537547D01*
X294629Y537176D01*
X294021Y536750D01*
X293452Y536273D01*
X292927Y535748D01*
X292450Y535179D01*
X292024Y534571D01*
X291653Y533929D01*
X291340Y533256D01*
X291086Y532558D01*
X290894Y531842D01*
X290765Y531111D01*
X290700Y530371D01*
X290700Y529629D01*
X392300Y529629D02*
X392365Y528889D01*
X392494Y528159D01*
X392686Y527442D01*
X392940Y526744D01*
X393253Y526071D01*
X393624Y525429D01*
X394050Y524821D01*
X394527Y524252D01*
X395052Y523727D01*
X395621Y523250D01*
X396229Y522824D01*
X396871Y522453D01*
X397544Y522140D01*
X398242Y521886D01*
X398959Y521694D01*
X399689Y521565D01*
X400429Y521500D01*
X401171Y521500D01*
X401911Y521565D01*
X402642Y521694D01*
X403358Y521886D01*
X404056Y522140D01*
X404729Y522453D01*
X405371Y522824D01*
X405979Y523250D01*
X406548Y523727D01*
X407073Y524252D01*
X407550Y524821D01*
X407976Y525429D01*
X408347Y526071D01*
X408660Y526744D01*
X408914Y527442D01*
X409106Y528159D01*
X409235Y528889D01*
X409300Y529629D01*
X409300Y530371D01*
X409235Y531111D01*
X409106Y531842D01*
X408914Y532558D01*
X408660Y533256D01*
X408347Y533929D01*
X407976Y534571D01*
X407550Y535179D01*
X407073Y535748D01*
X406548Y536273D01*
X405979Y536750D01*
X405371Y537176D01*
X404729Y537547D01*
X404056Y537860D01*
X403358Y538114D01*
X402642Y538306D01*
X401911Y538435D01*
X401171Y538500D01*
X400429Y538500D01*
X399689Y538435D01*
X398959Y538306D01*
X398242Y538114D01*
X397544Y537860D01*
X396871Y537547D01*
X396229Y537176D01*
X395621Y536750D01*
X395052Y536273D01*
X394527Y535748D01*
X394050Y535179D01*
X393624Y534571D01*
X393253Y533929D01*
X392940Y533256D01*
X392686Y532558D01*
X392494Y531842D01*
X392365Y531111D01*
X392300Y530371D01*
X392300Y529629D01*
X296900Y554864D02*
X296976Y553796D01*
X297129Y552735D01*
X297357Y551688D01*
X297659Y550660D01*
X298033Y549656D01*
X298478Y548681D01*
X298992Y547741D01*
X299571Y546840D01*
X300213Y545982D01*
X300915Y545172D01*
X301672Y544415D01*
X302482Y543713D01*
X303340Y543071D01*
X304241Y542492D01*
X305181Y541978D01*
X306156Y541533D01*
X307160Y541159D01*
X308188Y540857D01*
X309235Y540629D01*
X310296Y540476D01*
X311364Y540400D01*
X312436Y540400D01*
X313504Y540476D01*
X314565Y540629D01*
X315612Y540857D01*
X316640Y541159D01*
X317644Y541533D01*
X318619Y541978D01*
X319559Y542492D01*
X320460Y543071D01*
X321318Y543713D01*
X322128Y544415D01*
X322885Y545172D01*
X323587Y545982D01*
X324229Y546840D01*
X324808Y547741D01*
X325322Y548681D01*
X325767Y549656D01*
X326141Y550660D01*
X326443Y551688D01*
X326671Y552735D01*
X326824Y553796D01*
X326900Y554864D01*
X326900Y555936D01*
X326824Y557004D01*
X326671Y558065D01*
X326443Y559112D01*
X326141Y560140D01*
X325767Y561144D01*
X325322Y562119D01*
X324808Y563059D01*
X324229Y563960D01*
X323587Y564818D01*
X322885Y565628D01*
X322128Y566385D01*
X321318Y567087D01*
X320460Y567729D01*
X319559Y568308D01*
X318619Y568822D01*
X317644Y569267D01*
X316640Y569641D01*
X315612Y569943D01*
X314565Y570171D01*
X313504Y570324D01*
X312436Y570400D01*
X311364Y570400D01*
X310296Y570324D01*
X309235Y570171D01*
X308188Y569943D01*
X307160Y569641D01*
X306156Y569267D01*
X305181Y568822D01*
X304241Y568308D01*
X303340Y567729D01*
X302482Y567087D01*
X301672Y566385D01*
X300915Y565628D01*
X300213Y564818D01*
X299571Y563960D01*
X298992Y563059D01*
X298478Y562119D01*
X298033Y561144D01*
X297659Y560140D01*
X297357Y559112D01*
X297129Y558065D01*
X296976Y557004D01*
X296900Y555936D01*
X296900Y554864D01*
X360400Y580264D02*
X360476Y579196D01*
X360629Y578135D01*
X360857Y577088D01*
X361159Y576060D01*
X361533Y575056D01*
X361978Y574081D01*
X362492Y573141D01*
X363071Y572240D01*
X363713Y571382D01*
X364415Y570572D01*
X365172Y569815D01*
X365982Y569113D01*
X366840Y568471D01*
X367741Y567892D01*
X368681Y567378D01*
X369656Y566933D01*
X370660Y566559D01*
X371688Y566257D01*
X372735Y566029D01*
X373796Y565876D01*
X374864Y565800D01*
X375936Y565800D01*
X377004Y565876D01*
X378065Y566029D01*
X379112Y566257D01*
X380140Y566559D01*
X381144Y566933D01*
X382119Y567378D01*
X383059Y567892D01*
X383960Y568471D01*
X384818Y569113D01*
X385628Y569815D01*
X386385Y570572D01*
X387087Y571382D01*
X387729Y572240D01*
X388308Y573141D01*
X388822Y574081D01*
X389267Y575056D01*
X389641Y576060D01*
X389943Y577088D01*
X390171Y578135D01*
X390324Y579196D01*
X390400Y580264D01*
X390400Y581336D01*
X390324Y582404D01*
X390171Y583465D01*
X389943Y584512D01*
X389641Y585540D01*
X389267Y586544D01*
X388822Y587519D01*
X388308Y588459D01*
X387729Y589360D01*
X387087Y590218D01*
X386385Y591028D01*
X385628Y591785D01*
X384818Y592487D01*
X383960Y593129D01*
X383059Y593708D01*
X382119Y594222D01*
X381144Y594667D01*
X380140Y595041D01*
X379112Y595343D01*
X378065Y595571D01*
X377004Y595724D01*
X375936Y595800D01*
X374864Y595800D01*
X373796Y595724D01*
X372735Y595571D01*
X371688Y595343D01*
X370660Y595041D01*
X369656Y594667D01*
X368681Y594222D01*
X367741Y593708D01*
X366840Y593129D01*
X365982Y592487D01*
X365172Y591785D01*
X364415Y591028D01*
X363713Y590218D01*
X363071Y589360D01*
X362492Y588459D01*
X361978Y587519D01*
X361533Y586544D01*
X361159Y585540D01*
X360857Y584512D01*
X360629Y583465D01*
X360476Y582404D01*
X360400Y581336D01*
X360400Y580264D01*
X520000Y529396D02*
X520073Y528189D01*
X520219Y526989D01*
X520437Y525800D01*
X520726Y524627D01*
X521085Y523473D01*
X521514Y522343D01*
X522010Y521241D01*
X522572Y520170D01*
X523197Y519136D01*
X523884Y518141D01*
X524629Y517190D01*
X525431Y516285D01*
X526285Y515431D01*
X527190Y514629D01*
X528141Y513884D01*
X529136Y513197D01*
X530170Y512572D01*
X531241Y512010D01*
X532343Y511514D01*
X533473Y511085D01*
X534627Y510726D01*
X535800Y510437D01*
X536989Y510219D01*
X538189Y510073D01*
X539396Y510000D01*
X540604Y510000D01*
X541811Y510073D01*
X543011Y510219D01*
X544200Y510437D01*
X545373Y510726D01*
X546527Y511085D01*
X547657Y511514D01*
X548759Y512010D01*
X549830Y512572D01*
X550864Y513197D01*
X551859Y513884D01*
X552810Y514629D01*
X553715Y515431D01*
X554569Y516285D01*
X555371Y517190D01*
X556116Y518141D01*
X556803Y519136D01*
X557428Y520170D01*
X557990Y521241D01*
X558486Y522343D01*
X558915Y523473D01*
X559274Y524627D01*
X559563Y525800D01*
X559781Y526989D01*
X559927Y528189D01*
X560000Y529396D01*
X560000Y530604D01*
X559927Y531811D01*
X559781Y533011D01*
X559563Y534200D01*
X559274Y535373D01*
X558915Y536527D01*
X558486Y537657D01*
X557990Y538759D01*
X557428Y539830D01*
X556803Y540864D01*
X556116Y541859D01*
X555371Y542810D01*
X554569Y543715D01*
X553715Y544569D01*
X552810Y545371D01*
X551859Y546116D01*
X550864Y546803D01*
X549830Y547428D01*
X548759Y547990D01*
X547657Y548486D01*
X546527Y548915D01*
X545373Y549274D01*
X544200Y549563D01*
X543011Y549781D01*
X541811Y549927D01*
X540604Y550000D01*
X539396Y550000D01*
X538189Y549927D01*
X536989Y549781D01*
X535800Y549563D01*
X534627Y549274D01*
X533473Y548915D01*
X532343Y548486D01*
X531241Y547990D01*
X530170Y547428D01*
X529136Y546803D01*
X528141Y546116D01*
X527190Y545371D01*
X526285Y544569D01*
X525431Y543715D01*
X524629Y542810D01*
X523884Y541859D01*
X523197Y540864D01*
X522572Y539830D01*
X522010Y538759D01*
X521514Y537657D01*
X521085Y536527D01*
X520726Y535373D01*
X520437Y534200D01*
X520219Y533011D01*
X520073Y531811D01*
X520000Y530604D01*
X520000Y529396D01*
X480700Y529629D02*
X480765Y528889D01*
X480894Y528159D01*
X481086Y527442D01*
X481340Y526744D01*
X481653Y526071D01*
X482024Y525429D01*
X482450Y524821D01*
X482927Y524252D01*
X483452Y523727D01*
X484021Y523250D01*
X484629Y522824D01*
X485271Y522453D01*
X485944Y522140D01*
X486642Y521886D01*
X487359Y521694D01*
X488089Y521565D01*
X488829Y521500D01*
X489571Y521500D01*
X490311Y521565D01*
X491042Y521694D01*
X491758Y521886D01*
X492456Y522140D01*
X493129Y522453D01*
X493771Y522824D01*
X494379Y523250D01*
X494948Y523727D01*
X495473Y524252D01*
X495950Y524821D01*
X496376Y525429D01*
X496747Y526071D01*
X497060Y526744D01*
X497314Y527442D01*
X497506Y528159D01*
X497635Y528889D01*
X497700Y529629D01*
X497700Y530371D01*
X497635Y531111D01*
X497506Y531842D01*
X497314Y532558D01*
X497060Y533256D01*
X496747Y533929D01*
X496376Y534571D01*
X495950Y535179D01*
X495473Y535748D01*
X494948Y536273D01*
X494379Y536750D01*
X493771Y537176D01*
X493129Y537547D01*
X492456Y537860D01*
X491758Y538114D01*
X491042Y538306D01*
X490311Y538435D01*
X489571Y538500D01*
X488829Y538500D01*
X488089Y538435D01*
X487359Y538306D01*
X486642Y538114D01*
X485944Y537860D01*
X485271Y537547D01*
X484629Y537176D01*
X484021Y536750D01*
X483452Y536273D01*
X482927Y535748D01*
X482450Y535179D01*
X482024Y534571D01*
X481653Y533929D01*
X481340Y533256D01*
X481086Y532558D01*
X480894Y531842D01*
X480765Y531111D01*
X480700Y530371D01*
X480700Y529629D01*
X582300Y529629D02*
X582365Y528889D01*
X582494Y528159D01*
X582686Y527442D01*
X582940Y526744D01*
X583253Y526071D01*
X583624Y525429D01*
X584050Y524821D01*
X584527Y524252D01*
X585052Y523727D01*
X585621Y523250D01*
X586229Y522824D01*
X586871Y522453D01*
X587544Y522140D01*
X588242Y521886D01*
X588959Y521694D01*
X589689Y521565D01*
X590429Y521500D01*
X591171Y521500D01*
X591911Y521565D01*
X592642Y521694D01*
X593358Y521886D01*
X594056Y522140D01*
X594729Y522453D01*
X595371Y522824D01*
X595979Y523250D01*
X596548Y523727D01*
X597073Y524252D01*
X597550Y524821D01*
X597976Y525429D01*
X598347Y526071D01*
X598660Y526744D01*
X598914Y527442D01*
X599106Y528159D01*
X599235Y528889D01*
X599300Y529629D01*
X599300Y530371D01*
X599235Y531111D01*
X599106Y531842D01*
X598914Y532558D01*
X598660Y533256D01*
X598347Y533929D01*
X597976Y534571D01*
X597550Y535179D01*
X597073Y535748D01*
X596548Y536273D01*
X595979Y536750D01*
X595371Y537176D01*
X594729Y537547D01*
X594056Y537860D01*
X593358Y538114D01*
X592642Y538306D01*
X591911Y538435D01*
X591171Y538500D01*
X590429Y538500D01*
X589689Y538435D01*
X588959Y538306D01*
X588242Y538114D01*
X587544Y537860D01*
X586871Y537547D01*
X586229Y537176D01*
X585621Y536750D01*
X585052Y536273D01*
X584527Y535748D01*
X584050Y535179D01*
X583624Y534571D01*
X583253Y533929D01*
X582940Y533256D01*
X582686Y532558D01*
X582494Y531842D01*
X582365Y531111D01*
X582300Y530371D01*
X582300Y529629D01*
X486900Y554864D02*
X486976Y553796D01*
X487129Y552735D01*
X487357Y551688D01*
X487659Y550660D01*
X488033Y549656D01*
X488478Y548681D01*
X488992Y547741D01*
X489571Y546840D01*
X490213Y545982D01*
X490915Y545172D01*
X491672Y544415D01*
X492482Y543713D01*
X493340Y543071D01*
X494241Y542492D01*
X495181Y541978D01*
X496156Y541533D01*
X497160Y541159D01*
X498188Y540857D01*
X499235Y540629D01*
X500296Y540476D01*
X501364Y540400D01*
X502436Y540400D01*
X503504Y540476D01*
X504565Y540629D01*
X505612Y540857D01*
X506640Y541159D01*
X507644Y541533D01*
X508619Y541978D01*
X509559Y542492D01*
X510460Y543071D01*
X511318Y543713D01*
X512128Y544415D01*
X512885Y545172D01*
X513587Y545982D01*
X514229Y546840D01*
X514808Y547741D01*
X515322Y548681D01*
X515767Y549656D01*
X516141Y550660D01*
X516443Y551688D01*
X516671Y552735D01*
X516824Y553796D01*
X516900Y554864D01*
X516900Y555936D01*
X516824Y557004D01*
X516671Y558065D01*
X516443Y559112D01*
X516141Y560140D01*
X515767Y561144D01*
X515322Y562119D01*
X514808Y563059D01*
X514229Y563960D01*
X513587Y564818D01*
X512885Y565628D01*
X512128Y566385D01*
X511318Y567087D01*
X510460Y567729D01*
X509559Y568308D01*
X508619Y568822D01*
X507644Y569267D01*
X506640Y569641D01*
X505612Y569943D01*
X504565Y570171D01*
X503504Y570324D01*
X502436Y570400D01*
X501364Y570400D01*
X500296Y570324D01*
X499235Y570171D01*
X498188Y569943D01*
X497160Y569641D01*
X496156Y569267D01*
X495181Y568822D01*
X494241Y568308D01*
X493340Y567729D01*
X492482Y567087D01*
X491672Y566385D01*
X490915Y565628D01*
X490213Y564818D01*
X489571Y563960D01*
X488992Y563059D01*
X488478Y562119D01*
X488033Y561144D01*
X487659Y560140D01*
X487357Y559112D01*
X487129Y558065D01*
X486976Y557004D01*
X486900Y555936D01*
X486900Y554864D01*
X550400Y580264D02*
X550476Y579196D01*
X550629Y578135D01*
X550857Y577088D01*
X551159Y576060D01*
X551533Y575056D01*
X551978Y574081D01*
X552492Y573141D01*
X553071Y572240D01*
X553713Y571382D01*
X554415Y570572D01*
X555172Y569815D01*
X555982Y569113D01*
X556840Y568471D01*
X557741Y567892D01*
X558681Y567378D01*
X559656Y566933D01*
X560660Y566559D01*
X561688Y566257D01*
X562735Y566029D01*
X563796Y565876D01*
X564864Y565800D01*
X565936Y565800D01*
X567004Y565876D01*
X568065Y566029D01*
X569112Y566257D01*
X570140Y566559D01*
X571144Y566933D01*
X572119Y567378D01*
X573059Y567892D01*
X573960Y568471D01*
X574818Y569113D01*
X575628Y569815D01*
X576385Y570572D01*
X577087Y571382D01*
X577729Y572240D01*
X578308Y573141D01*
X578822Y574081D01*
X579267Y575056D01*
X579641Y576060D01*
X579943Y577088D01*
X580171Y578135D01*
X580324Y579196D01*
X580400Y580264D01*
X580400Y581336D01*
X580324Y582404D01*
X580171Y583465D01*
X579943Y584512D01*
X579641Y585540D01*
X579267Y586544D01*
X578822Y587519D01*
X578308Y588459D01*
X577729Y589360D01*
X577087Y590218D01*
X576385Y591028D01*
X575628Y591785D01*
X574818Y592487D01*
X573960Y593129D01*
X573059Y593708D01*
X572119Y594222D01*
X571144Y594667D01*
X570140Y595041D01*
X569112Y595343D01*
X568065Y595571D01*
X567004Y595724D01*
X565936Y595800D01*
X564864Y595800D01*
X563796Y595724D01*
X562735Y595571D01*
X561688Y595343D01*
X560660Y595041D01*
X559656Y594667D01*
X558681Y594222D01*
X557741Y593708D01*
X556840Y593129D01*
X555982Y592487D01*
X555172Y591785D01*
X554415Y591028D01*
X553713Y590218D01*
X553071Y589360D01*
X552492Y588459D01*
X551978Y587519D01*
X551533Y586544D01*
X551159Y585540D01*
X550857Y584512D01*
X550629Y583465D01*
X550476Y582404D01*
X550400Y581336D01*
X550400Y580264D01*
X710000Y529396D02*
X710073Y528189D01*
X710219Y526989D01*
X710437Y525800D01*
X710726Y524627D01*
X711085Y523473D01*
X711514Y522343D01*
X712010Y521241D01*
X712572Y520170D01*
X713197Y519136D01*
X713884Y518141D01*
X714629Y517190D01*
X715431Y516285D01*
X716285Y515431D01*
X717190Y514629D01*
X718141Y513884D01*
X719136Y513197D01*
X720170Y512572D01*
X721241Y512010D01*
X722343Y511514D01*
X723473Y511085D01*
X724627Y510726D01*
X725800Y510437D01*
X726989Y510219D01*
X728189Y510073D01*
X729396Y510000D01*
X730604Y510000D01*
X731811Y510073D01*
X733011Y510219D01*
X734200Y510437D01*
X735373Y510726D01*
X736527Y511085D01*
X737657Y511514D01*
X738759Y512010D01*
X739830Y512572D01*
X740864Y513197D01*
X741859Y513884D01*
X742810Y514629D01*
X743715Y515431D01*
X744569Y516285D01*
X745371Y517190D01*
X746116Y518141D01*
X746803Y519136D01*
X747428Y520170D01*
X747990Y521241D01*
X748486Y522343D01*
X748915Y523473D01*
X749274Y524627D01*
X749563Y525800D01*
X749781Y526989D01*
X749927Y528189D01*
X750000Y529396D01*
X750000Y530604D01*
X749927Y531811D01*
X749781Y533011D01*
X749563Y534200D01*
X749274Y535373D01*
X748915Y536527D01*
X748486Y537657D01*
X747990Y538759D01*
X747428Y539830D01*
X746803Y540864D01*
X746116Y541859D01*
X745371Y542810D01*
X744569Y543715D01*
X743715Y544569D01*
X742810Y545371D01*
X741859Y546116D01*
X740864Y546803D01*
X739830Y547428D01*
X738759Y547990D01*
X737657Y548486D01*
X736527Y548915D01*
X735373Y549274D01*
X734200Y549563D01*
X733011Y549781D01*
X731811Y549927D01*
X730604Y550000D01*
X729396Y550000D01*
X728189Y549927D01*
X726989Y549781D01*
X725800Y549563D01*
X724627Y549274D01*
X723473Y548915D01*
X722343Y548486D01*
X721241Y547990D01*
X720170Y547428D01*
X719136Y546803D01*
X718141Y546116D01*
X717190Y545371D01*
X716285Y544569D01*
X715431Y543715D01*
X714629Y542810D01*
X713884Y541859D01*
X713197Y540864D01*
X712572Y539830D01*
X712010Y538759D01*
X711514Y537657D01*
X711085Y536527D01*
X710726Y535373D01*
X710437Y534200D01*
X710219Y533011D01*
X710073Y531811D01*
X710000Y530604D01*
X710000Y529396D01*
X670700Y529629D02*
X670765Y528889D01*
X670894Y528159D01*
X671086Y527442D01*
X671340Y526744D01*
X671653Y526071D01*
X672024Y525429D01*
X672450Y524821D01*
X672927Y524252D01*
X673452Y523727D01*
X674021Y523250D01*
X674629Y522824D01*
X675271Y522453D01*
X675944Y522140D01*
X676642Y521886D01*
X677359Y521694D01*
X678089Y521565D01*
X678829Y521500D01*
X679571Y521500D01*
X680311Y521565D01*
X681042Y521694D01*
X681758Y521886D01*
X682456Y522140D01*
X683129Y522453D01*
X683771Y522824D01*
X684379Y523250D01*
X684948Y523727D01*
X685473Y524252D01*
X685950Y524821D01*
X686376Y525429D01*
X686747Y526071D01*
X687060Y526744D01*
X687314Y527442D01*
X687506Y528159D01*
X687635Y528889D01*
X687700Y529629D01*
X687700Y530371D01*
X687635Y531111D01*
X687506Y531842D01*
X687314Y532558D01*
X687060Y533256D01*
X686747Y533929D01*
X686376Y534571D01*
X685950Y535179D01*
X685473Y535748D01*
X684948Y536273D01*
X684379Y536750D01*
X683771Y537176D01*
X683129Y537547D01*
X682456Y537860D01*
X681758Y538114D01*
X681042Y538306D01*
X680311Y538435D01*
X679571Y538500D01*
X678829Y538500D01*
X678089Y538435D01*
X677359Y538306D01*
X676642Y538114D01*
X675944Y537860D01*
X675271Y537547D01*
X674629Y537176D01*
X674021Y536750D01*
X673452Y536273D01*
X672927Y535748D01*
X672450Y535179D01*
X672024Y534571D01*
X671653Y533929D01*
X671340Y533256D01*
X671086Y532558D01*
X670894Y531842D01*
X670765Y531111D01*
X670700Y530371D01*
X670700Y529629D01*
X772300Y529629D02*
X772365Y528889D01*
X772494Y528159D01*
X772686Y527442D01*
X772940Y526744D01*
X773253Y526071D01*
X773624Y525429D01*
X774050Y524821D01*
X774527Y524252D01*
X775052Y523727D01*
X775621Y523250D01*
X776229Y522824D01*
X776871Y522453D01*
X777544Y522140D01*
X778242Y521886D01*
X778959Y521694D01*
X779689Y521565D01*
X780429Y521500D01*
X781171Y521500D01*
X781911Y521565D01*
X782642Y521694D01*
X783358Y521886D01*
X784056Y522140D01*
X784729Y522453D01*
X785371Y522824D01*
X785979Y523250D01*
X786548Y523727D01*
X787073Y524252D01*
X787550Y524821D01*
X787976Y525429D01*
X788347Y526071D01*
X788660Y526744D01*
X788914Y527442D01*
X789106Y528159D01*
X789235Y528889D01*
X789300Y529629D01*
X789300Y530371D01*
X789235Y531111D01*
X789106Y531842D01*
X788914Y532558D01*
X788660Y533256D01*
X788347Y533929D01*
X787976Y534571D01*
X787550Y535179D01*
X787073Y535748D01*
X786548Y536273D01*
X785979Y536750D01*
X785371Y537176D01*
X784729Y537547D01*
X784056Y537860D01*
X783358Y538114D01*
X782642Y538306D01*
X781911Y538435D01*
X781171Y538500D01*
X780429Y538500D01*
X779689Y538435D01*
X778959Y538306D01*
X778242Y538114D01*
X777544Y537860D01*
X776871Y537547D01*
X776229Y537176D01*
X775621Y536750D01*
X775052Y536273D01*
X774527Y535748D01*
X774050Y535179D01*
X773624Y534571D01*
X773253Y533929D01*
X772940Y533256D01*
X772686Y532558D01*
X772494Y531842D01*
X772365Y531111D01*
X772300Y530371D01*
X772300Y529629D01*
X676900Y554864D02*
X676976Y553796D01*
X677129Y552735D01*
X677357Y551688D01*
X677659Y550660D01*
X678033Y549656D01*
X678478Y548681D01*
X678992Y547741D01*
X679571Y546840D01*
X680213Y545982D01*
X680915Y545172D01*
X681672Y544415D01*
X682482Y543713D01*
X683340Y543071D01*
X684241Y542492D01*
X685181Y541978D01*
X686156Y541533D01*
X687160Y541159D01*
X688188Y540857D01*
X689235Y540629D01*
X690296Y540476D01*
X691364Y540400D01*
X692436Y540400D01*
X693504Y540476D01*
X694565Y540629D01*
X695612Y540857D01*
X696640Y541159D01*
X697644Y541533D01*
X698619Y541978D01*
X699559Y542492D01*
X700460Y543071D01*
X701318Y543713D01*
X702128Y544415D01*
X702885Y545172D01*
X703587Y545982D01*
X704229Y546840D01*
X704808Y547741D01*
X705322Y548681D01*
X705767Y549656D01*
X706141Y550660D01*
X706443Y551688D01*
X706671Y552735D01*
X706824Y553796D01*
X706900Y554864D01*
X706900Y555936D01*
X706824Y557004D01*
X706671Y558065D01*
X706443Y559112D01*
X706141Y560140D01*
X705767Y561144D01*
X705322Y562119D01*
X704808Y563059D01*
X704229Y563960D01*
X703587Y564818D01*
X702885Y565628D01*
X702128Y566385D01*
X701318Y567087D01*
X700460Y567729D01*
X699559Y568308D01*
X698619Y568822D01*
X697644Y569267D01*
X696640Y569641D01*
X695612Y569943D01*
X694565Y570171D01*
X693504Y570324D01*
X692436Y570400D01*
X691364Y570400D01*
X690296Y570324D01*
X689235Y570171D01*
X688188Y569943D01*
X687160Y569641D01*
X686156Y569267D01*
X685181Y568822D01*
X684241Y568308D01*
X683340Y567729D01*
X682482Y567087D01*
X681672Y566385D01*
X680915Y565628D01*
X680213Y564818D01*
X679571Y563960D01*
X678992Y563059D01*
X678478Y562119D01*
X678033Y561144D01*
X677659Y560140D01*
X677357Y559112D01*
X677129Y558065D01*
X676976Y557004D01*
X676900Y555936D01*
X676900Y554864D01*
X740400Y580264D02*
X740476Y579196D01*
X740629Y578135D01*
X740857Y577088D01*
X741159Y576060D01*
X741533Y575056D01*
X741978Y574081D01*
X742492Y573141D01*
X743071Y572240D01*
X743713Y571382D01*
X744415Y570572D01*
X745172Y569815D01*
X745982Y569113D01*
X746840Y568471D01*
X747741Y567892D01*
X748681Y567378D01*
X749656Y566933D01*
X750660Y566559D01*
X751688Y566257D01*
X752735Y566029D01*
X753796Y565876D01*
X754864Y565800D01*
X755936Y565800D01*
X757004Y565876D01*
X758065Y566029D01*
X759112Y566257D01*
X760140Y566559D01*
X761144Y566933D01*
X762119Y567378D01*
X763059Y567892D01*
X763960Y568471D01*
X764818Y569113D01*
X765628Y569815D01*
X766385Y570572D01*
X767087Y571382D01*
X767729Y572240D01*
X768308Y573141D01*
X768822Y574081D01*
X769267Y575056D01*
X769641Y576060D01*
X769943Y577088D01*
X770171Y578135D01*
X770324Y579196D01*
X770400Y580264D01*
X770400Y581336D01*
X770324Y582404D01*
X770171Y583465D01*
X769943Y584512D01*
X769641Y585540D01*
X769267Y586544D01*
X768822Y587519D01*
X768308Y588459D01*
X767729Y589360D01*
X767087Y590218D01*
X766385Y591028D01*
X765628Y591785D01*
X764818Y592487D01*
X763960Y593129D01*
X763059Y593708D01*
X762119Y594222D01*
X761144Y594667D01*
X760140Y595041D01*
X759112Y595343D01*
X758065Y595571D01*
X757004Y595724D01*
X755936Y595800D01*
X754864Y595800D01*
X753796Y595724D01*
X752735Y595571D01*
X751688Y595343D01*
X750660Y595041D01*
X749656Y594667D01*
X748681Y594222D01*
X747741Y593708D01*
X746840Y593129D01*
X745982Y592487D01*
X745172Y591785D01*
X744415Y591028D01*
X743713Y590218D01*
X743071Y589360D01*
X742492Y588459D01*
X741978Y587519D01*
X741533Y586544D01*
X741159Y585540D01*
X740857Y584512D01*
X740629Y583465D01*
X740476Y582404D01*
X740400Y581336D01*
X740400Y580264D01*
X140000Y339396D02*
X140073Y338189D01*
X140219Y336989D01*
X140437Y335800D01*
X140726Y334627D01*
X141085Y333473D01*
X141514Y332343D01*
X142010Y331241D01*
X142572Y330170D01*
X143197Y329136D01*
X143884Y328141D01*
X144629Y327190D01*
X145431Y326285D01*
X146285Y325431D01*
X147190Y324629D01*
X148141Y323884D01*
X149136Y323197D01*
X150170Y322572D01*
X151241Y322010D01*
X152343Y321514D01*
X153473Y321085D01*
X154627Y320726D01*
X155800Y320437D01*
X156989Y320219D01*
X158189Y320073D01*
X159396Y320000D01*
X160604Y320000D01*
X161811Y320073D01*
X163011Y320219D01*
X164200Y320437D01*
X165373Y320726D01*
X166527Y321085D01*
X167657Y321514D01*
X168759Y322010D01*
X169830Y322572D01*
X170864Y323197D01*
X171859Y323884D01*
X172810Y324629D01*
X173715Y325431D01*
X174569Y326285D01*
X175371Y327190D01*
X176116Y328141D01*
X176803Y329136D01*
X177428Y330170D01*
X177990Y331241D01*
X178486Y332343D01*
X178915Y333473D01*
X179274Y334627D01*
X179563Y335800D01*
X179781Y336989D01*
X179927Y338189D01*
X180000Y339396D01*
X180000Y340604D01*
X179927Y341811D01*
X179781Y343011D01*
X179563Y344200D01*
X179274Y345373D01*
X178915Y346527D01*
X178486Y347657D01*
X177990Y348759D01*
X177428Y349830D01*
X176803Y350864D01*
X176116Y351859D01*
X175371Y352810D01*
X174569Y353715D01*
X173715Y354569D01*
X172810Y355371D01*
X171859Y356116D01*
X170864Y356803D01*
X169830Y357428D01*
X168759Y357990D01*
X167657Y358486D01*
X166527Y358915D01*
X165373Y359274D01*
X164200Y359563D01*
X163011Y359781D01*
X161811Y359927D01*
X160604Y360000D01*
X159396Y360000D01*
X158189Y359927D01*
X156989Y359781D01*
X155800Y359563D01*
X154627Y359274D01*
X153473Y358915D01*
X152343Y358486D01*
X151241Y357990D01*
X150170Y357428D01*
X149136Y356803D01*
X148141Y356116D01*
X147190Y355371D01*
X146285Y354569D01*
X145431Y353715D01*
X144629Y352810D01*
X143884Y351859D01*
X143197Y350864D01*
X142572Y349830D01*
X142010Y348759D01*
X141514Y347657D01*
X141085Y346527D01*
X140726Y345373D01*
X140437Y344200D01*
X140219Y343011D01*
X140073Y341811D01*
X140000Y340604D01*
X140000Y339396D01*
X100700Y339629D02*
X100765Y338889D01*
X100894Y338159D01*
X101086Y337442D01*
X101340Y336744D01*
X101653Y336071D01*
X102024Y335429D01*
X102450Y334821D01*
X102927Y334252D01*
X103452Y333727D01*
X104021Y333250D01*
X104629Y332824D01*
X105271Y332453D01*
X105944Y332140D01*
X106642Y331886D01*
X107359Y331694D01*
X108089Y331565D01*
X108829Y331500D01*
X109571Y331500D01*
X110311Y331565D01*
X111042Y331694D01*
X111758Y331886D01*
X112456Y332140D01*
X113129Y332453D01*
X113771Y332824D01*
X114379Y333250D01*
X114948Y333727D01*
X115473Y334252D01*
X115950Y334821D01*
X116376Y335429D01*
X116747Y336071D01*
X117060Y336744D01*
X117314Y337442D01*
X117506Y338159D01*
X117635Y338889D01*
X117700Y339629D01*
X117700Y340371D01*
X117635Y341111D01*
X117506Y341842D01*
X117314Y342558D01*
X117060Y343256D01*
X116747Y343929D01*
X116376Y344571D01*
X115950Y345179D01*
X115473Y345748D01*
X114948Y346273D01*
X114379Y346750D01*
X113771Y347176D01*
X113129Y347547D01*
X112456Y347860D01*
X111758Y348114D01*
X111042Y348306D01*
X110311Y348435D01*
X109571Y348500D01*
X108829Y348500D01*
X108089Y348435D01*
X107359Y348306D01*
X106642Y348114D01*
X105944Y347860D01*
X105271Y347547D01*
X104629Y347176D01*
X104021Y346750D01*
X103452Y346273D01*
X102927Y345748D01*
X102450Y345179D01*
X102024Y344571D01*
X101653Y343929D01*
X101340Y343256D01*
X101086Y342558D01*
X100894Y341842D01*
X100765Y341111D01*
X100700Y340371D01*
X100700Y339629D01*
X202300Y339629D02*
X202365Y338889D01*
X202494Y338159D01*
X202686Y337442D01*
X202940Y336744D01*
X203253Y336071D01*
X203624Y335429D01*
X204050Y334821D01*
X204527Y334252D01*
X205052Y333727D01*
X205621Y333250D01*
X206229Y332824D01*
X206871Y332453D01*
X207544Y332140D01*
X208242Y331886D01*
X208959Y331694D01*
X209689Y331565D01*
X210429Y331500D01*
X211171Y331500D01*
X211911Y331565D01*
X212642Y331694D01*
X213358Y331886D01*
X214056Y332140D01*
X214729Y332453D01*
X215371Y332824D01*
X215979Y333250D01*
X216548Y333727D01*
X217073Y334252D01*
X217550Y334821D01*
X217976Y335429D01*
X218347Y336071D01*
X218660Y336744D01*
X218914Y337442D01*
X219106Y338159D01*
X219235Y338889D01*
X219300Y339629D01*
X219300Y340371D01*
X219235Y341111D01*
X219106Y341842D01*
X218914Y342558D01*
X218660Y343256D01*
X218347Y343929D01*
X217976Y344571D01*
X217550Y345179D01*
X217073Y345748D01*
X216548Y346273D01*
X215979Y346750D01*
X215371Y347176D01*
X214729Y347547D01*
X214056Y347860D01*
X213358Y348114D01*
X212642Y348306D01*
X211911Y348435D01*
X211171Y348500D01*
X210429Y348500D01*
X209689Y348435D01*
X208959Y348306D01*
X208242Y348114D01*
X207544Y347860D01*
X206871Y347547D01*
X206229Y347176D01*
X205621Y346750D01*
X205052Y346273D01*
X204527Y345748D01*
X204050Y345179D01*
X203624Y344571D01*
X203253Y343929D01*
X202940Y343256D01*
X202686Y342558D01*
X202494Y341842D01*
X202365Y341111D01*
X202300Y340371D01*
X202300Y339629D01*
X106900Y364864D02*
X106976Y363796D01*
X107129Y362735D01*
X107357Y361688D01*
X107659Y360660D01*
X108033Y359656D01*
X108478Y358681D01*
X108992Y357741D01*
X109571Y356840D01*
X110213Y355982D01*
X110915Y355172D01*
X111672Y354415D01*
X112482Y353713D01*
X113340Y353071D01*
X114241Y352492D01*
X115181Y351978D01*
X116156Y351533D01*
X117160Y351159D01*
X118188Y350857D01*
X119235Y350629D01*
X120296Y350476D01*
X121364Y350400D01*
X122436Y350400D01*
X123504Y350476D01*
X124565Y350629D01*
X125612Y350857D01*
X126640Y351159D01*
X127644Y351533D01*
X128619Y351978D01*
X129559Y352492D01*
X130460Y353071D01*
X131318Y353713D01*
X132128Y354415D01*
X132885Y355172D01*
X133587Y355982D01*
X134229Y356840D01*
X134808Y357741D01*
X135322Y358681D01*
X135767Y359656D01*
X136141Y360660D01*
X136443Y361688D01*
X136671Y362735D01*
X136824Y363796D01*
X136900Y364864D01*
X136900Y365936D01*
X136824Y367004D01*
X136671Y368065D01*
X136443Y369112D01*
X136141Y370140D01*
X135767Y371144D01*
X135322Y372119D01*
X134808Y373059D01*
X134229Y373960D01*
X133587Y374818D01*
X132885Y375628D01*
X132128Y376385D01*
X131318Y377087D01*
X130460Y377729D01*
X129559Y378308D01*
X128619Y378822D01*
X127644Y379267D01*
X126640Y379641D01*
X125612Y379943D01*
X124565Y380171D01*
X123504Y380324D01*
X122436Y380400D01*
X121364Y380400D01*
X120296Y380324D01*
X119235Y380171D01*
X118188Y379943D01*
X117160Y379641D01*
X116156Y379267D01*
X115181Y378822D01*
X114241Y378308D01*
X113340Y377729D01*
X112482Y377087D01*
X111672Y376385D01*
X110915Y375628D01*
X110213Y374818D01*
X109571Y373960D01*
X108992Y373059D01*
X108478Y372119D01*
X108033Y371144D01*
X107659Y370140D01*
X107357Y369112D01*
X107129Y368065D01*
X106976Y367004D01*
X106900Y365936D01*
X106900Y364864D01*
X170400Y390264D02*
X170476Y389196D01*
X170629Y388135D01*
X170857Y387088D01*
X171159Y386060D01*
X171533Y385056D01*
X171978Y384081D01*
X172492Y383141D01*
X173071Y382240D01*
X173713Y381382D01*
X174415Y380572D01*
X175172Y379815D01*
X175982Y379113D01*
X176840Y378471D01*
X177741Y377892D01*
X178681Y377378D01*
X179656Y376933D01*
X180660Y376559D01*
X181688Y376257D01*
X182735Y376029D01*
X183796Y375876D01*
X184864Y375800D01*
X185936Y375800D01*
X187004Y375876D01*
X188065Y376029D01*
X189112Y376257D01*
X190140Y376559D01*
X191144Y376933D01*
X192119Y377378D01*
X193059Y377892D01*
X193960Y378471D01*
X194818Y379113D01*
X195628Y379815D01*
X196385Y380572D01*
X197087Y381382D01*
X197729Y382240D01*
X198308Y383141D01*
X198822Y384081D01*
X199267Y385056D01*
X199641Y386060D01*
X199943Y387088D01*
X200171Y388135D01*
X200324Y389196D01*
X200400Y390264D01*
X200400Y391336D01*
X200324Y392404D01*
X200171Y393465D01*
X199943Y394512D01*
X199641Y395540D01*
X199267Y396544D01*
X198822Y397519D01*
X198308Y398459D01*
X197729Y399360D01*
X197087Y400218D01*
X196385Y401028D01*
X195628Y401785D01*
X194818Y402487D01*
X193960Y403129D01*
X193059Y403708D01*
X192119Y404222D01*
X191144Y404667D01*
X190140Y405041D01*
X189112Y405343D01*
X188065Y405571D01*
X187004Y405724D01*
X185936Y405800D01*
X184864Y405800D01*
X183796Y405724D01*
X182735Y405571D01*
X181688Y405343D01*
X180660Y405041D01*
X179656Y404667D01*
X178681Y404222D01*
X177741Y403708D01*
X176840Y403129D01*
X175982Y402487D01*
X175172Y401785D01*
X174415Y401028D01*
X173713Y400218D01*
X173071Y399360D01*
X172492Y398459D01*
X171978Y397519D01*
X171533Y396544D01*
X171159Y395540D01*
X170857Y394512D01*
X170629Y393465D01*
X170476Y392404D01*
X170400Y391336D01*
X170400Y390264D01*
X330000Y339396D02*
X330073Y338189D01*
X330219Y336989D01*
X330437Y335800D01*
X330726Y334627D01*
X331085Y333473D01*
X331514Y332343D01*
X332010Y331241D01*
X332572Y330170D01*
X333197Y329136D01*
X333884Y328141D01*
X334629Y327190D01*
X335431Y326285D01*
X336285Y325431D01*
X337190Y324629D01*
X338141Y323884D01*
X339136Y323197D01*
X340170Y322572D01*
X341241Y322010D01*
X342343Y321514D01*
X343473Y321085D01*
X344627Y320726D01*
X345800Y320437D01*
X346989Y320219D01*
X348189Y320073D01*
X349396Y320000D01*
X350604Y320000D01*
X351811Y320073D01*
X353011Y320219D01*
X354200Y320437D01*
X355373Y320726D01*
X356527Y321085D01*
X357657Y321514D01*
X358759Y322010D01*
X359830Y322572D01*
X360864Y323197D01*
X361859Y323884D01*
X362810Y324629D01*
X363715Y325431D01*
X364569Y326285D01*
X365371Y327190D01*
X366116Y328141D01*
X366803Y329136D01*
X367428Y330170D01*
X367990Y331241D01*
X368486Y332343D01*
X368915Y333473D01*
X369274Y334627D01*
X369563Y335800D01*
X369781Y336989D01*
X369927Y338189D01*
X370000Y339396D01*
X370000Y340604D01*
X369927Y341811D01*
X369781Y343011D01*
X369563Y344200D01*
X369274Y345373D01*
X368915Y346527D01*
X368486Y347657D01*
X367990Y348759D01*
X367428Y349830D01*
X366803Y350864D01*
X366116Y351859D01*
X365371Y352810D01*
X364569Y353715D01*
X363715Y354569D01*
X362810Y355371D01*
X361859Y356116D01*
X360864Y356803D01*
X359830Y357428D01*
X358759Y357990D01*
X357657Y358486D01*
X356527Y358915D01*
X355373Y359274D01*
X354200Y359563D01*
X353011Y359781D01*
X351811Y359927D01*
X350604Y360000D01*
X349396Y360000D01*
X348189Y359927D01*
X346989Y359781D01*
X345800Y359563D01*
X344627Y359274D01*
X343473Y358915D01*
X342343Y358486D01*
X341241Y357990D01*
X340170Y357428D01*
X339136Y356803D01*
X338141Y356116D01*
X337190Y355371D01*
X336285Y354569D01*
X335431Y353715D01*
X334629Y352810D01*
X333884Y351859D01*
X333197Y350864D01*
X332572Y349830D01*
X332010Y348759D01*
X331514Y347657D01*
X331085Y346527D01*
X330726Y345373D01*
X330437Y344200D01*
X330219Y343011D01*
X330073Y341811D01*
X330000Y340604D01*
X330000Y339396D01*
X290700Y339629D02*
X290765Y338889D01*
X290894Y338159D01*
X291086Y337442D01*
X291340Y336744D01*
X291653Y336071D01*
X292024Y335429D01*
X292450Y334821D01*
X292927Y334252D01*
X293452Y333727D01*
X294021Y333250D01*
X294629Y332824D01*
X295271Y332453D01*
X295944Y332140D01*
X296642Y331886D01*
X297359Y331694D01*
X298089Y331565D01*
X298829Y331500D01*
X299571Y331500D01*
X300311Y331565D01*
X301042Y331694D01*
X301758Y331886D01*
X302456Y332140D01*
X303129Y332453D01*
X303771Y332824D01*
X304379Y333250D01*
X304948Y333727D01*
X305473Y334252D01*
X305950Y334821D01*
X306376Y335429D01*
X306747Y336071D01*
X307060Y336744D01*
X307314Y337442D01*
X307506Y338159D01*
X307635Y338889D01*
X307700Y339629D01*
X307700Y340371D01*
X307635Y341111D01*
X307506Y341842D01*
X307314Y342558D01*
X307060Y343256D01*
X306747Y343929D01*
X306376Y344571D01*
X305950Y345179D01*
X305473Y345748D01*
X304948Y346273D01*
X304379Y346750D01*
X303771Y347176D01*
X303129Y347547D01*
X302456Y347860D01*
X301758Y348114D01*
X301042Y348306D01*
X300311Y348435D01*
X299571Y348500D01*
X298829Y348500D01*
X298089Y348435D01*
X297359Y348306D01*
X296642Y348114D01*
X295944Y347860D01*
X295271Y347547D01*
X294629Y347176D01*
X294021Y346750D01*
X293452Y346273D01*
X292927Y345748D01*
X292450Y345179D01*
X292024Y344571D01*
X291653Y343929D01*
X291340Y343256D01*
X291086Y342558D01*
X290894Y341842D01*
X290765Y341111D01*
X290700Y340371D01*
X290700Y339629D01*
X392300Y339629D02*
X392365Y338889D01*
X392494Y338159D01*
X392686Y337442D01*
X392940Y336744D01*
X393253Y336071D01*
X393624Y335429D01*
X394050Y334821D01*
X394527Y334252D01*
X395052Y333727D01*
X395621Y333250D01*
X396229Y332824D01*
X396871Y332453D01*
X397544Y332140D01*
X398242Y331886D01*
X398959Y331694D01*
X399689Y331565D01*
X400429Y331500D01*
X401171Y331500D01*
X401911Y331565D01*
X402642Y331694D01*
X403358Y331886D01*
X404056Y332140D01*
X404729Y332453D01*
X405371Y332824D01*
X405979Y333250D01*
X406548Y333727D01*
X407073Y334252D01*
X407550Y334821D01*
X407976Y335429D01*
X408347Y336071D01*
X408660Y336744D01*
X408914Y337442D01*
X409106Y338159D01*
X409235Y338889D01*
X409300Y339629D01*
X409300Y340371D01*
X409235Y341111D01*
X409106Y341842D01*
X408914Y342558D01*
X408660Y343256D01*
X408347Y343929D01*
X407976Y344571D01*
X407550Y345179D01*
X407073Y345748D01*
X406548Y346273D01*
X405979Y346750D01*
X405371Y347176D01*
X404729Y347547D01*
X404056Y347860D01*
X403358Y348114D01*
X402642Y348306D01*
X401911Y348435D01*
X401171Y348500D01*
X400429Y348500D01*
X399689Y348435D01*
X398959Y348306D01*
X398242Y348114D01*
X397544Y347860D01*
X396871Y347547D01*
X396229Y347176D01*
X395621Y346750D01*
X395052Y346273D01*
X394527Y345748D01*
X394050Y345179D01*
X393624Y344571D01*
X393253Y343929D01*
X392940Y343256D01*
X392686Y342558D01*
X392494Y341842D01*
X392365Y341111D01*
X392300Y340371D01*
X392300Y339629D01*
X296900Y364864D02*
X296976Y363796D01*
X297129Y362735D01*
X297357Y361688D01*
X297659Y360660D01*
X298033Y359656D01*
X298478Y358681D01*
X298992Y357741D01*
X299571Y356840D01*
X300213Y355982D01*
X300915Y355172D01*
X301672Y354415D01*
X302482Y353713D01*
X303340Y353071D01*
X304241Y352492D01*
X305181Y351978D01*
X306156Y351533D01*
X307160Y351159D01*
X308188Y350857D01*
X309235Y350629D01*
X310296Y350476D01*
X311364Y350400D01*
X312436Y350400D01*
X313504Y350476D01*
X314565Y350629D01*
X315612Y350857D01*
X316640Y351159D01*
X317644Y351533D01*
X318619Y351978D01*
X319559Y352492D01*
X320460Y353071D01*
X321318Y353713D01*
X322128Y354415D01*
X322885Y355172D01*
X323587Y355982D01*
X324229Y356840D01*
X324808Y357741D01*
X325322Y358681D01*
X325767Y359656D01*
X326141Y360660D01*
X326443Y361688D01*
X326671Y362735D01*
X326824Y363796D01*
X326900Y364864D01*
X326900Y365936D01*
X326824Y367004D01*
X326671Y368065D01*
X326443Y369112D01*
X326141Y370140D01*
X325767Y371144D01*
X325322Y372119D01*
X324808Y373059D01*
X324229Y373960D01*
X323587Y374818D01*
X322885Y375628D01*
X322128Y376385D01*
X321318Y377087D01*
X320460Y377729D01*
X319559Y378308D01*
X318619Y378822D01*
X317644Y379267D01*
X316640Y379641D01*
X315612Y379943D01*
X314565Y380171D01*
X313504Y380324D01*
X312436Y380400D01*
X311364Y380400D01*
X310296Y380324D01*
X309235Y380171D01*
X308188Y379943D01*
X307160Y379641D01*
X306156Y379267D01*
X305181Y378822D01*
X304241Y378308D01*
X303340Y377729D01*
X302482Y377087D01*
X301672Y376385D01*
X300915Y375628D01*
X300213Y374818D01*
X299571Y373960D01*
X298992Y373059D01*
X298478Y372119D01*
X298033Y371144D01*
X297659Y370140D01*
X297357Y369112D01*
X297129Y368065D01*
X296976Y367004D01*
X296900Y365936D01*
X296900Y364864D01*
X360400Y390264D02*
X360476Y389196D01*
X360629Y388135D01*
X360857Y387088D01*
X361159Y386060D01*
X361533Y385056D01*
X361978Y384081D01*
X362492Y383141D01*
X363071Y382240D01*
X363713Y381382D01*
X364415Y380572D01*
X365172Y379815D01*
X365982Y379113D01*
X366840Y378471D01*
X367741Y377892D01*
X368681Y377378D01*
X369656Y376933D01*
X370660Y376559D01*
X371688Y376257D01*
X372735Y376029D01*
X373796Y375876D01*
X374864Y375800D01*
X375936Y375800D01*
X377004Y375876D01*
X378065Y376029D01*
X379112Y376257D01*
X380140Y376559D01*
X381144Y376933D01*
X382119Y377378D01*
X383059Y377892D01*
X383960Y378471D01*
X384818Y379113D01*
X385628Y379815D01*
X386385Y380572D01*
X387087Y381382D01*
X387729Y382240D01*
X388308Y383141D01*
X388822Y384081D01*
X389267Y385056D01*
X389641Y386060D01*
X389943Y387088D01*
X390171Y388135D01*
X390324Y389196D01*
X390400Y390264D01*
X390400Y391336D01*
X390324Y392404D01*
X390171Y393465D01*
X389943Y394512D01*
X389641Y395540D01*
X389267Y396544D01*
X388822Y397519D01*
X388308Y398459D01*
X387729Y399360D01*
X387087Y400218D01*
X386385Y401028D01*
X385628Y401785D01*
X384818Y402487D01*
X383960Y403129D01*
X383059Y403708D01*
X382119Y404222D01*
X381144Y404667D01*
X380140Y405041D01*
X379112Y405343D01*
X378065Y405571D01*
X377004Y405724D01*
X375936Y405800D01*
X374864Y405800D01*
X373796Y405724D01*
X372735Y405571D01*
X371688Y405343D01*
X370660Y405041D01*
X369656Y404667D01*
X368681Y404222D01*
X367741Y403708D01*
X366840Y403129D01*
X365982Y402487D01*
X365172Y401785D01*
X364415Y401028D01*
X363713Y400218D01*
X363071Y399360D01*
X362492Y398459D01*
X361978Y397519D01*
X361533Y396544D01*
X361159Y395540D01*
X360857Y394512D01*
X360629Y393465D01*
X360476Y392404D01*
X360400Y391336D01*
X360400Y390264D01*
X520000Y339396D02*
X520073Y338189D01*
X520219Y336989D01*
X520437Y335800D01*
X520726Y334627D01*
X521085Y333473D01*
X521514Y332343D01*
X522010Y331241D01*
X522572Y330170D01*
X523197Y329136D01*
X523884Y328141D01*
X524629Y327190D01*
X525431Y326285D01*
X526285Y325431D01*
X527190Y324629D01*
X528141Y323884D01*
X529136Y323197D01*
X530170Y322572D01*
X531241Y322010D01*
X532343Y321514D01*
X533473Y321085D01*
X534627Y320726D01*
X535800Y320437D01*
X536989Y320219D01*
X538189Y320073D01*
X539396Y320000D01*
X540604Y320000D01*
X541811Y320073D01*
X543011Y320219D01*
X544200Y320437D01*
X545373Y320726D01*
X546527Y321085D01*
X547657Y321514D01*
X548759Y322010D01*
X549830Y322572D01*
X550864Y323197D01*
X551859Y323884D01*
X552810Y324629D01*
X553715Y325431D01*
X554569Y326285D01*
X555371Y327190D01*
X556116Y328141D01*
X556803Y329136D01*
X557428Y330170D01*
X557990Y331241D01*
X558486Y332343D01*
X558915Y333473D01*
X559274Y334627D01*
X559563Y335800D01*
X559781Y336989D01*
X559927Y338189D01*
X560000Y339396D01*
X560000Y340604D01*
X559927Y341811D01*
X559781Y343011D01*
X559563Y344200D01*
X559274Y345373D01*
X558915Y346527D01*
X558486Y347657D01*
X557990Y348759D01*
X557428Y349830D01*
X556803Y350864D01*
X556116Y351859D01*
X555371Y352810D01*
X554569Y353715D01*
X553715Y354569D01*
X552810Y355371D01*
X551859Y356116D01*
X550864Y356803D01*
X549830Y357428D01*
X548759Y357990D01*
X547657Y358486D01*
X546527Y358915D01*
X545373Y359274D01*
X544200Y359563D01*
X543011Y359781D01*
X541811Y359927D01*
X540604Y360000D01*
X539396Y360000D01*
X538189Y359927D01*
X536989Y359781D01*
X535800Y359563D01*
X534627Y359274D01*
X533473Y358915D01*
X532343Y358486D01*
X531241Y357990D01*
X530170Y357428D01*
X529136Y356803D01*
X528141Y356116D01*
X527190Y355371D01*
X526285Y354569D01*
X525431Y353715D01*
X524629Y352810D01*
X523884Y351859D01*
X523197Y350864D01*
X522572Y349830D01*
X522010Y348759D01*
X521514Y347657D01*
X521085Y346527D01*
X520726Y345373D01*
X520437Y344200D01*
X520219Y343011D01*
X520073Y341811D01*
X520000Y340604D01*
X520000Y339396D01*
X480700Y339629D02*
X480765Y338889D01*
X480894Y338159D01*
X481086Y337442D01*
X481340Y336744D01*
X481653Y336071D01*
X482024Y335429D01*
X482450Y334821D01*
X482927Y334252D01*
X483452Y333727D01*
X484021Y333250D01*
X484629Y332824D01*
X485271Y332453D01*
X485944Y332140D01*
X486642Y331886D01*
X487359Y331694D01*
X488089Y331565D01*
X488829Y331500D01*
X489571Y331500D01*
X490311Y331565D01*
X491042Y331694D01*
X491758Y331886D01*
X492456Y332140D01*
X493129Y332453D01*
X493771Y332824D01*
X494379Y333250D01*
X494948Y333727D01*
X495473Y334252D01*
X495950Y334821D01*
X496376Y335429D01*
X496747Y336071D01*
X497060Y336744D01*
X497314Y337442D01*
X497506Y338159D01*
X497635Y338889D01*
X497700Y339629D01*
X497700Y340371D01*
X497635Y341111D01*
X497506Y341842D01*
X497314Y342558D01*
X497060Y343256D01*
X496747Y343929D01*
X496376Y344571D01*
X495950Y345179D01*
X495473Y345748D01*
X494948Y346273D01*
X494379Y346750D01*
X493771Y347176D01*
X493129Y347547D01*
X492456Y347860D01*
X491758Y348114D01*
X491042Y348306D01*
X490311Y348435D01*
X489571Y348500D01*
X488829Y348500D01*
X488089Y348435D01*
X487359Y348306D01*
X486642Y348114D01*
X485944Y347860D01*
X485271Y347547D01*
X484629Y347176D01*
X484021Y346750D01*
X483452Y346273D01*
X482927Y345748D01*
X482450Y345179D01*
X482024Y344571D01*
X481653Y343929D01*
X481340Y343256D01*
X481086Y342558D01*
X480894Y341842D01*
X480765Y341111D01*
X480700Y340371D01*
X480700Y339629D01*
X582300Y339629D02*
X582365Y338889D01*
X582494Y338159D01*
X582686Y337442D01*
X582940Y336744D01*
X583253Y336071D01*
X583624Y335429D01*
X584050Y334821D01*
X584527Y334252D01*
X585052Y333727D01*
X585621Y333250D01*
X586229Y332824D01*
X586871Y332453D01*
X587544Y332140D01*
X588242Y331886D01*
X588959Y331694D01*
X589689Y331565D01*
X590429Y331500D01*
X591171Y331500D01*
X591911Y331565D01*
X592642Y331694D01*
X593358Y331886D01*
X594056Y332140D01*
X594729Y332453D01*
X595371Y332824D01*
X595979Y333250D01*
X596548Y333727D01*
X597073Y334252D01*
X597550Y334821D01*
X597976Y335429D01*
X598347Y336071D01*
X598660Y336744D01*
X598914Y337442D01*
X599106Y338159D01*
X599235Y338889D01*
X599300Y339629D01*
X599300Y340371D01*
X599235Y341111D01*
X599106Y341842D01*
X598914Y342558D01*
X598660Y343256D01*
X598347Y343929D01*
X597976Y344571D01*
X597550Y345179D01*
X597073Y345748D01*
X596548Y346273D01*
X595979Y346750D01*
X595371Y347176D01*
X594729Y347547D01*
X594056Y347860D01*
X593358Y348114D01*
X592642Y348306D01*
X591911Y348435D01*
X591171Y348500D01*
X590429Y348500D01*
X589689Y348435D01*
X588959Y348306D01*
X588242Y348114D01*
X587544Y347860D01*
X586871Y347547D01*
X586229Y347176D01*
X585621Y346750D01*
X585052Y346273D01*
X584527Y345748D01*
X584050Y345179D01*
X583624Y344571D01*
X583253Y343929D01*
X582940Y343256D01*
X582686Y342558D01*
X582494Y341842D01*
X582365Y341111D01*
X582300Y340371D01*
X582300Y339629D01*
X486900Y364864D02*
X486976Y363796D01*
X487129Y362735D01*
X487357Y361688D01*
X487659Y360660D01*
X488033Y359656D01*
X488478Y358681D01*
X488992Y357741D01*
X489571Y356840D01*
X490213Y355982D01*
X490915Y355172D01*
X491672Y354415D01*
X492482Y353713D01*
X493340Y353071D01*
X494241Y352492D01*
X495181Y351978D01*
X496156Y351533D01*
X497160Y351159D01*
X498188Y350857D01*
X499235Y350629D01*
X500296Y350476D01*
X501364Y350400D01*
X502436Y350400D01*
X503504Y350476D01*
X504565Y350629D01*
X505612Y350857D01*
X506640Y351159D01*
X507644Y351533D01*
X508619Y351978D01*
X509559Y352492D01*
X510460Y353071D01*
X511318Y353713D01*
X512128Y354415D01*
X512885Y355172D01*
X513587Y355982D01*
X514229Y356840D01*
X514808Y357741D01*
X515322Y358681D01*
X515767Y359656D01*
X516141Y360660D01*
X516443Y361688D01*
X516671Y362735D01*
X516824Y363796D01*
X516900Y364864D01*
X516900Y365936D01*
X516824Y367004D01*
X516671Y368065D01*
X516443Y369112D01*
X516141Y370140D01*
X515767Y371144D01*
X515322Y372119D01*
X514808Y373059D01*
X514229Y373960D01*
X513587Y374818D01*
X512885Y375628D01*
X512128Y376385D01*
X511318Y377087D01*
X510460Y377729D01*
X509559Y378308D01*
X508619Y378822D01*
X507644Y379267D01*
X506640Y379641D01*
X505612Y379943D01*
X504565Y380171D01*
X503504Y380324D01*
X502436Y380400D01*
X501364Y380400D01*
X500296Y380324D01*
X499235Y380171D01*
X498188Y379943D01*
X497160Y379641D01*
X496156Y379267D01*
X495181Y378822D01*
X494241Y378308D01*
X493340Y377729D01*
X492482Y377087D01*
X491672Y376385D01*
X490915Y375628D01*
X490213Y374818D01*
X489571Y373960D01*
X488992Y373059D01*
X488478Y372119D01*
X488033Y371144D01*
X487659Y370140D01*
X487357Y369112D01*
X487129Y368065D01*
X486976Y367004D01*
X486900Y365936D01*
X486900Y364864D01*
X550400Y390264D02*
X550476Y389196D01*
X550629Y388135D01*
X550857Y387088D01*
X551159Y386060D01*
X551533Y385056D01*
X551978Y384081D01*
X552492Y383141D01*
X553071Y382240D01*
X553713Y381382D01*
X554415Y380572D01*
X555172Y379815D01*
X555982Y379113D01*
X556840Y378471D01*
X557741Y377892D01*
X558681Y377378D01*
X559656Y376933D01*
X560660Y376559D01*
X561688Y376257D01*
X562735Y376029D01*
X563796Y375876D01*
X564864Y375800D01*
X565936Y375800D01*
X567004Y375876D01*
X568065Y376029D01*
X569112Y376257D01*
X570140Y376559D01*
X571144Y376933D01*
X572119Y377378D01*
X573059Y377892D01*
X573960Y378471D01*
X574818Y379113D01*
X575628Y379815D01*
X576385Y380572D01*
X577087Y381382D01*
X577729Y382240D01*
X578308Y383141D01*
X578822Y384081D01*
X579267Y385056D01*
X579641Y386060D01*
X579943Y387088D01*
X580171Y388135D01*
X580324Y389196D01*
X580400Y390264D01*
X580400Y391336D01*
X580324Y392404D01*
X580171Y393465D01*
X579943Y394512D01*
X579641Y395540D01*
X579267Y396544D01*
X578822Y397519D01*
X578308Y398459D01*
X577729Y399360D01*
X577087Y400218D01*
X576385Y401028D01*
X575628Y401785D01*
X574818Y402487D01*
X573960Y403129D01*
X573059Y403708D01*
X572119Y404222D01*
X571144Y404667D01*
X570140Y405041D01*
X569112Y405343D01*
X568065Y405571D01*
X567004Y405724D01*
X565936Y405800D01*
X564864Y405800D01*
X563796Y405724D01*
X562735Y405571D01*
X561688Y405343D01*
X560660Y405041D01*
X559656Y404667D01*
X558681Y404222D01*
X557741Y403708D01*
X556840Y403129D01*
X555982Y402487D01*
X555172Y401785D01*
X554415Y401028D01*
X553713Y400218D01*
X553071Y399360D01*
X552492Y398459D01*
X551978Y397519D01*
X551533Y396544D01*
X551159Y395540D01*
X550857Y394512D01*
X550629Y393465D01*
X550476Y392404D01*
X550400Y391336D01*
X550400Y390264D01*
X710000Y339396D02*
X710073Y338189D01*
X710219Y336989D01*
X710437Y335800D01*
X710726Y334627D01*
X711085Y333473D01*
X711514Y332343D01*
X712010Y331241D01*
X712572Y330170D01*
X713197Y329136D01*
X713884Y328141D01*
X714629Y327190D01*
X715431Y326285D01*
X716285Y325431D01*
X717190Y324629D01*
X718141Y323884D01*
X719136Y323197D01*
X720170Y322572D01*
X721241Y322010D01*
X722343Y321514D01*
X723473Y321085D01*
X724627Y320726D01*
X725800Y320437D01*
X726989Y320219D01*
X728189Y320073D01*
X729396Y320000D01*
X730604Y320000D01*
X731811Y320073D01*
X733011Y320219D01*
X734200Y320437D01*
X735373Y320726D01*
X736527Y321085D01*
X737657Y321514D01*
X738759Y322010D01*
X739830Y322572D01*
X740864Y323197D01*
X741859Y323884D01*
X742810Y324629D01*
X743715Y325431D01*
X744569Y326285D01*
X745371Y327190D01*
X746116Y328141D01*
X746803Y329136D01*
X747428Y330170D01*
X747990Y331241D01*
X748486Y332343D01*
X748915Y333473D01*
X749274Y334627D01*
X749563Y335800D01*
X749781Y336989D01*
X749927Y338189D01*
X750000Y339396D01*
X750000Y340604D01*
X749927Y341811D01*
X749781Y343011D01*
X749563Y344200D01*
X749274Y345373D01*
X748915Y346527D01*
X748486Y347657D01*
X747990Y348759D01*
X747428Y349830D01*
X746803Y350864D01*
X746116Y351859D01*
X745371Y352810D01*
X744569Y353715D01*
X743715Y354569D01*
X742810Y355371D01*
X741859Y356116D01*
X740864Y356803D01*
X739830Y357428D01*
X738759Y357990D01*
X737657Y358486D01*
X736527Y358915D01*
X735373Y359274D01*
X734200Y359563D01*
X733011Y359781D01*
X731811Y359927D01*
X730604Y360000D01*
X729396Y360000D01*
X728189Y359927D01*
X726989Y359781D01*
X725800Y359563D01*
X724627Y359274D01*
X723473Y358915D01*
X722343Y358486D01*
X721241Y357990D01*
X720170Y357428D01*
X719136Y356803D01*
X718141Y356116D01*
X717190Y355371D01*
X716285Y354569D01*
X715431Y353715D01*
X714629Y352810D01*
X713884Y351859D01*
X713197Y350864D01*
X712572Y349830D01*
X712010Y348759D01*
X711514Y347657D01*
X711085Y346527D01*
X710726Y345373D01*
X710437Y344200D01*
X710219Y343011D01*
X710073Y341811D01*
X710000Y340604D01*
X710000Y339396D01*
X670700Y339629D02*
X670765Y338889D01*
X670894Y338159D01*
X671086Y337442D01*
X671340Y336744D01*
X671653Y336071D01*
X672024Y335429D01*
X672450Y334821D01*
X672927Y334252D01*
X673452Y333727D01*
X674021Y333250D01*
X674629Y332824D01*
X675271Y332453D01*
X675944Y332140D01*
X676642Y331886D01*
X677359Y331694D01*
X678089Y331565D01*
X678829Y331500D01*
X679571Y331500D01*
X680311Y331565D01*
X681042Y331694D01*
X681758Y331886D01*
X682456Y332140D01*
X683129Y332453D01*
X683771Y332824D01*
X684379Y333250D01*
X684948Y333727D01*
X685473Y334252D01*
X685950Y334821D01*
X686376Y335429D01*
X686747Y336071D01*
X687060Y336744D01*
X687314Y337442D01*
X687506Y338159D01*
X687635Y338889D01*
X687700Y339629D01*
X687700Y340371D01*
X687635Y341111D01*
X687506Y341842D01*
X687314Y342558D01*
X687060Y343256D01*
X686747Y343929D01*
X686376Y344571D01*
X685950Y345179D01*
X685473Y345748D01*
X684948Y346273D01*
X684379Y346750D01*
X683771Y347176D01*
X683129Y347547D01*
X682456Y347860D01*
X681758Y348114D01*
X681042Y348306D01*
X680311Y348435D01*
X679571Y348500D01*
X678829Y348500D01*
X678089Y348435D01*
X677359Y348306D01*
X676642Y348114D01*
X675944Y347860D01*
X675271Y347547D01*
X674629Y347176D01*
X674021Y346750D01*
X673452Y346273D01*
X672927Y345748D01*
X672450Y345179D01*
X672024Y344571D01*
X671653Y343929D01*
X671340Y343256D01*
X671086Y342558D01*
X670894Y341842D01*
X670765Y341111D01*
X670700Y340371D01*
X670700Y339629D01*
X772300Y339629D02*
X772365Y338889D01*
X772494Y338159D01*
X772686Y337442D01*
X772940Y336744D01*
X773253Y336071D01*
X773624Y335429D01*
X774050Y334821D01*
X774527Y334252D01*
X775052Y333727D01*
X775621Y333250D01*
X776229Y332824D01*
X776871Y332453D01*
X777544Y332140D01*
X778242Y331886D01*
X778959Y331694D01*
X779689Y331565D01*
X780429Y331500D01*
X781171Y331500D01*
X781911Y331565D01*
X782642Y331694D01*
X783358Y331886D01*
X784056Y332140D01*
X784729Y332453D01*
X785371Y332824D01*
X785979Y333250D01*
X786548Y333727D01*
X787073Y334252D01*
X787550Y334821D01*
X787976Y335429D01*
X788347Y336071D01*
X788660Y336744D01*
X788914Y337442D01*
X789106Y338159D01*
X789235Y338889D01*
X789300Y339629D01*
X789300Y340371D01*
X789235Y341111D01*
X789106Y341842D01*
X788914Y342558D01*
X788660Y343256D01*
X788347Y343929D01*
X787976Y344571D01*
X787550Y345179D01*
X787073Y345748D01*
X786548Y346273D01*
X785979Y346750D01*
X785371Y347176D01*
X784729Y347547D01*
X784056Y347860D01*
X783358Y348114D01*
X782642Y348306D01*
X781911Y348435D01*
X781171Y348500D01*
X780429Y348500D01*
X779689Y348435D01*
X778959Y348306D01*
X778242Y348114D01*
X777544Y347860D01*
X776871Y347547D01*
X776229Y347176D01*
X775621Y346750D01*
X775052Y346273D01*
X774527Y345748D01*
X774050Y345179D01*
X773624Y344571D01*
X773253Y343929D01*
X772940Y343256D01*
X772686Y342558D01*
X772494Y341842D01*
X772365Y341111D01*
X772300Y340371D01*
X772300Y339629D01*
X676900Y364864D02*
X676976Y363796D01*
X677129Y362735D01*
X677357Y361688D01*
X677659Y360660D01*
X678033Y359656D01*
X678478Y358681D01*
X678992Y357741D01*
X679571Y356840D01*
X680213Y355982D01*
X680915Y355172D01*
X681672Y354415D01*
X682482Y353713D01*
X683340Y353071D01*
X684241Y352492D01*
X685181Y351978D01*
X686156Y351533D01*
X687160Y351159D01*
X688188Y350857D01*
X689235Y350629D01*
X690296Y350476D01*
X691364Y350400D01*
X692436Y350400D01*
X693504Y350476D01*
X694565Y350629D01*
X695612Y350857D01*
X696640Y351159D01*
X697644Y351533D01*
X698619Y351978D01*
X699559Y352492D01*
X700460Y353071D01*
X701318Y353713D01*
X702128Y354415D01*
X702885Y355172D01*
X703587Y355982D01*
X704229Y356840D01*
X704808Y357741D01*
X705322Y358681D01*
X705767Y359656D01*
X706141Y360660D01*
X706443Y361688D01*
X706671Y362735D01*
X706824Y363796D01*
X706900Y364864D01*
X706900Y365936D01*
X706824Y367004D01*
X706671Y368065D01*
X706443Y369112D01*
X706141Y370140D01*
X705767Y371144D01*
X705322Y372119D01*
X704808Y373059D01*
X704229Y373960D01*
X703587Y374818D01*
X702885Y375628D01*
X702128Y376385D01*
X701318Y377087D01*
X700460Y377729D01*
X699559Y378308D01*
X698619Y378822D01*
X697644Y379267D01*
X696640Y379641D01*
X695612Y379943D01*
X694565Y380171D01*
X693504Y380324D01*
X692436Y380400D01*
X691364Y380400D01*
X690296Y380324D01*
X689235Y380171D01*
X688188Y379943D01*
X687160Y379641D01*
X686156Y379267D01*
X685181Y378822D01*
X684241Y378308D01*
X683340Y377729D01*
X682482Y377087D01*
X681672Y376385D01*
X680915Y375628D01*
X680213Y374818D01*
X679571Y373960D01*
X678992Y373059D01*
X678478Y372119D01*
X678033Y371144D01*
X677659Y370140D01*
X677357Y369112D01*
X677129Y368065D01*
X676976Y367004D01*
X676900Y365936D01*
X676900Y364864D01*
X740400Y390264D02*
X740476Y389196D01*
X740629Y388135D01*
X740857Y387088D01*
X741159Y386060D01*
X741533Y385056D01*
X741978Y384081D01*
X742492Y383141D01*
X743071Y382240D01*
X743713Y381382D01*
X744415Y380572D01*
X745172Y379815D01*
X745982Y379113D01*
X746840Y378471D01*
X747741Y377892D01*
X748681Y377378D01*
X749656Y376933D01*
X750660Y376559D01*
X751688Y376257D01*
X752735Y376029D01*
X753796Y375876D01*
X754864Y375800D01*
X755936Y375800D01*
X757004Y375876D01*
X758065Y376029D01*
X759112Y376257D01*
X760140Y376559D01*
X761144Y376933D01*
X762119Y377378D01*
X763059Y377892D01*
X763960Y378471D01*
X764818Y379113D01*
X765628Y379815D01*
X766385Y380572D01*
X767087Y381382D01*
X767729Y382240D01*
X768308Y383141D01*
X768822Y384081D01*
X769267Y385056D01*
X769641Y386060D01*
X769943Y387088D01*
X770171Y388135D01*
X770324Y389196D01*
X770400Y390264D01*
X770400Y391336D01*
X770324Y392404D01*
X770171Y393465D01*
X769943Y394512D01*
X769641Y395540D01*
X769267Y396544D01*
X768822Y397519D01*
X768308Y398459D01*
X767729Y399360D01*
X767087Y400218D01*
X766385Y401028D01*
X765628Y401785D01*
X764818Y402487D01*
X763960Y403129D01*
X763059Y403708D01*
X762119Y404222D01*
X761144Y404667D01*
X760140Y405041D01*
X759112Y405343D01*
X758065Y405571D01*
X757004Y405724D01*
X755936Y405800D01*
X754864Y405800D01*
X753796Y405724D01*
X752735Y405571D01*
X751688Y405343D01*
X750660Y405041D01*
X749656Y404667D01*
X748681Y404222D01*
X747741Y403708D01*
X746840Y403129D01*
X745982Y402487D01*
X745172Y401785D01*
X744415Y401028D01*
X743713Y400218D01*
X743071Y399360D01*
X742492Y398459D01*
X741978Y397519D01*
X741533Y396544D01*
X741159Y395540D01*
X740857Y394512D01*
X740629Y393465D01*
X740476Y392404D01*
X740400Y391336D01*
X740400Y390264D01*
X140000Y149396D02*
X140073Y148189D01*
X140219Y146989D01*
X140437Y145800D01*
X140726Y144627D01*
X141085Y143473D01*
X141514Y142343D01*
X142010Y141241D01*
X142572Y140170D01*
X143197Y139136D01*
X143884Y138141D01*
X144629Y137190D01*
X145431Y136285D01*
X146285Y135431D01*
X147190Y134629D01*
X148141Y133884D01*
X149136Y133197D01*
X150170Y132572D01*
X151241Y132010D01*
X152343Y131514D01*
X153473Y131085D01*
X154627Y130726D01*
X155800Y130437D01*
X156989Y130219D01*
X158189Y130073D01*
X159396Y130000D01*
X160604Y130000D01*
X161811Y130073D01*
X163011Y130219D01*
X164200Y130437D01*
X165373Y130726D01*
X166527Y131085D01*
X167657Y131514D01*
X168759Y132010D01*
X169830Y132572D01*
X170864Y133197D01*
X171859Y133884D01*
X172810Y134629D01*
X173715Y135431D01*
X174569Y136285D01*
X175371Y137190D01*
X176116Y138141D01*
X176803Y139136D01*
X177428Y140170D01*
X177990Y141241D01*
X178486Y142343D01*
X178915Y143473D01*
X179274Y144627D01*
X179563Y145800D01*
X179781Y146989D01*
X179927Y148189D01*
X180000Y149396D01*
X180000Y150604D01*
X179927Y151811D01*
X179781Y153011D01*
X179563Y154200D01*
X179274Y155373D01*
X178915Y156527D01*
X178486Y157657D01*
X177990Y158759D01*
X177428Y159830D01*
X176803Y160864D01*
X176116Y161859D01*
X175371Y162810D01*
X174569Y163715D01*
X173715Y164569D01*
X172810Y165371D01*
X171859Y166116D01*
X170864Y166803D01*
X169830Y167428D01*
X168759Y167990D01*
X167657Y168486D01*
X166527Y168915D01*
X165373Y169274D01*
X164200Y169563D01*
X163011Y169781D01*
X161811Y169927D01*
X160604Y170000D01*
X159396Y170000D01*
X158189Y169927D01*
X156989Y169781D01*
X155800Y169563D01*
X154627Y169274D01*
X153473Y168915D01*
X152343Y168486D01*
X151241Y167990D01*
X150170Y167428D01*
X149136Y166803D01*
X148141Y166116D01*
X147190Y165371D01*
X146285Y164569D01*
X145431Y163715D01*
X144629Y162810D01*
X143884Y161859D01*
X143197Y160864D01*
X142572Y159830D01*
X142010Y158759D01*
X141514Y157657D01*
X141085Y156527D01*
X140726Y155373D01*
X140437Y154200D01*
X140219Y153011D01*
X140073Y151811D01*
X140000Y150604D01*
X140000Y149396D01*
X100700Y149629D02*
X100765Y148889D01*
X100894Y148159D01*
X101086Y147442D01*
X101340Y146744D01*
X101653Y146071D01*
X102024Y145429D01*
X102450Y144821D01*
X102927Y144252D01*
X103452Y143727D01*
X104021Y143250D01*
X104629Y142824D01*
X105271Y142453D01*
X105944Y142140D01*
X106642Y141886D01*
X107359Y141694D01*
X108089Y141565D01*
X108829Y141500D01*
X109571Y141500D01*
X110311Y141565D01*
X111042Y141694D01*
X111758Y141886D01*
X112456Y142140D01*
X113129Y142453D01*
X113771Y142824D01*
X114379Y143250D01*
X114948Y143727D01*
X115473Y144252D01*
X115950Y144821D01*
X116376Y145429D01*
X116747Y146071D01*
X117060Y146744D01*
X117314Y147442D01*
X117506Y148159D01*
X117635Y148889D01*
X117700Y149629D01*
X117700Y150371D01*
X117635Y151111D01*
X117506Y151842D01*
X117314Y152558D01*
X117060Y153256D01*
X116747Y153929D01*
X116376Y154571D01*
X115950Y155179D01*
X115473Y155748D01*
X114948Y156273D01*
X114379Y156750D01*
X113771Y157176D01*
X113129Y157547D01*
X112456Y157860D01*
X111758Y158114D01*
X111042Y158306D01*
X110311Y158435D01*
X109571Y158500D01*
X108829Y158500D01*
X108089Y158435D01*
X107359Y158306D01*
X106642Y158114D01*
X105944Y157860D01*
X105271Y157547D01*
X104629Y157176D01*
X104021Y156750D01*
X103452Y156273D01*
X102927Y155748D01*
X102450Y155179D01*
X102024Y154571D01*
X101653Y153929D01*
X101340Y153256D01*
X101086Y152558D01*
X100894Y151842D01*
X100765Y151111D01*
X100700Y150371D01*
X100700Y149629D01*
X202300Y149629D02*
X202365Y148889D01*
X202494Y148159D01*
X202686Y147442D01*
X202940Y146744D01*
X203253Y146071D01*
X203624Y145429D01*
X204050Y144821D01*
X204527Y144252D01*
X205052Y143727D01*
X205621Y143250D01*
X206229Y142824D01*
X206871Y142453D01*
X207544Y142140D01*
X208242Y141886D01*
X208959Y141694D01*
X209689Y141565D01*
X210429Y141500D01*
X211171Y141500D01*
X211911Y141565D01*
X212642Y141694D01*
X213358Y141886D01*
X214056Y142140D01*
X214729Y142453D01*
X215371Y142824D01*
X215979Y143250D01*
X216548Y143727D01*
X217073Y144252D01*
X217550Y144821D01*
X217976Y145429D01*
X218347Y146071D01*
X218660Y146744D01*
X218914Y147442D01*
X219106Y148159D01*
X219235Y148889D01*
X219300Y149629D01*
X219300Y150371D01*
X219235Y151111D01*
X219106Y151842D01*
X218914Y152558D01*
X218660Y153256D01*
X218347Y153929D01*
X217976Y154571D01*
X217550Y155179D01*
X217073Y155748D01*
X216548Y156273D01*
X215979Y156750D01*
X215371Y157176D01*
X214729Y157547D01*
X214056Y157860D01*
X213358Y158114D01*
X212642Y158306D01*
X211911Y158435D01*
X211171Y158500D01*
X210429Y158500D01*
X209689Y158435D01*
X208959Y158306D01*
X208242Y158114D01*
X207544Y157860D01*
X206871Y157547D01*
X206229Y157176D01*
X205621Y156750D01*
X205052Y156273D01*
X204527Y155748D01*
X204050Y155179D01*
X203624Y154571D01*
X203253Y153929D01*
X202940Y153256D01*
X202686Y152558D01*
X202494Y151842D01*
X202365Y151111D01*
X202300Y150371D01*
X202300Y149629D01*
X106900Y174864D02*
X106976Y173796D01*
X107129Y172735D01*
X107357Y171688D01*
X107659Y170660D01*
X108033Y169656D01*
X108478Y168681D01*
X108992Y167741D01*
X109571Y166840D01*
X110213Y165982D01*
X110915Y165172D01*
X111672Y164415D01*
X112482Y163713D01*
X113340Y163071D01*
X114241Y162492D01*
X115181Y161978D01*
X116156Y161533D01*
X117160Y161159D01*
X118188Y160857D01*
X119235Y160629D01*
X120296Y160476D01*
X121364Y160400D01*
X122436Y160400D01*
X123504Y160476D01*
X124565Y160629D01*
X125612Y160857D01*
X126640Y161159D01*
X127644Y161533D01*
X128619Y161978D01*
X129559Y162492D01*
X130460Y163071D01*
X131318Y163713D01*
X132128Y164415D01*
X132885Y165172D01*
X133587Y165982D01*
X134229Y166840D01*
X134808Y167741D01*
X135322Y168681D01*
X135767Y169656D01*
X136141Y170660D01*
X136443Y171688D01*
X136671Y172735D01*
X136824Y173796D01*
X136900Y174864D01*
X136900Y175936D01*
X136824Y177004D01*
X136671Y178065D01*
X136443Y179112D01*
X136141Y180140D01*
X135767Y181144D01*
X135322Y182119D01*
X134808Y183059D01*
X134229Y183960D01*
X133587Y184818D01*
X132885Y185628D01*
X132128Y186385D01*
X131318Y187087D01*
X130460Y187729D01*
X129559Y188308D01*
X128619Y188822D01*
X127644Y189267D01*
X126640Y189641D01*
X125612Y189943D01*
X124565Y190171D01*
X123504Y190324D01*
X122436Y190400D01*
X121364Y190400D01*
X120296Y190324D01*
X119235Y190171D01*
X118188Y189943D01*
X117160Y189641D01*
X116156Y189267D01*
X115181Y188822D01*
X114241Y188308D01*
X113340Y187729D01*
X112482Y187087D01*
X111672Y186385D01*
X110915Y185628D01*
X110213Y184818D01*
X109571Y183960D01*
X108992Y183059D01*
X108478Y182119D01*
X108033Y181144D01*
X107659Y180140D01*
X107357Y179112D01*
X107129Y178065D01*
X106976Y177004D01*
X106900Y175936D01*
X106900Y174864D01*
X170400Y200264D02*
X170476Y199196D01*
X170629Y198135D01*
X170857Y197088D01*
X171159Y196060D01*
X171533Y195056D01*
X171978Y194081D01*
X172492Y193141D01*
X173071Y192240D01*
X173713Y191382D01*
X174415Y190572D01*
X175172Y189815D01*
X175982Y189113D01*
X176840Y188471D01*
X177741Y187892D01*
X178681Y187378D01*
X179656Y186933D01*
X180660Y186559D01*
X181688Y186257D01*
X182735Y186029D01*
X183796Y185876D01*
X184864Y185800D01*
X185936Y185800D01*
X187004Y185876D01*
X188065Y186029D01*
X189112Y186257D01*
X190140Y186559D01*
X191144Y186933D01*
X192119Y187378D01*
X193059Y187892D01*
X193960Y188471D01*
X194818Y189113D01*
X195628Y189815D01*
X196385Y190572D01*
X197087Y191382D01*
X197729Y192240D01*
X198308Y193141D01*
X198822Y194081D01*
X199267Y195056D01*
X199641Y196060D01*
X199943Y197088D01*
X200171Y198135D01*
X200324Y199196D01*
X200400Y200264D01*
X200400Y201336D01*
X200324Y202404D01*
X200171Y203465D01*
X199943Y204512D01*
X199641Y205540D01*
X199267Y206544D01*
X198822Y207519D01*
X198308Y208459D01*
X197729Y209360D01*
X197087Y210218D01*
X196385Y211028D01*
X195628Y211785D01*
X194818Y212487D01*
X193960Y213129D01*
X193059Y213708D01*
X192119Y214222D01*
X191144Y214667D01*
X190140Y215041D01*
X189112Y215343D01*
X188065Y215571D01*
X187004Y215724D01*
X185936Y215800D01*
X184864Y215800D01*
X183796Y215724D01*
X182735Y215571D01*
X181688Y215343D01*
X180660Y215041D01*
X179656Y214667D01*
X178681Y214222D01*
X177741Y213708D01*
X176840Y213129D01*
X175982Y212487D01*
X175172Y211785D01*
X174415Y211028D01*
X173713Y210218D01*
X173071Y209360D01*
X172492Y208459D01*
X171978Y207519D01*
X171533Y206544D01*
X171159Y205540D01*
X170857Y204512D01*
X170629Y203465D01*
X170476Y202404D01*
X170400Y201336D01*
X170400Y200264D01*
X330000Y149396D02*
X330073Y148189D01*
X330219Y146989D01*
X330437Y145800D01*
X330726Y144627D01*
X331085Y143473D01*
X331514Y142343D01*
X332010Y141241D01*
X332572Y140170D01*
X333197Y139136D01*
X333884Y138141D01*
X334629Y137190D01*
X335431Y136285D01*
X336285Y135431D01*
X337190Y134629D01*
X338141Y133884D01*
X339136Y133197D01*
X340170Y132572D01*
X341241Y132010D01*
X342343Y131514D01*
X343473Y131085D01*
X344627Y130726D01*
X345800Y130437D01*
X346989Y130219D01*
X348189Y130073D01*
X349396Y130000D01*
X350604Y130000D01*
X351811Y130073D01*
X353011Y130219D01*
X354200Y130437D01*
X355373Y130726D01*
X356527Y131085D01*
X357657Y131514D01*
X358759Y132010D01*
X359830Y132572D01*
X360864Y133197D01*
X361859Y133884D01*
X362810Y134629D01*
X363715Y135431D01*
X364569Y136285D01*
X365371Y137190D01*
X366116Y138141D01*
X366803Y139136D01*
X367428Y140170D01*
X367990Y141241D01*
X368486Y142343D01*
X368915Y143473D01*
X369274Y144627D01*
X369563Y145800D01*
X369781Y146989D01*
X369927Y148189D01*
X370000Y149396D01*
X370000Y150604D01*
X369927Y151811D01*
X369781Y153011D01*
X369563Y154200D01*
X369274Y155373D01*
X368915Y156527D01*
X368486Y157657D01*
X367990Y158759D01*
X367428Y159830D01*
X366803Y160864D01*
X366116Y161859D01*
X365371Y162810D01*
X364569Y163715D01*
X363715Y164569D01*
X362810Y165371D01*
X361859Y166116D01*
X360864Y166803D01*
X359830Y167428D01*
X358759Y167990D01*
X357657Y168486D01*
X356527Y168915D01*
X355373Y169274D01*
X354200Y169563D01*
X353011Y169781D01*
X351811Y169927D01*
X350604Y170000D01*
X349396Y170000D01*
X348189Y169927D01*
X346989Y169781D01*
X345800Y169563D01*
X344627Y169274D01*
X343473Y168915D01*
X342343Y168486D01*
X341241Y167990D01*
X340170Y167428D01*
X339136Y166803D01*
X338141Y166116D01*
X337190Y165371D01*
X336285Y164569D01*
X335431Y163715D01*
X334629Y162810D01*
X333884Y161859D01*
X333197Y160864D01*
X332572Y159830D01*
X332010Y158759D01*
X331514Y157657D01*
X331085Y156527D01*
X330726Y155373D01*
X330437Y154200D01*
X330219Y153011D01*
X330073Y151811D01*
X330000Y150604D01*
X330000Y149396D01*
X290700Y149629D02*
X290765Y148889D01*
X290894Y148159D01*
X291086Y147442D01*
X291340Y146744D01*
X291653Y146071D01*
X292024Y145429D01*
X292450Y144821D01*
X292927Y144252D01*
X293452Y143727D01*
X294021Y143250D01*
X294629Y142824D01*
X295271Y142453D01*
X295944Y142140D01*
X296642Y141886D01*
X297359Y141694D01*
X298089Y141565D01*
X298829Y141500D01*
X299571Y141500D01*
X300311Y141565D01*
X301042Y141694D01*
X301758Y141886D01*
X302456Y142140D01*
X303129Y142453D01*
X303771Y142824D01*
X304379Y143250D01*
X304948Y143727D01*
X305473Y144252D01*
X305950Y144821D01*
X306376Y145429D01*
X306747Y146071D01*
X307060Y146744D01*
X307314Y147442D01*
X307506Y148159D01*
X307635Y148889D01*
X307700Y149629D01*
X307700Y150371D01*
X307635Y151111D01*
X307506Y151842D01*
X307314Y152558D01*
X307060Y153256D01*
X306747Y153929D01*
X306376Y154571D01*
X305950Y155179D01*
X305473Y155748D01*
X304948Y156273D01*
X304379Y156750D01*
X303771Y157176D01*
X303129Y157547D01*
X302456Y157860D01*
X301758Y158114D01*
X301042Y158306D01*
X300311Y158435D01*
X299571Y158500D01*
X298829Y158500D01*
X298089Y158435D01*
X297359Y158306D01*
X296642Y158114D01*
X295944Y157860D01*
X295271Y157547D01*
X294629Y157176D01*
X294021Y156750D01*
X293452Y156273D01*
X292927Y155748D01*
X292450Y155179D01*
X292024Y154571D01*
X291653Y153929D01*
X291340Y153256D01*
X291086Y152558D01*
X290894Y151842D01*
X290765Y151111D01*
X290700Y150371D01*
X290700Y149629D01*
X392300Y149629D02*
X392365Y148889D01*
X392494Y148159D01*
X392686Y147442D01*
X392940Y146744D01*
X393253Y146071D01*
X393624Y145429D01*
X394050Y144821D01*
X394527Y144252D01*
X395052Y143727D01*
X395621Y143250D01*
X396229Y142824D01*
X396871Y142453D01*
X397544Y142140D01*
X398242Y141886D01*
X398959Y141694D01*
X399689Y141565D01*
X400429Y141500D01*
X401171Y141500D01*
X401911Y141565D01*
X402642Y141694D01*
X403358Y141886D01*
X404056Y142140D01*
X404729Y142453D01*
X405371Y142824D01*
X405979Y143250D01*
X406548Y143727D01*
X407073Y144252D01*
X407550Y144821D01*
X407976Y145429D01*
X408347Y146071D01*
X408660Y146744D01*
X408914Y147442D01*
X409106Y148159D01*
X409235Y148889D01*
X409300Y149629D01*
X409300Y150371D01*
X409235Y151111D01*
X409106Y151842D01*
X408914Y152558D01*
X408660Y153256D01*
X408347Y153929D01*
X407976Y154571D01*
X407550Y155179D01*
X407073Y155748D01*
X406548Y156273D01*
X405979Y156750D01*
X405371Y157176D01*
X404729Y157547D01*
X404056Y157860D01*
X403358Y158114D01*
X402642Y158306D01*
X401911Y158435D01*
X401171Y158500D01*
X400429Y158500D01*
X399689Y158435D01*
X398959Y158306D01*
X398242Y158114D01*
X397544Y157860D01*
X396871Y157547D01*
X396229Y157176D01*
X395621Y156750D01*
X395052Y156273D01*
X394527Y155748D01*
X394050Y155179D01*
X393624Y154571D01*
X393253Y153929D01*
X392940Y153256D01*
X392686Y152558D01*
X392494Y151842D01*
X392365Y151111D01*
X392300Y150371D01*
X392300Y149629D01*
X296900Y174864D02*
X296976Y173796D01*
X297129Y172735D01*
X297357Y171688D01*
X297659Y170660D01*
X298033Y169656D01*
X298478Y168681D01*
X298992Y167741D01*
X299571Y166840D01*
X300213Y165982D01*
X300915Y165172D01*
X301672Y164415D01*
X302482Y163713D01*
X303340Y163071D01*
X304241Y162492D01*
X305181Y161978D01*
X306156Y161533D01*
X307160Y161159D01*
X308188Y160857D01*
X309235Y160629D01*
X310296Y160476D01*
X311364Y160400D01*
X312436Y160400D01*
X313504Y160476D01*
X314565Y160629D01*
X315612Y160857D01*
X316640Y161159D01*
X317644Y161533D01*
X318619Y161978D01*
X319559Y162492D01*
X320460Y163071D01*
X321318Y163713D01*
X322128Y164415D01*
X322885Y165172D01*
X323587Y165982D01*
X324229Y166840D01*
X324808Y167741D01*
X325322Y168681D01*
X325767Y169656D01*
X326141Y170660D01*
X326443Y171688D01*
X326671Y172735D01*
X326824Y173796D01*
X326900Y174864D01*
X326900Y175936D01*
X326824Y177004D01*
X326671Y178065D01*
X326443Y179112D01*
X326141Y180140D01*
X325767Y181144D01*
X325322Y182119D01*
X324808Y183059D01*
X324229Y183960D01*
X323587Y184818D01*
X322885Y185628D01*
X322128Y186385D01*
X321318Y187087D01*
X320460Y187729D01*
X319559Y188308D01*
X318619Y188822D01*
X317644Y189267D01*
X316640Y189641D01*
X315612Y189943D01*
X314565Y190171D01*
X313504Y190324D01*
X312436Y190400D01*
X311364Y190400D01*
X310296Y190324D01*
X309235Y190171D01*
X308188Y189943D01*
X307160Y189641D01*
X306156Y189267D01*
X305181Y188822D01*
X304241Y188308D01*
X303340Y187729D01*
X302482Y187087D01*
X301672Y186385D01*
X300915Y185628D01*
X300213Y184818D01*
X299571Y183960D01*
X298992Y183059D01*
X298478Y182119D01*
X298033Y181144D01*
X297659Y180140D01*
X297357Y179112D01*
X297129Y178065D01*
X296976Y177004D01*
X296900Y175936D01*
X296900Y174864D01*
X360400Y200264D02*
X360476Y199196D01*
X360629Y198135D01*
X360857Y197088D01*
X361159Y196060D01*
X361533Y195056D01*
X361978Y194081D01*
X362492Y193141D01*
X363071Y192240D01*
X363713Y191382D01*
X364415Y190572D01*
X365172Y189815D01*
X365982Y189113D01*
X366840Y188471D01*
X367741Y187892D01*
X368681Y187378D01*
X369656Y186933D01*
X370660Y186559D01*
X371688Y186257D01*
X372735Y186029D01*
X373796Y185876D01*
X374864Y185800D01*
X375936Y185800D01*
X377004Y185876D01*
X378065Y186029D01*
X379112Y186257D01*
X380140Y186559D01*
X381144Y186933D01*
X382119Y187378D01*
X383059Y187892D01*
X383960Y188471D01*
X384818Y189113D01*
X385628Y189815D01*
X386385Y190572D01*
X387087Y191382D01*
X387729Y192240D01*
X388308Y193141D01*
X388822Y194081D01*
X389267Y195056D01*
X389641Y196060D01*
X389943Y197088D01*
X390171Y198135D01*
X390324Y199196D01*
X390400Y200264D01*
X390400Y201336D01*
X390324Y202404D01*
X390171Y203465D01*
X389943Y204512D01*
X389641Y205540D01*
X389267Y206544D01*
X388822Y207519D01*
X388308Y208459D01*
X387729Y209360D01*
X387087Y210218D01*
X386385Y211028D01*
X385628Y211785D01*
X384818Y212487D01*
X383960Y213129D01*
X383059Y213708D01*
X382119Y214222D01*
X381144Y214667D01*
X380140Y215041D01*
X379112Y215343D01*
X378065Y215571D01*
X377004Y215724D01*
X375936Y215800D01*
X374864Y215800D01*
X373796Y215724D01*
X372735Y215571D01*
X371688Y215343D01*
X370660Y215041D01*
X369656Y214667D01*
X368681Y214222D01*
X367741Y213708D01*
X366840Y213129D01*
X365982Y212487D01*
X365172Y211785D01*
X364415Y211028D01*
X363713Y210218D01*
X363071Y209360D01*
X362492Y208459D01*
X361978Y207519D01*
X361533Y206544D01*
X361159Y205540D01*
X360857Y204512D01*
X360629Y203465D01*
X360476Y202404D01*
X360400Y201336D01*
X360400Y200264D01*
X520000Y149396D02*
X520073Y148189D01*
X520219Y146989D01*
X520437Y145800D01*
X520726Y144627D01*
X521085Y143473D01*
X521514Y142343D01*
X522010Y141241D01*
X522572Y140170D01*
X523197Y139136D01*
X523884Y138141D01*
X524629Y137190D01*
X525431Y136285D01*
X526285Y135431D01*
X527190Y134629D01*
X528141Y133884D01*
X529136Y133197D01*
X530170Y132572D01*
X531241Y132010D01*
X532343Y131514D01*
X533473Y131085D01*
X534627Y130726D01*
X535800Y130437D01*
X536989Y130219D01*
X538189Y130073D01*
X539396Y130000D01*
X540604Y130000D01*
X541811Y130073D01*
X543011Y130219D01*
X544200Y130437D01*
X545373Y130726D01*
X546527Y131085D01*
X547657Y131514D01*
X548759Y132010D01*
X549830Y132572D01*
X550864Y133197D01*
X551859Y133884D01*
X552810Y134629D01*
X553715Y135431D01*
X554569Y136285D01*
X555371Y137190D01*
X556116Y138141D01*
X556803Y139136D01*
X557428Y140170D01*
X557990Y141241D01*
X558486Y142343D01*
X558915Y143473D01*
X559274Y144627D01*
X559563Y145800D01*
X559781Y146989D01*
X559927Y148189D01*
X560000Y149396D01*
X560000Y150604D01*
X559927Y151811D01*
X559781Y153011D01*
X559563Y154200D01*
X559274Y155373D01*
X558915Y156527D01*
X558486Y157657D01*
X557990Y158759D01*
X557428Y159830D01*
X556803Y160864D01*
X556116Y161859D01*
X555371Y162810D01*
X554569Y163715D01*
X553715Y164569D01*
X552810Y165371D01*
X551859Y166116D01*
X550864Y166803D01*
X549830Y167428D01*
X548759Y167990D01*
X547657Y168486D01*
X546527Y168915D01*
X545373Y169274D01*
X544200Y169563D01*
X543011Y169781D01*
X541811Y169927D01*
X540604Y170000D01*
X539396Y170000D01*
X538189Y169927D01*
X536989Y169781D01*
X535800Y169563D01*
X534627Y169274D01*
X533473Y168915D01*
X532343Y168486D01*
X531241Y167990D01*
X530170Y167428D01*
X529136Y166803D01*
X528141Y166116D01*
X527190Y165371D01*
X526285Y164569D01*
X525431Y163715D01*
X524629Y162810D01*
X523884Y161859D01*
X523197Y160864D01*
X522572Y159830D01*
X522010Y158759D01*
X521514Y157657D01*
X521085Y156527D01*
X520726Y155373D01*
X520437Y154200D01*
X520219Y153011D01*
X520073Y151811D01*
X520000Y150604D01*
X520000Y149396D01*
X480700Y149629D02*
X480765Y148889D01*
X480894Y148159D01*
X481086Y147442D01*
X481340Y146744D01*
X481653Y146071D01*
X482024Y145429D01*
X482450Y144821D01*
X482927Y144252D01*
X483452Y143727D01*
X484021Y143250D01*
X484629Y142824D01*
X485271Y142453D01*
X485944Y142140D01*
X486642Y141886D01*
X487359Y141694D01*
X488089Y141565D01*
X488829Y141500D01*
X489571Y141500D01*
X490311Y141565D01*
X491042Y141694D01*
X491758Y141886D01*
X492456Y142140D01*
X493129Y142453D01*
X493771Y142824D01*
X494379Y143250D01*
X494948Y143727D01*
X495473Y144252D01*
X495950Y144821D01*
X496376Y145429D01*
X496747Y146071D01*
X497060Y146744D01*
X497314Y147442D01*
X497506Y148159D01*
X497635Y148889D01*
X497700Y149629D01*
X497700Y150371D01*
X497635Y151111D01*
X497506Y151842D01*
X497314Y152558D01*
X497060Y153256D01*
X496747Y153929D01*
X496376Y154571D01*
X495950Y155179D01*
X495473Y155748D01*
X494948Y156273D01*
X494379Y156750D01*
X493771Y157176D01*
X493129Y157547D01*
X492456Y157860D01*
X491758Y158114D01*
X491042Y158306D01*
X490311Y158435D01*
X489571Y158500D01*
X488829Y158500D01*
X488089Y158435D01*
X487359Y158306D01*
X486642Y158114D01*
X485944Y157860D01*
X485271Y157547D01*
X484629Y157176D01*
X484021Y156750D01*
X483452Y156273D01*
X482927Y155748D01*
X482450Y155179D01*
X482024Y154571D01*
X481653Y153929D01*
X481340Y153256D01*
X481086Y152558D01*
X480894Y151842D01*
X480765Y151111D01*
X480700Y150371D01*
X480700Y149629D01*
X582300Y149629D02*
X582365Y148889D01*
X582494Y148159D01*
X582686Y147442D01*
X582940Y146744D01*
X583253Y146071D01*
X583624Y145429D01*
X584050Y144821D01*
X584527Y144252D01*
X585052Y143727D01*
X585621Y143250D01*
X586229Y142824D01*
X586871Y142453D01*
X587544Y142140D01*
X588242Y141886D01*
X588959Y141694D01*
X589689Y141565D01*
X590429Y141500D01*
X591171Y141500D01*
X591911Y141565D01*
X592642Y141694D01*
X593358Y141886D01*
X594056Y142140D01*
X594729Y142453D01*
X595371Y142824D01*
X595979Y143250D01*
X596548Y143727D01*
X597073Y144252D01*
X597550Y144821D01*
X597976Y145429D01*
X598347Y146071D01*
X598660Y146744D01*
X598914Y147442D01*
X599106Y148159D01*
X599235Y148889D01*
X599300Y149629D01*
X599300Y150371D01*
X599235Y151111D01*
X599106Y151842D01*
X598914Y152558D01*
X598660Y153256D01*
X598347Y153929D01*
X597976Y154571D01*
X597550Y155179D01*
X597073Y155748D01*
X596548Y156273D01*
X595979Y156750D01*
X595371Y157176D01*
X594729Y157547D01*
X594056Y157860D01*
X593358Y158114D01*
X592642Y158306D01*
X591911Y158435D01*
X591171Y158500D01*
X590429Y158500D01*
X589689Y158435D01*
X588959Y158306D01*
X588242Y158114D01*
X587544Y157860D01*
X586871Y157547D01*
X586229Y157176D01*
X585621Y156750D01*
X585052Y156273D01*
X584527Y155748D01*
X584050Y155179D01*
X583624Y154571D01*
X583253Y153929D01*
X582940Y153256D01*
X582686Y152558D01*
X582494Y151842D01*
X582365Y151111D01*
X582300Y150371D01*
X582300Y149629D01*
X486900Y174864D02*
X486976Y173796D01*
X487129Y172735D01*
X487357Y171688D01*
X487659Y170660D01*
X488033Y169656D01*
X488478Y168681D01*
X488992Y167741D01*
X489571Y166840D01*
X490213Y165982D01*
X490915Y165172D01*
X491672Y164415D01*
X492482Y163713D01*
X493340Y163071D01*
X494241Y162492D01*
X495181Y161978D01*
X496156Y161533D01*
X497160Y161159D01*
X498188Y160857D01*
X499235Y160629D01*
X500296Y160476D01*
X501364Y160400D01*
X502436Y160400D01*
X503504Y160476D01*
X504565Y160629D01*
X505612Y160857D01*
X506640Y161159D01*
X507644Y161533D01*
X508619Y161978D01*
X509559Y162492D01*
X510460Y163071D01*
X511318Y163713D01*
X512128Y164415D01*
X512885Y165172D01*
X513587Y165982D01*
X514229Y166840D01*
X514808Y167741D01*
X515322Y168681D01*
X515767Y169656D01*
X516141Y170660D01*
X516443Y171688D01*
X516671Y172735D01*
X516824Y173796D01*
X516900Y174864D01*
X516900Y175936D01*
X516824Y177004D01*
X516671Y178065D01*
X516443Y179112D01*
X516141Y180140D01*
X515767Y181144D01*
X515322Y182119D01*
X514808Y183059D01*
X514229Y183960D01*
X513587Y184818D01*
X512885Y185628D01*
X512128Y186385D01*
X511318Y187087D01*
X510460Y187729D01*
X509559Y188308D01*
X508619Y188822D01*
X507644Y189267D01*
X506640Y189641D01*
X505612Y189943D01*
X504565Y190171D01*
X503504Y190324D01*
X502436Y190400D01*
X501364Y190400D01*
X500296Y190324D01*
X499235Y190171D01*
X498188Y189943D01*
X497160Y189641D01*
X496156Y189267D01*
X495181Y188822D01*
X494241Y188308D01*
X493340Y187729D01*
X492482Y187087D01*
X491672Y186385D01*
X490915Y185628D01*
X490213Y184818D01*
X489571Y183960D01*
X488992Y183059D01*
X488478Y182119D01*
X488033Y181144D01*
X487659Y180140D01*
X487357Y179112D01*
X487129Y178065D01*
X486976Y177004D01*
X486900Y175936D01*
X486900Y174864D01*
X550400Y200264D02*
X550476Y199196D01*
X550629Y198135D01*
X550857Y197088D01*
X551159Y196060D01*
X551533Y195056D01*
X551978Y194081D01*
X552492Y193141D01*
X553071Y192240D01*
X553713Y191382D01*
X554415Y190572D01*
X555172Y189815D01*
X555982Y189113D01*
X556840Y188471D01*
X557741Y187892D01*
X558681Y187378D01*
X559656Y186933D01*
X560660Y186559D01*
X561688Y186257D01*
X562735Y186029D01*
X563796Y185876D01*
X564864Y185800D01*
X565936Y185800D01*
X567004Y185876D01*
X568065Y186029D01*
X569112Y186257D01*
X570140Y186559D01*
X571144Y186933D01*
X572119Y187378D01*
X573059Y187892D01*
X573960Y188471D01*
X574818Y189113D01*
X575628Y189815D01*
X576385Y190572D01*
X577087Y191382D01*
X577729Y192240D01*
X578308Y193141D01*
X578822Y194081D01*
X579267Y195056D01*
X579641Y196060D01*
X579943Y197088D01*
X580171Y198135D01*
X580324Y199196D01*
X580400Y200264D01*
X580400Y201336D01*
X580324Y202404D01*
X580171Y203465D01*
X579943Y204512D01*
X579641Y205540D01*
X579267Y206544D01*
X578822Y207519D01*
X578308Y208459D01*
X577729Y209360D01*
X577087Y210218D01*
X576385Y211028D01*
X575628Y211785D01*
X574818Y212487D01*
X573960Y213129D01*
X573059Y213708D01*
X572119Y214222D01*
X571144Y214667D01*
X570140Y215041D01*
X569112Y215343D01*
X568065Y215571D01*
X567004Y215724D01*
X565936Y215800D01*
X564864Y215800D01*
X563796Y215724D01*
X562735Y215571D01*
X561688Y215343D01*
X560660Y215041D01*
X559656Y214667D01*
X558681Y214222D01*
X557741Y213708D01*
X556840Y213129D01*
X555982Y212487D01*
X555172Y211785D01*
X554415Y211028D01*
X553713Y210218D01*
X553071Y209360D01*
X552492Y208459D01*
X551978Y207519D01*
X551533Y206544D01*
X551159Y205540D01*
X550857Y204512D01*
X550629Y203465D01*
X550476Y202404D01*
X550400Y201336D01*
X550400Y200264D01*
X710000Y149396D02*
X710073Y148189D01*
X710219Y146989D01*
X710437Y145800D01*
X710726Y144627D01*
X711085Y143473D01*
X711514Y142343D01*
X712010Y141241D01*
X712572Y140170D01*
X713197Y139136D01*
X713884Y138141D01*
X714629Y137190D01*
X715431Y136285D01*
X716285Y135431D01*
X717190Y134629D01*
X718141Y133884D01*
X719136Y133197D01*
X720170Y132572D01*
X721241Y132010D01*
X722343Y131514D01*
X723473Y131085D01*
X724627Y130726D01*
X725800Y130437D01*
X726989Y130219D01*
X728189Y130073D01*
X729396Y130000D01*
X730604Y130000D01*
X731811Y130073D01*
X733011Y130219D01*
X734200Y130437D01*
X735373Y130726D01*
X736527Y131085D01*
X737657Y131514D01*
X738759Y132010D01*
X739830Y132572D01*
X740864Y133197D01*
X741859Y133884D01*
X742810Y134629D01*
X743715Y135431D01*
X744569Y136285D01*
X745371Y137190D01*
X746116Y138141D01*
X746803Y139136D01*
X747428Y140170D01*
X747990Y141241D01*
X748486Y142343D01*
X748915Y143473D01*
X749274Y144627D01*
X749563Y145800D01*
X749781Y146989D01*
X749927Y148189D01*
X750000Y149396D01*
X750000Y150604D01*
X749927Y151811D01*
X749781Y153011D01*
X749563Y154200D01*
X749274Y155373D01*
X748915Y156527D01*
X748486Y157657D01*
X747990Y158759D01*
X747428Y159830D01*
X746803Y160864D01*
X746116Y161859D01*
X745371Y162810D01*
X744569Y163715D01*
X743715Y164569D01*
X742810Y165371D01*
X741859Y166116D01*
X740864Y166803D01*
X739830Y167428D01*
X738759Y167990D01*
X737657Y168486D01*
X736527Y168915D01*
X735373Y169274D01*
X734200Y169563D01*
X733011Y169781D01*
X731811Y169927D01*
X730604Y170000D01*
X729396Y170000D01*
X728189Y169927D01*
X726989Y169781D01*
X725800Y169563D01*
X724627Y169274D01*
X723473Y168915D01*
X722343Y168486D01*
X721241Y167990D01*
X720170Y167428D01*
X719136Y166803D01*
X718141Y166116D01*
X717190Y165371D01*
X716285Y164569D01*
X715431Y163715D01*
X714629Y162810D01*
X713884Y161859D01*
X713197Y160864D01*
X712572Y159830D01*
X712010Y158759D01*
X711514Y157657D01*
X711085Y156527D01*
X710726Y155373D01*
X710437Y154200D01*
X710219Y153011D01*
X710073Y151811D01*
X710000Y150604D01*
X710000Y149396D01*
X670700Y149629D02*
X670765Y148889D01*
X670894Y148159D01*
X671086Y147442D01*
X671340Y146744D01*
X671653Y146071D01*
X672024Y145429D01*
X672450Y144821D01*
X672927Y144252D01*
X673452Y143727D01*
X674021Y143250D01*
X674629Y142824D01*
X675271Y142453D01*
X675944Y142140D01*
X676642Y141886D01*
X677359Y141694D01*
X678089Y141565D01*
X678829Y141500D01*
X679571Y141500D01*
X680311Y141565D01*
X681042Y141694D01*
X681758Y141886D01*
X682456Y142140D01*
X683129Y142453D01*
X683771Y142824D01*
X684379Y143250D01*
X684948Y143727D01*
X685473Y144252D01*
X685950Y144821D01*
X686376Y145429D01*
X686747Y146071D01*
X687060Y146744D01*
X687314Y147442D01*
X687506Y148159D01*
X687635Y148889D01*
X687700Y149629D01*
X687700Y150371D01*
X687635Y151111D01*
X687506Y151842D01*
X687314Y152558D01*
X687060Y153256D01*
X686747Y153929D01*
X686376Y154571D01*
X685950Y155179D01*
X685473Y155748D01*
X684948Y156273D01*
X684379Y156750D01*
X683771Y157176D01*
X683129Y157547D01*
X682456Y157860D01*
X681758Y158114D01*
X681042Y158306D01*
X680311Y158435D01*
X679571Y158500D01*
X678829Y158500D01*
X678089Y158435D01*
X677359Y158306D01*
X676642Y158114D01*
X675944Y157860D01*
X675271Y157547D01*
X674629Y157176D01*
X674021Y156750D01*
X673452Y156273D01*
X672927Y155748D01*
X672450Y155179D01*
X672024Y154571D01*
X671653Y153929D01*
X671340Y153256D01*
X671086Y152558D01*
X670894Y151842D01*
X670765Y151111D01*
X670700Y150371D01*
X670700Y149629D01*
X772300Y149629D02*
X772365Y148889D01*
X772494Y148159D01*
X772686Y147442D01*
X772940Y146744D01*
X773253Y146071D01*
X773624Y145429D01*
X774050Y144821D01*
X774527Y144252D01*
X775052Y143727D01*
X775621Y143250D01*
X776229Y142824D01*
X776871Y142453D01*
X777544Y142140D01*
X778242Y141886D01*
X778959Y141694D01*
X779689Y141565D01*
X780429Y141500D01*
X781171Y141500D01*
X781911Y141565D01*
X782642Y141694D01*
X783358Y141886D01*
X784056Y142140D01*
X784729Y142453D01*
X785371Y142824D01*
X785979Y143250D01*
X786548Y143727D01*
X787073Y144252D01*
X787550Y144821D01*
X787976Y145429D01*
X788347Y146071D01*
X788660Y146744D01*
X788914Y147442D01*
X789106Y148159D01*
X789235Y148889D01*
X789300Y149629D01*
X789300Y150371D01*
X789235Y151111D01*
X789106Y151842D01*
X788914Y152558D01*
X788660Y153256D01*
X788347Y153929D01*
X787976Y154571D01*
X787550Y155179D01*
X787073Y155748D01*
X786548Y156273D01*
X785979Y156750D01*
X785371Y157176D01*
X784729Y157547D01*
X784056Y157860D01*
X783358Y158114D01*
X782642Y158306D01*
X781911Y158435D01*
X781171Y158500D01*
X780429Y158500D01*
X779689Y158435D01*
X778959Y158306D01*
X778242Y158114D01*
X777544Y157860D01*
X776871Y157547D01*
X776229Y157176D01*
X775621Y156750D01*
X775052Y156273D01*
X774527Y155748D01*
X774050Y155179D01*
X773624Y154571D01*
X773253Y153929D01*
X772940Y153256D01*
X772686Y152558D01*
X772494Y151842D01*
X772365Y151111D01*
X772300Y150371D01*
X772300Y149629D01*
X676900Y174864D02*
X676976Y173796D01*
X677129Y172735D01*
X677357Y171688D01*
X677659Y170660D01*
X678033Y169656D01*
X678478Y168681D01*
X678992Y167741D01*
X679571Y166840D01*
X680213Y165982D01*
X680915Y165172D01*
X681672Y164415D01*
X682482Y163713D01*
X683340Y163071D01*
X684241Y162492D01*
X685181Y161978D01*
X686156Y161533D01*
X687160Y161159D01*
X688188Y160857D01*
X689235Y160629D01*
X690296Y160476D01*
X691364Y160400D01*
X692436Y160400D01*
X693504Y160476D01*
X694565Y160629D01*
X695612Y160857D01*
X696640Y161159D01*
X697644Y161533D01*
X698619Y161978D01*
X699559Y162492D01*
X700460Y163071D01*
X701318Y163713D01*
X702128Y164415D01*
X702885Y165172D01*
X703587Y165982D01*
X704229Y166840D01*
X704808Y167741D01*
X705322Y168681D01*
X705767Y169656D01*
X706141Y170660D01*
X706443Y171688D01*
X706671Y172735D01*
X706824Y173796D01*
X706900Y174864D01*
X706900Y175936D01*
X706824Y177004D01*
X706671Y178065D01*
X706443Y179112D01*
X706141Y180140D01*
X705767Y181144D01*
X705322Y182119D01*
X704808Y183059D01*
X704229Y183960D01*
X703587Y184818D01*
X702885Y185628D01*
X702128Y186385D01*
X701318Y187087D01*
X700460Y187729D01*
X699559Y188308D01*
X698619Y188822D01*
X697644Y189267D01*
X696640Y189641D01*
X695612Y189943D01*
X694565Y190171D01*
X693504Y190324D01*
X692436Y190400D01*
X691364Y190400D01*
X690296Y190324D01*
X689235Y190171D01*
X688188Y189943D01*
X687160Y189641D01*
X686156Y189267D01*
X685181Y188822D01*
X684241Y188308D01*
X683340Y187729D01*
X682482Y187087D01*
X681672Y186385D01*
X680915Y185628D01*
X680213Y184818D01*
X679571Y183960D01*
X678992Y183059D01*
X678478Y182119D01*
X678033Y181144D01*
X677659Y180140D01*
X677357Y179112D01*
X677129Y178065D01*
X676976Y177004D01*
X676900Y175936D01*
X676900Y174864D01*
X740400Y200264D02*
X740476Y199196D01*
X740629Y198135D01*
X740857Y197088D01*
X741159Y196060D01*
X741533Y195056D01*
X741978Y194081D01*
X742492Y193141D01*
X743071Y192240D01*
X743713Y191382D01*
X744415Y190572D01*
X745172Y189815D01*
X745982Y189113D01*
X746840Y188471D01*
X747741Y187892D01*
X748681Y187378D01*
X749656Y186933D01*
X750660Y186559D01*
X751688Y186257D01*
X752735Y186029D01*
X753796Y185876D01*
X754864Y185800D01*
X755936Y185800D01*
X757004Y185876D01*
X758065Y186029D01*
X759112Y186257D01*
X760140Y186559D01*
X761144Y186933D01*
X762119Y187378D01*
X763059Y187892D01*
X763960Y188471D01*
X764818Y189113D01*
X765628Y189815D01*
X766385Y190572D01*
X767087Y191382D01*
X767729Y192240D01*
X768308Y193141D01*
X768822Y194081D01*
X769267Y195056D01*
X769641Y196060D01*
X769943Y197088D01*
X770171Y198135D01*
X770324Y199196D01*
X770400Y200264D01*
X770400Y201336D01*
X770324Y202404D01*
X770171Y203465D01*
X769943Y204512D01*
X769641Y205540D01*
X769267Y206544D01*
X768822Y207519D01*
X768308Y208459D01*
X767729Y209360D01*
X767087Y210218D01*
X766385Y211028D01*
X765628Y211785D01*
X764818Y212487D01*
X763960Y213129D01*
X763059Y213708D01*
X762119Y214222D01*
X761144Y214667D01*
X760140Y215041D01*
X759112Y215343D01*
X758065Y215571D01*
X757004Y215724D01*
X755936Y215800D01*
X754864Y215800D01*
X753796Y215724D01*
X752735Y215571D01*
X751688Y215343D01*
X750660Y215041D01*
X749656Y214667D01*
X748681Y214222D01*
X747741Y213708D01*
X746840Y213129D01*
X745982Y212487D01*
X745172Y211785D01*
X744415Y211028D01*
X743713Y210218D01*
X743071Y209360D01*
X742492Y208459D01*
X741978Y207519D01*
X741533Y206544D01*
X741159Y205540D01*
X740857Y204512D01*
X740629Y203465D01*
X740476Y202404D01*
X740400Y201336D01*
X740400Y200264D01*
M02*
