G04 EAGLE Gerber RS-274X export*
G75*
%MOMM*%
%FSLAX34Y34*%
%LPD*%
%INSoldermask Top*%
%IPPOS*%
%AMOC8*
5,1,8,0,0,1.08239X$1,22.5*%
G01*
%ADD10C,3.203200*%
%ADD11C,4.203200*%
%ADD12C,1.903200*%
%ADD13R,1.631200X1.631200*%
%ADD14C,1.631200*%
%ADD15C,1.853200*%
%ADD16R,1.853200X1.853200*%
%ADD17C,4.219200*%
%ADD18C,1.711200*%
%ADD19C,2.082800*%
%ADD20C,0.959600*%


D10*
X30000Y860000D03*
X860000Y860000D03*
X30000Y30000D03*
X860000Y30000D03*
D11*
X160000Y530000D03*
D12*
X109200Y530000D03*
X210800Y530000D03*
D10*
X121900Y555400D03*
X185400Y580800D03*
D11*
X350000Y530000D03*
D12*
X299200Y530000D03*
X400800Y530000D03*
D10*
X311900Y555400D03*
X375400Y580800D03*
D11*
X540000Y530000D03*
D12*
X489200Y530000D03*
X590800Y530000D03*
D10*
X501900Y555400D03*
X565400Y580800D03*
D11*
X730000Y530000D03*
D12*
X679200Y530000D03*
X780800Y530000D03*
D10*
X691900Y555400D03*
X755400Y580800D03*
D11*
X160000Y340000D03*
D12*
X109200Y340000D03*
X210800Y340000D03*
D10*
X121900Y365400D03*
X185400Y390800D03*
D11*
X350000Y340000D03*
D12*
X299200Y340000D03*
X400800Y340000D03*
D10*
X311900Y365400D03*
X375400Y390800D03*
D11*
X540000Y340000D03*
D12*
X489200Y340000D03*
X590800Y340000D03*
D10*
X501900Y365400D03*
X565400Y390800D03*
D11*
X730000Y340000D03*
D12*
X679200Y340000D03*
X780800Y340000D03*
D10*
X691900Y365400D03*
X755400Y390800D03*
D11*
X160000Y150000D03*
D12*
X109200Y150000D03*
X210800Y150000D03*
D10*
X121900Y175400D03*
X185400Y200800D03*
D11*
X350000Y150000D03*
D12*
X299200Y150000D03*
X400800Y150000D03*
D10*
X311900Y175400D03*
X375400Y200800D03*
D11*
X540000Y150000D03*
D12*
X489200Y150000D03*
X590800Y150000D03*
D10*
X501900Y175400D03*
X565400Y200800D03*
D11*
X730000Y150000D03*
D12*
X679200Y150000D03*
X780800Y150000D03*
D10*
X691900Y175400D03*
X755400Y200800D03*
D13*
X34350Y638300D03*
D14*
X59750Y638300D03*
X85500Y638300D03*
X110900Y638300D03*
X136300Y638300D03*
X161700Y638300D03*
X187100Y638300D03*
X212500Y638300D03*
X237900Y638300D03*
X263300Y638300D03*
X288700Y638300D03*
X314100Y638300D03*
X339500Y638300D03*
X364900Y638300D03*
X390300Y638300D03*
X415700Y638300D03*
X441100Y638300D03*
X466500Y638300D03*
X491900Y638300D03*
X517300Y638300D03*
D13*
X34350Y790700D03*
D14*
X59750Y790700D03*
X85500Y790700D03*
X110900Y790700D03*
X136300Y790700D03*
X161700Y790700D03*
X187100Y790700D03*
X212500Y790700D03*
X237900Y790700D03*
X263300Y790700D03*
X288700Y790700D03*
X314100Y790700D03*
X339500Y790700D03*
X364900Y790700D03*
X390300Y790700D03*
X415700Y790700D03*
X441100Y790700D03*
X466500Y790700D03*
X491900Y790700D03*
X517300Y790700D03*
D15*
X235000Y820000D03*
X285000Y820000D03*
D16*
X235000Y675000D03*
D15*
X260000Y675000D03*
X285000Y675000D03*
D17*
X203000Y750000D03*
X317000Y750000D03*
D15*
X605000Y820000D03*
X655000Y820000D03*
D16*
X605000Y675000D03*
D15*
X630000Y675000D03*
X655000Y675000D03*
D17*
X573000Y750000D03*
X687000Y750000D03*
D18*
X792900Y778900D03*
X727900Y778900D03*
X792900Y823900D03*
X727900Y823900D03*
D19*
X35100Y496700D03*
X35100Y522100D03*
X35100Y547500D03*
X35100Y572900D03*
D20*
X210000Y85000D03*
X220000Y470000D03*
X215000Y280000D03*
X315000Y100000D03*
X280000Y480000D03*
X285000Y290000D03*
X492500Y87500D03*
X480000Y280000D03*
X485000Y480000D03*
X682500Y87500D03*
X675000Y280000D03*
X675000Y470000D03*
X197500Y432500D03*
X210000Y120000D03*
X230000Y170000D03*
X400000Y120000D03*
X420000Y170000D03*
X585000Y110000D03*
X610000Y170000D03*
X237500Y317500D03*
X587500Y717500D03*
X610000Y782500D03*
X550000Y645000D03*
X547500Y662500D03*
X687500Y682500D03*
X785000Y467500D03*
X817500Y597500D03*
X782500Y277500D03*
X820000Y400000D03*
X57500Y345000D03*
X110000Y255000D03*
X85000Y700000D03*
X107500Y447500D03*
X175000Y670000D03*
X397500Y450000D03*
X257500Y80000D03*
X460000Y67500D03*
X447500Y90000D03*
X637500Y67500D03*
X640000Y97500D03*
X820000Y215000D03*
M02*
